<svg xmlns="http://www.w3.org/2000/svg" xmlns:xlink="http://www.w3.org/1999/xlink" xmlns:lucid="lucid" width="3313" height="1343"><g transform="translate(1661 3776)" lucid:page-tab-id="0_0"><path d="M-5000-4000h8000v6500h-8000z" fill="#fff"/><path d="M-1622.1-3693.86a6 6 0 0 1 6-6h3188.7a6 6 0 0 1 6 6v1165.5a6 6 0 0 1-6 6h-3188.7a6 6 0 0 1-6-6z" stroke="#5e5e5e" stroke-width="3" fill="#fff"/><path d="M-1594.25-3673.86a6 6 0 0 1 6-6h3140.7a6 6 0 0 1 6 6v68a6 6 0 0 1-6 6h-3140.7a6 6 0 0 1-6-6z" stroke="#000" stroke-opacity="0" stroke-width="3" fill="#fff"/><use xlink:href="#a" transform="matrix(1,0,0,1,-1589.2469149513988,-3674.863672071711) translate(1188.0432098765432 44.30555555555556)"/><use xlink:href="#b" transform="matrix(1,0,0,1,-1589.2469149513988,-3674.863672071711) translate(1380.388888888889 44.30555555555556)"/><use xlink:href="#c" transform="matrix(1,0,0,1,-1589.2469149513988,-3674.863672071711) translate(1464.3395061728395 44.30555555555556)"/><use xlink:href="#d" transform="matrix(1,0,0,1,-1589.2469149513988,-3674.863672071711) translate(1725.5740740740741 44.30555555555556)"/><use xlink:href="#e" transform="matrix(1,0,0,1,-1589.2469149513988,-3674.863672071711) translate(1787.3024691358025 44.30555555555556)"/><path d="M-1594.25-3568.23a12 12 0 0 1 12-12h595.16a12 12 0 0 1 12 12v1001.53a12 12 0 0 1-12 12h-595.15a12 12 0 0 1-12-12z" stroke="#000" stroke-opacity="0" stroke-width="2" fill="#fafafa" filter="url(#f)"/><path d="M-1594.25-3569.73h640v90.36h-640z" stroke="#000" stroke-opacity="0" stroke-width="2" fill="#fff" fill-opacity="0"/><use xlink:href="#g" transform="matrix(1,0,0,1,-1589.2469149513988,-3564.7318945219267) translate(236.5277777777778 46.916666666666664)"/><use xlink:href="#h" transform="matrix(1,0,0,1,-1589.2469149513988,-3564.7318945219267) translate(382.4537037037037 46.916666666666664)"/><path d="M-1434.56-3197.4a8 8 0 0 1 8-8h304.63a8 8 0 0 1 8 8v76.43a8 8 0 0 1-8 8h-304.63a8 8 0 0 1-8-8z" stroke="#000" stroke-opacity="0" stroke-width="2" fill="#54c45e"/><use xlink:href="#i" transform="matrix(1,0,0,1,-1429.5594149513988,-3200.388563767343) translate(59.67469135802472 46.48680555555555)"/><use xlink:href="#j" transform="matrix(1,0,0,1,-1429.5594149513988,-3200.388563767343) translate(106.99506172839507 46.48680555555555)"/><use xlink:href="#k" transform="matrix(1,0,0,1,-1429.5594149513988,-3200.388563767343) translate(139.35246913580247 46.48680555555555)"/><path d="M-1434.56-3069.97a8 8 0 0 1 8-8h304.63a8 8 0 0 1 8 8v76.42a8 8 0 0 1-8 8h-304.63a8 8 0 0 1-8-8z" stroke="#000" stroke-opacity="0" stroke-width="2" fill="#ba23f6"/><use xlink:href="#l" transform="matrix(1,0,0,1,-1429.5594149513988,-3072.966784000624) translate(106.05987654320988 46.48680555555555)"/><path d="M-1434.56-3452.23a8 8 0 0 1 8-8h304.63a8 8 0 0 1 8 8v76.42a8 8 0 0 1-8 8h-304.63a8 8 0 0 1-8-8z" stroke="#000" stroke-opacity="0" stroke-width="2" fill="#e81313"/><use xlink:href="#m" transform="matrix(1,0,0,1,-1429.5594149513988,-3455.2321233007824) translate(15.799741296296276 45.13753555555556)"/><use xlink:href="#n" transform="matrix(1,0,0,1,-1429.5594149513988,-3455.2321233007824) translate(160.8000098148148 45.13753555555556)"/><use xlink:href="#o" transform="matrix(1,0,0,1,-1429.5594149513988,-3455.2321233007824) translate(195.4000738888889 45.13753555555556)"/><path d="M-1434.56-3324.8a8 8 0 0 1 8-8h304.63a8 8 0 0 1 8 8v76.4a8 8 0 0 1-8 8h-304.63a8 8 0 0 1-8-8z" stroke="#000" stroke-opacity="0" stroke-width="2" fill="#1071e5"/><use xlink:href="#p" transform="matrix(1,0,0,1,-1429.5594149513988,-3327.8103435340627) translate(92.03209876543212 46.48680555555555)"/><path d="M-1434.56-2942.55a8 8 0 0 1 8-8h304.63a8 8 0 0 1 8 8v76.43a8 8 0 0 1-8 8h-304.63a8 8 0 0 1-8-8z" stroke="#000" stroke-opacity="0" stroke-width="2" fill="#fc9432"/><use xlink:href="#q" transform="matrix(1,0,0,1,-1429.5594149513988,-2945.5450042339053) translate(115.66111111111111 46.48680555555555)"/><path d="M-1434.56-3197.4a8 8 0 0 1 8-8h304.63a8 8 0 0 1 8 8v76.43a8 8 0 0 1-8 8h-304.63a8 8 0 0 1-8-8z" stroke="#000" stroke-opacity="0" stroke-width="2" fill="#54c45e"/><use xlink:href="#r" transform="matrix(1,0,0,1,-1429.5594149513988,-3200.388563767343) translate(117.53148148148149 46.48680555555555)"/><path d="M-1434.56-3069.97a8 8 0 0 1 8-8h304.63a8 8 0 0 1 8 8v76.42a8 8 0 0 1-8 8h-304.63a8 8 0 0 1-8-8z" stroke="#000" stroke-opacity="0" stroke-width="2" fill="#ba23f6"/><use xlink:href="#s" transform="matrix(1,0,0,1,-1429.5594149513988,-3072.966784000624) translate(94.58827160493829 46.48680555555555)"/><path d="M-1434.56-3452.23a8 8 0 0 1 8-8h304.63a8 8 0 0 1 8 8v76.42a8 8 0 0 1-8 8h-304.63a8 8 0 0 1-8-8z" stroke="#000" stroke-opacity="0" stroke-width="2" fill="#e81313"/><use xlink:href="#m" transform="matrix(1,0,0,1,-1429.5594149513988,-3455.2321233007824) translate(15.799741296296276 45.13753555555556)"/><use xlink:href="#n" transform="matrix(1,0,0,1,-1429.5594149513988,-3455.2321233007824) translate(160.8000098148148 45.13753555555556)"/><use xlink:href="#o" transform="matrix(1,0,0,1,-1429.5594149513988,-3455.2321233007824) translate(195.4000738888889 45.13753555555556)"/><path d="M-1434.56-3324.8a8 8 0 0 1 8-8h304.63a8 8 0 0 1 8 8v76.4a8 8 0 0 1-8 8h-304.63a8 8 0 0 1-8-8z" stroke="#000" stroke-opacity="0" stroke-width="2" fill="#1071e5"/><use xlink:href="#t" transform="matrix(1,0,0,1,-1429.5594149513988,-3327.8103435340627) translate(112.29444444444445 46.48680555555555)"/><path d="M-1434.56-2815.12a8 8 0 0 1 8-8h304.63a8 8 0 0 1 8 8v76.42a8 8 0 0 1-8 8h-304.63a8 8 0 0 1-8-8z" stroke="#000" stroke-opacity="0" stroke-width="2" fill="#cbc2a3"/><use xlink:href="#u" transform="matrix(1,0,0,1,-1429.5594149513988,-2818.1232244671855) translate(64.44413580246916 46.48680555555555)"/><use xlink:href="#v" transform="matrix(1,0,0,1,-1429.5594149513988,-2818.1232244671855) translate(138.38611111111112 46.48680555555555)"/><use xlink:href="#w" transform="matrix(1,0,0,1,-1429.5594149513988,-2818.1232244671855) translate(179.4719135802469 46.48680555555555)"/><path d="M-1434.56-2687.7a8 8 0 0 1 8-8h304.63a8 8 0 0 1 8 8v76.42a8 8 0 0 1-8 8h-304.63a8 8 0 0 1-8-8z" stroke="#000" stroke-opacity="0" stroke-width="2" fill="#ff80df"/><use xlink:href="#x" transform="matrix(1,0,0,1,-1429.5594149513988,-2690.7014447004663) translate(1.8490740740741103 46.48680555555555)"/><use xlink:href="#y" transform="matrix(1,0,0,1,-1429.5594149513988,-2690.7014447004663) translate(131.15401234567904 46.48680555555555)"/><path d="M-881.4-3231.8a8 8 0 0 1 8-8h304.62a8 8 0 0 1 8 8v76.4a8 8 0 0 1-8 8H-873.4a8 8 0 0 1-8-8z" stroke="#000" stroke-opacity="0" stroke-width="2" fill="#e81313"/><use xlink:href="#m" transform="matrix(1,0,0,1,-876.4042908765339,-3234.808332039712) translate(15.799741296296276 45.13753555555556)"/><use xlink:href="#n" transform="matrix(1,0,0,1,-876.4042908765339,-3234.808332039712) translate(160.8000098148148 45.13753555555556)"/><use xlink:href="#o" transform="matrix(1,0,0,1,-876.4042908765339,-3234.808332039712) translate(195.4000738888889 45.13753555555556)"/><path d="M-284.36-3191.86a8 8 0 0 1 8-8H-5.83a8 8 0 0 1 8 8v24a8 8 0 0 1-8 8h-270.53a8 8 0 0 1-8-8z" stroke="#000" stroke-opacity="0" stroke-width="2" fill="#1071e5"/><use xlink:href="#z" transform="matrix(1,0,0,1,-279.3579788391014,-3194.863672071711) translate(82.82530864197531 19.893055555555552)"/><path d="M-284.36-2761.22a8 8 0 0 1 8-8H-5.83a8 8 0 0 1 8 8v24a8 8 0 0 1-8 8h-270.53a8 8 0 0 1-8-8z" stroke="#000" stroke-opacity="0" stroke-width="2" fill="#54c45e"/><use xlink:href="#r" transform="matrix(1,0,0,1,-279.3579788391014,-2764.221345842996) translate(100.53148148148149 19.893055555555552)"/><path d="M-284.36-2627.8a8 8 0 0 1 8-8H-5.83a8 8 0 0 1 8 8v24a8 8 0 0 1-8 8h-270.53a8 8 0 0 1-8-8z" stroke="#000" stroke-opacity="0" stroke-width="2" fill="#ba23f6"/><use xlink:href="#s" transform="matrix(1,0,0,1,-279.3579788391014,-2630.802784944631) translate(77.58827160493829 19.893055555555552)"/><path d="M-721.1-3146.4v100.54a6 6 0 0 0 6 6h421.75" stroke="#5e5e5e" stroke-width="2" fill="none"/><path d="M-720.1-3146.36h-2v-1.03h2z" stroke="#5e5e5e" stroke-width=".05" fill="#5e5e5e"/><path d="M-286.32-3039.86l-12.9 7.63v-15.27z" stroke="#5e5e5e" stroke-width="2" fill="#5e5e5e"/><use xlink:href="#A" transform="matrix(1,0,0,1,-535.8877690816339,-3070.530338738378) translate(0.0049999999999954525 17.77777777777778)"/><path d="M-721.1-3146.4v391.18a6 6 0 0 0 6 6h421.75" stroke="#5e5e5e" stroke-width="2" fill="none"/><path d="M-720.1-3146.36h-2v-1.03h2z" stroke="#5e5e5e" stroke-width=".05" fill="#5e5e5e"/><path d="M-286.32-2749.22l-12.9 7.63v-15.26z" stroke="#5e5e5e" stroke-width="2" fill="#5e5e5e"/><path d="M-721.1-3146.4v524.6a6 6 0 0 0 6 6h421.75" stroke="#5e5e5e" stroke-width="2" fill="none"/><path d="M-720.1-3146.36h-2v-1.03h2z" stroke="#5e5e5e" stroke-width=".05" fill="#5e5e5e"/><path d="M-286.32-2615.8l-12.9 7.63v-15.27z" stroke="#5e5e5e" stroke-width="2" fill="#5e5e5e"/><use xlink:href="#B" transform="matrix(1,0,0,1,-571.100190556488,-2646.469451611298) translate(0.0049999999999954525 17.77777777777778)"/><path d="M-327.97-3040.86v-133a6 6 0 0 1 6-6h28.62M-327.97-3040.9v1.04" stroke="#5e5e5e" stroke-width="2" fill="none"/><path d="M-286.32-3179.86l-12.9 7.63v-15.27z" stroke="#5e5e5e" stroke-width="2" fill="#5e5e5e"/><path d="M-284.36-3051.86a8 8 0 0 1 8-8H-5.83a8 8 0 0 1 8 8v24a8 8 0 0 1-8 8h-270.53a8 8 0 0 1-8-8z" stroke="#000" stroke-opacity="0" stroke-width="2" fill="#1071e5"/><use xlink:href="#C" transform="matrix(1,0,0,1,-279.3579788391014,-3054.863672071711) translate(82.82530864197531 19.893055555555552)"/><path d="M-284.36-2931.86a8 8 0 0 1 8-8H-5.83a8 8 0 0 1 8 8v24a8 8 0 0 1-8 8h-270.53a8 8 0 0 1-8-8z" stroke="#000" stroke-opacity="0" stroke-width="2" fill="#1071e5"/><use xlink:href="#D" transform="matrix(1,0,0,1,-279.3579788391014,-2934.863672071711) translate(82.82530864197531 19.893055555555552)"/><path d="M375.7-2841.22a8 8 0 0 1 8-8H654.2a8 8 0 0 1 8 8v24a8 8 0 0 1-8 8H383.7a8 8 0 0 1-8-8z" stroke="#000" stroke-opacity="0" stroke-width="2" fill="#54c45e"/><use xlink:href="#E" transform="matrix(1,0,0,1,380.6858927345272,-2844.221345842996) translate(45.137345679012356 19.893055555555552)"/><use xlink:href="#F" transform="matrix(1,0,0,1,380.6858927345272,-2844.221345842996) translate(130.98734567901232 19.893055555555552)"/><path d="M375.7-2761.22a8 8 0 0 1 8-8H654.2a8 8 0 0 1 8 8v24a8 8 0 0 1-8 8H383.7a8 8 0 0 1-8-8z" stroke="#000" stroke-opacity="0" stroke-width="2" fill="#54c45e"/><use xlink:href="#E" transform="matrix(1,0,0,1,380.6858927345272,-2764.221345842996) translate(45.137345679012356 19.893055555555552)"/><use xlink:href="#G" transform="matrix(1,0,0,1,380.6858927345272,-2764.221345842996) translate(130.98734567901232 19.893055555555552)"/><path d="M375.7-2681.22a8 8 0 0 1 8-8H654.2a8 8 0 0 1 8 8v24a8 8 0 0 1-8 8H383.7a8 8 0 0 1-8-8z" stroke="#000" stroke-opacity="0" stroke-width="2" fill="#54c45e"/><use xlink:href="#E" transform="matrix(1,0,0,1,380.6858927345272,-2684.221345842996) translate(45.137345679012356 19.893055555555552)"/><use xlink:href="#H" transform="matrix(1,0,0,1,380.6858927345272,-2684.221345842996) translate(130.98734567901232 19.893055555555552)"/><path d="M3.17-2749.22H366.7" stroke="#5e5e5e" stroke-width="2" fill="none"/><path d="M3.2-2748.22H2.17v-2H3.2z" stroke="#5e5e5e" stroke-width=".05" fill="#5e5e5e"/><path d="M373.72-2749.22l-12.9 7.63v-15.26z" stroke="#5e5e5e" stroke-width="2" fill="#5e5e5e"/><path d="M3.17-2749.22H302.6a6 6 0 0 0 6-6v-68a6 6 0 0 1 6-6h52.1" stroke="#5e5e5e" stroke-width="2" fill="none"/><path d="M3.2-2748.22H2.17v-2H3.2z" stroke="#5e5e5e" stroke-width=".05" fill="#5e5e5e"/><path d="M373.72-2829.22l-12.9 7.63v-15.26z" stroke="#5e5e5e" stroke-width="2" fill="#5e5e5e"/><path d="M3.17-2749.22H302.6a6 6 0 0 1 6 6v68a6 6 0 0 0 6 6h52.1" stroke="#5e5e5e" stroke-width="2" fill="none"/><path d="M3.2-2748.22H2.17v-2H3.2z" stroke="#5e5e5e" stroke-width=".05" fill="#5e5e5e"/><path d="M373.72-2669.22l-12.9 7.63v-15.26z" stroke="#5e5e5e" stroke-width="2" fill="#5e5e5e"/><use xlink:href="#I" transform="matrix(1,0,0,1,60.79169093295752,-2779.8880125096625) translate(0.0049999999999954525 17.77777777777778)"/><path d="M1092.26-3210.2a8 8 0 0 1 8-8h270.53a8 8 0 0 1 8 8v24a8 8 0 0 1-8 8h-270.54a8 8 0 0 1-8-8z" stroke="#000" stroke-opacity="0" stroke-width="2" fill="#54c45e"/><use xlink:href="#J" transform="matrix(1,0,0,1,1097.2595991251526,-3213.1962253685083) translate(51.340740740740756 19.893055555555552)"/><use xlink:href="#K" transform="matrix(1,0,0,1,1097.2595991251526,-3213.1962253685083) translate(158.45061728395063 19.893055555555552)"/><path d="M1092.26-3130.2a8 8 0 0 1 8-8h270.53a8 8 0 0 1 8 8v24a8 8 0 0 1-8 8h-270.54a8 8 0 0 1-8-8z" stroke="#000" stroke-opacity="0" stroke-width="2" fill="#54c45e"/><use xlink:href="#J" transform="matrix(1,0,0,1,1097.2595991251526,-3133.196225368509) translate(51.340740740740756 19.893055555555552)"/><use xlink:href="#L" transform="matrix(1,0,0,1,1097.2595991251526,-3133.196225368509) translate(158.45061728395063 19.893055555555552)"/><path d="M1092.26-3050.2a8 8 0 0 1 8-8h270.53a8 8 0 0 1 8 8v24a8 8 0 0 1-8 8h-270.54a8 8 0 0 1-8-8z" stroke="#000" stroke-opacity="0" stroke-width="2" fill="#54c45e"/><use xlink:href="#J" transform="matrix(1,0,0,1,1097.2595991251526,-3053.1962253685087) translate(51.340740740740756 19.893055555555552)"/><use xlink:href="#M" transform="matrix(1,0,0,1,1097.2595991251526,-3053.1962253685087) translate(158.45061728395063 19.893055555555552)"/><path d="M848.52-2835.18l-.08 1.05-.26 1.07-.4 1.02-.6.93-.7.83-.84.7-.94.6-1 .4-1.08.27-1.06.08H663.22v-2H841.5l.8-.07.77-.17.72-.3.66-.4.6-.52.5-.58.42-.67.3-.73.18-.76.06-.82v-194.83h2zm234.75-362.02h-44.4l-.82.07-.76.18-.74.3-.66.4-.6.52-.5.6-.42.66-.3.73-.18.76-.07.82v68l-.08 1.06-.26 1.07-.43 1-.57.95-.72.84-.83.7-.94.58-1 .42-1.07.26-1.06.08h-173.3l-.83.07-.76.18-.72.3-.67.4-.6.52-.52.6-.4.66-.3.73-.2.76-.06.82v55.4h-2v-55.48l.1-1.05.25-1.06.4-1.02.6-.93.7-.85.84-.7.95-.6 1-.4 1.08-.26 1.06-.1h173.3l.8-.06.78-.18.72-.3.67-.4.6-.52.5-.6.4-.67.3-.72.2-.76.06-.84v-68l.1-1.05.24-1.06.42-1.02.57-.93.7-.85.85-.7.93-.6 1.02-.4 1.07-.26 1.05-.1h44.47z" stroke="#5e5e5e" stroke-width=".05" fill="#5e5e5e"/><path d="M663.24-2828.22h-1.02v-2h1.02z" fill="#5e5e5e"/><path d="M663.27-2828.2h-1.08v-2.05h1.07zm-1.03-2v1.95h.98v-1.95z" stroke="#5e5e5e" stroke-width=".05" fill="#5e5e5e"/><path d="M1090.3-3198.2l-12.92 7.64v-15.27z" fill="#5e5e5e"/><path d="M1092.26-3198.2l-15.88 9.4v-18.78zm-13.88 5.9l9.95-5.9-9.95-5.88zM848.52-2835.18l-.08 1.05-.26 1.07-.4 1.02-.6.93-.7.83-.84.7-.94.6-1 .4-1.08.27-1.06.08H663.22v-2H841.5l.8-.07.77-.17.72-.3.66-.4.6-.52.5-.58.42-.67.3-.73.18-.76.06-.82v-194.83h2zm234.75-282.02h-229.7l-.83.07-.76.18-.72.3-.67.4-.6.52-.52.6-.4.66-.3.73-.2.76-.06.82v55.4h-2v-55.48l.1-1.05.25-1.06.4-1.02.6-.93.7-.85.84-.7.95-.6 1-.4 1.08-.26 1.06-.1h229.77z" stroke="#5e5e5e" stroke-width=".05" fill="#5e5e5e"/><path d="M663.24-2828.22h-1.02v-2h1.02z" fill="#5e5e5e"/><path d="M663.27-2828.2h-1.08v-2.05h1.07zm-1.03-2v1.95h.98v-1.95z" stroke="#5e5e5e" stroke-width=".05" fill="#5e5e5e"/><path d="M1090.3-3118.2l-12.92 7.64v-15.27z" fill="#5e5e5e"/><path d="M1092.26-3118.2l-15.88 9.4v-18.78zm-13.88 5.9l9.95-5.9-9.95-5.88zM848.52-2835.18l-.08 1.05-.26 1.07-.4 1.02-.6.93-.7.83-.84.7-.94.6-1 .4-1.08.27-1.06.08H663.22v-2H841.5l.8-.07.77-.17.72-.3.66-.4.6-.52.5-.58.42-.67.3-.73.18-.76.06-.82v-194.83h2zm179.4-283.93l1.08.24 1 .42.95.58.83.7.72.85.57.92.42 1.02.25 1.07.08 1.06v68l.07.82.18.77.3.72.4.67.52.6.6.5.66.42.73.3.75.18.82.06h44.4v2h-44.48l-1.06-.08-1.07-.26-1.02-.42-.94-.57-.82-.7-.7-.85-.6-.94-.4-1-.27-1.08-.07-1.06v-68l-.06-.82-.2-.76-.3-.73-.4-.66-.5-.6-.6-.5-.67-.42-.72-.3-.77-.18-.8-.07H853.55l-.82.07-.76.18-.72.3-.67.4-.6.52-.52.6-.4.66-.3.73-.2.76-.06.82v55.4h-2v-55.48l.1-1.05.25-1.06.4-1.02.6-.93.7-.85.84-.7.95-.6 1-.4 1.08-.26 1.06-.1h173.37z" stroke="#5e5e5e" stroke-width=".05" fill="#5e5e5e"/><path d="M663.24-2828.22h-1.02v-2h1.02z" fill="#5e5e5e"/><path d="M663.27-2828.2h-1.08v-2.05h1.07zm-1.03-2v1.95h.98v-1.95z" stroke="#5e5e5e" stroke-width=".05" fill="#5e5e5e"/><path d="M1090.3-3038.2l-12.92 7.64v-15.27z" fill="#5e5e5e"/><path d="M1092.26-3038.2l-15.88 9.4v-18.78zm-13.88 5.9l9.95-5.9-9.95-5.88z" stroke="#5e5e5e" stroke-width=".05" fill="#5e5e5e"/><use xlink:href="#I" transform="matrix(1,0,0,1,755.7348354996209,-3056.756093912515) translate(0.0049999999999954525 17.77777777777778)"/><path d="M1098.6-3371.86a8 8 0 0 1 8-8h270.53a8 8 0 0 1 8 8v24a8 8 0 0 1-8 8H1106.6a8 8 0 0 1-8-8z" stroke="#000" stroke-opacity="0" stroke-width="2" fill="#fc9432"/><use xlink:href="#J" transform="matrix(1,0,0,1,1103.5957091234661,-3374.863672071711) translate(30.236728395061746 19.893055555555552)"/><use xlink:href="#N" transform="matrix(1,0,0,1,1103.5957091234661,-3374.863672071711) translate(137.3466049382716 19.893055555555552)"/><path d="M1426.13-3204.16l-.1 1.06-.24 1.07-.43 1-.58.95-.72.84-.84.7-.93.58-1 .42-1.08.26-1.05.08h-39.38v-2h39.3l.8-.06.77-.18.73-.3.66-.4.6-.52.5-.6.42-.67.3-.72.18-.76.07-.84v-69.38h2zm-5.9-156.62l1.06.26 1 .42.94.57.84.7.7.85.6.94.4 1 .27 1.08.08 1.06v53.6h-2v-53.52l-.07-.82-.18-.77-.3-.73-.4-.67-.52-.6-.6-.5-.66-.42-.73-.3-.76-.18-.8-.06h-24.98v-2h25.05z" stroke="#5e5e5e" stroke-width=".05" fill="#5e5e5e"/><path d="M1379.82-3197.2h-1.03v-2h1.02z" fill="#5e5e5e"/><path d="M1379.84-3197.17h-1.07v-2.05h1.07zm-1.02-2v1.95h.97v-1.95z" stroke="#5e5e5e" stroke-width=".05" fill="#5e5e5e"/><path d="M1400-3352.23l-12.9-7.63 12.9-7.64z" fill="#5e5e5e"/><path d="M1401-3350.47l-15.87-9.4 15.87-9.38zm-11.94-9.4l9.94 5.9v-11.78z" stroke="#5e5e5e" stroke-width=".05" fill="#5e5e5e"/><path d="M1426.13-3124.16l-.1 1.06-.24 1.07-.43 1-.58.95-.72.84-.84.7-.93.58-1 .42-1.08.26-1.05.08h-39.38v-2h39.3l.8-.06.77-.18.73-.3.66-.4.6-.52.5-.6.42-.67.3-.72.18-.76.07-.84v-149.38h2zm-5.9-236.62l1.06.26 1 .42.94.57.84.7.7.85.6.94.4 1 .27 1.08.08 1.06v53.6h-2v-53.52l-.07-.82-.18-.77-.3-.73-.4-.67-.52-.6-.6-.5-.66-.42-.73-.3-.76-.18-.8-.06h-24.98v-2h25.05z" stroke="#5e5e5e" stroke-width=".05" fill="#5e5e5e"/><path d="M1379.82-3117.2h-1.03v-2h1.02z" fill="#5e5e5e"/><path d="M1379.84-3117.17h-1.07v-2.05h1.07zm-1.02-2v1.95h.97v-1.95z" stroke="#5e5e5e" stroke-width=".05" fill="#5e5e5e"/><path d="M1400-3352.23l-12.9-7.63 12.9-7.64z" fill="#5e5e5e"/><path d="M1401-3350.47l-15.87-9.4 15.87-9.38zm-11.94-9.4l9.94 5.9v-11.78z" stroke="#5e5e5e" stroke-width=".05" fill="#5e5e5e"/><path d="M1426.13-3044.16l-.1 1.06-.24 1.07-.43 1-.58.95-.72.84-.84.7-.93.58-1 .42-1.08.26-1.05.08h-39.38v-2h39.3l.8-.06.77-.18.73-.3.66-.4.6-.52.5-.6.42-.67.3-.72.18-.76.07-.84v-229.38h2zm-5.9-316.62l1.06.26 1 .42.94.57.84.7.7.85.6.94.4 1 .27 1.08.08 1.06v53.6h-2v-53.52l-.07-.82-.18-.77-.3-.73-.4-.67-.52-.6-.6-.5-.66-.42-.73-.3-.76-.18-.8-.06h-24.98v-2h25.05z" stroke="#5e5e5e" stroke-width=".05" fill="#5e5e5e"/><path d="M1379.82-3037.2h-1.03v-2h1.02z" fill="#5e5e5e"/><path d="M1379.84-3037.17h-1.07v-2.05h1.07zm-1.02-2v1.95h.97v-1.95z" stroke="#5e5e5e" stroke-width=".05" fill="#5e5e5e"/><path d="M1400-3352.23l-12.9-7.63 12.9-7.64z" fill="#5e5e5e"/><path d="M1401-3350.47l-15.87-9.4 15.87-9.38zm-11.94-9.4l9.94 5.9v-11.78z" stroke="#5e5e5e" stroke-width=".05" fill="#5e5e5e"/><use xlink:href="#O" transform="matrix(1,0,0,1,1290.7761832716142,-3300.2880612868453) translate(0.0049999999999954525 17.77777777777778)"/><path d="M377.6-2991.86a8 8 0 0 1 8-8h270.53a8 8 0 0 1 8 8v24a8 8 0 0 1-8 8H385.6a8 8 0 0 1-8-8z" stroke="#000" stroke-opacity="0" stroke-width="2" fill="#ff80df"/><use xlink:href="#P" transform="matrix(1,0,0,1,382.6001617524064,-2994.863672071711) translate(76.93364197530866 19.893055555555552)"/><path d="M377.6-3051.86a8 8 0 0 1 8-8h270.53a8 8 0 0 1 8 8v24a8 8 0 0 1-8 8H385.6a8 8 0 0 1-8-8z" stroke="#000" stroke-opacity="0" stroke-width="2" fill="#1071e5"/><use xlink:href="#Q" transform="matrix(1,0,0,1,382.6001617524064,-3054.863672071711) translate(53.39814814814815 19.893055555555552)"/><use xlink:href="#R" transform="matrix(1,0,0,1,382.6001617524064,-3054.863672071711) translate(170.9820987654321 19.893055555555552)"/><path d="M3.17-3039.86H368.6" stroke="#5e5e5e" stroke-width="2" fill="none"/><path d="M3.2-3038.86H2.17v-2H3.2z" stroke="#5e5e5e" stroke-width=".05" fill="#5e5e5e"/><path d="M375.64-3039.86l-12.9 7.63v-15.27z" stroke="#5e5e5e" stroke-width="2" fill="#5e5e5e"/><path d="M3.17-3039.86h293.05a6 6 0 0 1 6 6v48a6 6 0 0 0 6 6h60.4" stroke="#5e5e5e" stroke-width="2" fill="none"/><path d="M3.2-3038.86H2.17v-2H3.2z" stroke="#5e5e5e" stroke-width=".05" fill="#5e5e5e"/><path d="M375.64-2979.86l-12.9 7.63v-15.27z" stroke="#5e5e5e" stroke-width="2" fill="#5e5e5e"/><path d="M3.17-3039.86h293.05a6 6 0 0 0 6-6v-68a6 6 0 0 1 6-6h60.4" stroke="#5e5e5e" stroke-width="2" fill="none"/><path d="M3.2-3038.86H2.17v-2H3.2z" stroke="#5e5e5e" stroke-width=".05" fill="#5e5e5e"/><path d="M375.64-3119.86l-12.9 7.63v-15.27z" stroke="#5e5e5e" stroke-width="2" fill="#5e5e5e"/><path d="M377.6-3151.86a8 8 0 0 1 8-8h270.53a8 8 0 0 1 8 8v64a8 8 0 0 1-8 8H385.6a8 8 0 0 1-8-8z" stroke="#000" stroke-opacity="0" stroke-width="2" fill="#cbc2a3"/><use xlink:href="#S" transform="matrix(1,0,0,1,382.6001617524064,-3154.863672071711) translate(7.885802469135797 26.830555555555552)"/><use xlink:href="#T" transform="matrix(1,0,0,1,382.6001617524064,-3154.863672071711) translate(80.79907407407408 53.763888888888886)"/><use xlink:href="#U" transform="matrix(1,0,0,1,382.6001617524064,-3154.863672071711) translate(100.12623456790124 53.763888888888886)"/><path d="M1093.18-2835.57a8 8 0 0 1 8-8h270.53a8 8 0 0 1 8 8v24a8 8 0 0 1-8 8H1101.2a8 8 0 0 1-8-8z" stroke="#000" stroke-opacity="0" stroke-width="2" fill="#1071e5"/><use xlink:href="#V" transform="matrix(1,0,0,1,1098.1766478647057,-2838.5660217513528) translate(44.856790123456804 19.893055555555552)"/><path d="M1098.6-2760.2a8 8 0 0 1 8-8h270.53a8 8 0 0 1 8 8v24a8 8 0 0 1-8 8H1106.6a8 8 0 0 1-8-8z" stroke="#000" stroke-opacity="0" stroke-width="2" fill="#1071e5"/><use xlink:href="#W" transform="matrix(1,0,0,1,1103.595659123466,-2763.18920663731) translate(44.856790123456804 19.893055555555552)"/><path d="M1098.6-2684.8a8 8 0 0 1 8-8h270.53a8 8 0 0 1 8 8v24a8 8 0 0 1-8 8H1106.6a8 8 0 0 1-8-8z" stroke="#000" stroke-opacity="0" stroke-width="2" fill="#1071e5"/><use xlink:href="#X" transform="matrix(1,0,0,1,1103.595659123466,-2687.812391523267) translate(44.856790123456804 19.893055555555552)"/><path d="M375.7-3231.8a8 8 0 0 1 8-8H654.2a8 8 0 0 1 8 8v24a8 8 0 0 1-8 8H383.7a8 8 0 0 1-8-8z" stroke="#000" stroke-opacity="0" stroke-width="2" fill="#ff80df"/><use xlink:href="#P" transform="matrix(1,0,0,1,380.6858927345272,-3234.8083320397113) translate(76.93364197530866 19.893055555555552)"/><path d="M753.04-3363.8a8 8 0 0 1 8-8h270.54a8 8 0 0 1 8 8v24a8 8 0 0 1-8 8H761.05a8 8 0 0 1-8-8z" stroke="#000" stroke-opacity="0" stroke-width="2" fill="#fc9432"/><use xlink:href="#Q" transform="matrix(1,0,0,1,758.0446547719596,-3366.8083320397113) translate(53.39814814814815 19.893055555555552)"/><use xlink:href="#R" transform="matrix(1,0,0,1,758.0446547719596,-3366.8083320397113) translate(170.9820987654321 19.893055555555552)"/><path d="M375.7-3535.8a8 8 0 0 1 8-8H654.2a8 8 0 0 1 8 8v64a8 8 0 0 1-8 8H383.7a8 8 0 0 1-8-8z" stroke="#000" stroke-opacity="0" stroke-width="2" fill="#ff80df"/><use xlink:href="#Y" transform="matrix(1,0,0,1,380.6858927345272,-3538.8083320397113) translate(1.9317901234567785 26.830555555555552)"/><use xlink:href="#Z" transform="matrix(1,0,0,1,380.6858927345272,-3538.8083320397113) translate(261.9756172839506 26.830555555555552)"/><use xlink:href="#aa" transform="matrix(1,0,0,1,380.6858927345272,-3538.8083320397113) translate(68.7351851851852 53.763888888888886)"/><use xlink:href="#ab" transform="matrix(1,0,0,1,380.6858927345272,-3538.8083320397113) translate(122.29012345679013 53.763888888888886)"/><use xlink:href="#ac" transform="matrix(1,0,0,1,380.6858927345272,-3538.8083320397113) translate(168.42592592592592 53.763888888888886)"/><path d="M375.7-3429.8a8 8 0 0 1 8-8H654.2a8 8 0 0 1 8 8v24a8 8 0 0 1-8 8H383.7a8 8 0 0 1-8-8z" stroke="#000" stroke-opacity="0" stroke-width="2" fill="#1071e5"/><use xlink:href="#Q" transform="matrix(1,0,0,1,380.6858927345272,-3432.8083320397113) translate(73.47345679012346 19.893055555555552)"/><use xlink:href="#ad" transform="matrix(1,0,0,1,380.6858927345272,-3432.8083320397113) translate(191.05740740740742 19.893055555555552)"/><path d="M375.7-3363.8a8 8 0 0 1 8-8H654.2a8 8 0 0 1 8 8v24a8 8 0 0 1-8 8H383.7a8 8 0 0 1-8-8z" stroke="#000" stroke-opacity="0" stroke-width="2" fill="#1071e5"/><use xlink:href="#Q" transform="matrix(1,0,0,1,380.6858927345272,-3366.8083320397113) translate(73.47345679012346 19.893055555555552)"/><use xlink:href="#ae" transform="matrix(1,0,0,1,380.6858927345272,-3366.8083320397113) translate(191.05740740740742 19.893055555555552)"/><path d="M375.7-3297.8a8 8 0 0 1 8-8H654.2a8 8 0 0 1 8 8v24a8 8 0 0 1-8 8H383.7a8 8 0 0 1-8-8z" stroke="#000" stroke-opacity="0" stroke-width="2" fill="#1071e5"/><use xlink:href="#Q" transform="matrix(1,0,0,1,380.6858927345272,-3300.8083320397113) translate(74.09691358024692 19.893055555555552)"/><use xlink:href="#af" transform="matrix(1,0,0,1,380.6858927345272,-3300.8083320397113) translate(191.68086419753087 19.893055555555552)"/><path d="M3.17-3179.86h293.05a6 6 0 0 0 6-6v-31.9a6 6 0 0 1 6-6h58.47" stroke="#5e5e5e" stroke-width="2" fill="none"/><path d="M3.2-3178.86H2.17v-2H3.2z" stroke="#5e5e5e" stroke-width=".05" fill="#5e5e5e"/><path d="M373.72-3223.75l-12.9 7.63v-15.27z" stroke="#5e5e5e" stroke-width="2" fill="#5e5e5e"/><path d="M3.17-3179.86h293.05a6 6 0 0 0 6-6v-93.95a6 6 0 0 1 6-6h58.47" stroke="#5e5e5e" stroke-width="2" fill="none"/><path d="M3.2-3178.86H2.17v-2H3.2z" stroke="#5e5e5e" stroke-width=".05" fill="#5e5e5e"/><path d="M373.72-3285.8l-12.9 7.63v-15.27z" stroke="#5e5e5e" stroke-width="2" fill="#5e5e5e"/><path d="M3.17-3179.86h293.05a6 6 0 0 0 6-6v-159.95a6 6 0 0 1 6-6h58.47" stroke="#5e5e5e" stroke-width="2" fill="none"/><path d="M3.2-3178.86H2.17v-2H3.2z" stroke="#5e5e5e" stroke-width=".05" fill="#5e5e5e"/><path d="M373.72-3351.8l-12.9 7.63v-15.27z" stroke="#5e5e5e" stroke-width="2" fill="#5e5e5e"/><path d="M3.17-3179.86h293.05a6 6 0 0 0 6-6v-224.7a6 6 0 0 1 6-6h58.47" stroke="#5e5e5e" stroke-width="2" fill="none"/><path d="M3.2-3178.86H2.17v-2H3.2z" stroke="#5e5e5e" stroke-width=".05" fill="#5e5e5e"/><path d="M373.72-3416.56l-12.9 7.64v-15.27z" stroke="#5e5e5e" stroke-width="2" fill="#5e5e5e"/><path d="M3.17-3179.86h293.05a6 6 0 0 0 6-6v-311.95a6 6 0 0 1 6-6h58.47" stroke="#5e5e5e" stroke-width="2" fill="none"/><path d="M3.2-3178.86H2.17v-2H3.2z" stroke="#5e5e5e" stroke-width=".05" fill="#5e5e5e"/><path d="M373.72-3503.8l-12.9 7.63v-15.27z" stroke="#5e5e5e" stroke-width="2" fill="#5e5e5e"/><g><use xlink:href="#A" transform="matrix(1,0,0,1,43.119235373239206,-3210.5303387383774) translate(0.0049999999999954525 17.77777777777778)"/></g><path d="M663.22-3417.8h38.4a6 6 0 0 1 6 6v54a6 6 0 0 0 6 6h30.43" stroke="#5e5e5e" stroke-width="2" fill="none"/><path d="M663.24-3416.8h-1.02v-2h1.02z" stroke="#5e5e5e" stroke-width=".05" fill="#5e5e5e"/><path d="M751.08-3351.8l-12.9 7.63v-15.27z" stroke="#5e5e5e" stroke-width="2" fill="#5e5e5e"/><path d="M663.22-3351.8h80.83" stroke="#5e5e5e" stroke-width="2" fill="none"/><path d="M663.24-3350.8h-1.02v-2h1.02z" stroke="#5e5e5e" stroke-width=".05" fill="#5e5e5e"/><path d="M751.08-3351.8l-12.9 7.63v-15.27z" stroke="#5e5e5e" stroke-width="2" fill="#5e5e5e"/><path d="M663.22-3285.8h38.4a6 6 0 0 0 6-6v-54a6 6 0 0 1 6-6h30.43" stroke="#5e5e5e" stroke-width="2" fill="none"/><path d="M663.24-3284.8h-1.02v-2h1.02z" stroke="#5e5e5e" stroke-width=".05" fill="#5e5e5e"/><path d="M751.08-3351.8l-12.9 7.63v-15.27z" stroke="#5e5e5e" stroke-width="2" fill="#5e5e5e"/><path d="M-328.86-3038.86v113a6 6 0 0 0 6 6h29.5M-328.86-3038.84v-1.02" stroke="#5e5e5e" stroke-width="2" fill="none"/><path d="M-286.32-2919.86l-12.9 7.63v-15.27z" stroke="#5e5e5e" stroke-width="2" fill="#5e5e5e"/><path d="M1059.6-2829.6l.06.82.18.76.3.72.4.67.52.6.6.5.67.42.72.3.76.17.84.06h19.54v2h-19.62l-1.06-.08-1.07-.26-1-.43-.95-.57-.84-.7-.7-.85-.58-.94-.42-1-.26-1.07-.08-1.06v-71.1h2zm176.93-172.56l-.1 1.06-.24 1.07-.43 1-.58.95-.72.84-.84.7-.94.58-1 .42-1.08.26-1.05.08h-164.93l-.83.07-.75.18-.72.3-.67.4-.6.52-.5.6-.42.66-.3.73-.18.76-.06.82v62.86h-2v-62.94l.08-1.05.25-1.06.43-1.02.57-.93.7-.85.85-.7.94-.6 1-.4 1.08-.26 1.06-.1h164.93l.8-.06.77-.18.72-.3.66-.4.6-.52.5-.6.42-.67.3-.72.18-.76.07-.84v-14.96h2z" stroke="#5e5e5e" stroke-width=".05" fill="#5e5e5e"/><path d="M1236.53-3017.17h-2v-1.03h2z" fill="#5e5e5e"/><path d="M1236.55-3017.15h-2.05v-1.07h2.05zm-2-1.02v.97h1.95v-.97z" stroke="#5e5e5e" stroke-width=".05" fill="#5e5e5e"/><path d="M1091.2-2823.57l-12.9 7.64v-15.27z" fill="#5e5e5e"/><path d="M1093.18-2823.57l-15.88 9.4v-18.78zm-13.88 5.9l9.95-5.9-9.95-5.88zM1059.6-2754.23l.06.82.18.76.3.72.4.67.52.6.6.5.67.4.72.3.76.2.84.06h24.96v2h-25.04l-1.06-.07-1.07-.26-1-.42-.95-.57-.84-.72-.7-.83-.58-.94-.42-1.03-.26-1.06-.08-1.05v-146.5h2zm176.93-247.93l-.1 1.06-.24 1.07-.43 1-.58.95-.72.84-.84.7-.94.58-1 .42-1.08.26-1.05.08h-164.93l-.83.07-.75.18-.72.3-.67.4-.6.52-.5.6-.42.66-.3.73-.18.76-.06.82v62.86h-2v-62.94l.08-1.05.25-1.06.43-1.02.57-.93.7-.85.85-.7.94-.6 1-.4 1.08-.26 1.06-.1h164.93l.8-.06.77-.18.72-.3.66-.4.6-.52.5-.6.42-.67.3-.72.18-.76.07-.84v-14.96h2z" stroke="#5e5e5e" stroke-width=".05" fill="#5e5e5e"/><path d="M1236.53-3017.17h-2v-1.03h2z" fill="#5e5e5e"/><path d="M1236.55-3017.15h-2.05v-1.07h2.05zm-2-1.02v.97h1.95v-.97z" stroke="#5e5e5e" stroke-width=".05" fill="#5e5e5e"/><path d="M1096.63-2748.2l-12.9 7.65v-15.27z" fill="#5e5e5e"/><path d="M1098.6-2748.2l-15.88 9.4v-18.78zm-13.88 5.9l9.95-5.9-9.95-5.87zM1059.6-2678.85l.06.82.18.76.3.73.4.66.52.6.6.5.67.42.72.3.76.18.84.07h24.96v2h-25.04l-1.06-.1-1.07-.25-1-.42-.95-.58-.84-.7-.7-.85-.58-.93-.42-1.02-.26-1.07-.08-1.05v-221.87h2zm176.93-323.3l-.1 1.05-.24 1.07-.43 1-.58.95-.72.84-.84.7-.94.58-1 .42-1.08.26-1.05.08h-164.93l-.83.07-.75.18-.72.3-.67.4-.6.52-.5.6-.42.66-.3.73-.18.76-.06.82v62.86h-2v-62.94l.08-1.05.25-1.06.43-1.02.57-.93.7-.85.85-.7.94-.6 1-.4 1.08-.26 1.06-.1h164.93l.8-.06.77-.18.72-.3.66-.4.6-.52.5-.6.42-.67.3-.72.18-.76.07-.84v-14.96h2z" stroke="#5e5e5e" stroke-width=".05" fill="#5e5e5e"/><path d="M1236.53-3017.17h-2v-1.03h2z" fill="#5e5e5e"/><path d="M1236.55-3017.15h-2.05v-1.07h2.05zm-2-1.02v.97h1.95v-.97z" stroke="#5e5e5e" stroke-width=".05" fill="#5e5e5e"/><path d="M1096.63-2672.8l-12.9 7.62v-15.27z" fill="#5e5e5e"/><path d="M1098.6-2672.8l-15.88 9.38v-18.78zm-13.88 5.87l9.95-5.88-9.95-5.9z" stroke="#5e5e5e" stroke-width=".05" fill="#5e5e5e"/><g><use xlink:href="#O" transform="matrix(1,0,0,1,924.2438572716144,-2927.302705776124) translate(0.0049999999999954525 17.77777777777778)"/></g><defs><path fill="#333" d="M185-189c-5-48-123-54-124 2 14 75 158 14 163 119 3 78-121 87-175 55-17-10-28-26-33-46l33-7c5 56 141 63 141-1 0-78-155-14-162-118-5-82 145-84 179-34 5 7 8 16 11 25" id="ag"/><path fill="#333" d="M59-47c-2 24 18 29 38 22v24C64 9 27 4 27-40v-127H5v-23h24l9-43h21v43h35v23H59v120" id="ah"/><path fill="#333" d="M114-163C36-179 61-72 57 0H25l-1-190h30c1 12-1 29 2 39 6-27 23-49 58-41v29" id="ai"/><path fill="#333" d="M84 4C-5 8 30-112 23-190h32v120c0 31 7 50 39 49 72-2 45-101 50-169h31l1 190h-30c-1-10 1-25-2-33-11 22-28 36-60 37" id="aj"/><path fill="#333" d="M96-169c-40 0-48 33-48 73s9 75 48 75c24 0 41-14 43-38l32 2c-6 37-31 61-74 61-59 0-76-41-82-99-10-93 101-131 147-64 4 7 5 14 7 22l-32 3c-4-21-16-35-41-35" id="ak"/><path fill="#333" d="M100-194c63 0 86 42 84 106H49c0 40 14 67 53 68 26 1 43-12 49-29l28 8c-11 28-37 45-77 45C44 4 14-33 15-96c1-61 26-98 85-98zm52 81c6-60-76-77-97-28-3 7-6 17-6 28h103" id="al"/><g id="a"><use transform="matrix(0.12345679012345678,0,0,0.12345679012345678,0,0)" xlink:href="#ag"/><use transform="matrix(0.12345679012345678,0,0,0.12345679012345678,29.629629629629626,0)" xlink:href="#ah"/><use transform="matrix(0.12345679012345678,0,0,0.12345679012345678,41.9753086419753,0)" xlink:href="#ai"/><use transform="matrix(0.12345679012345678,0,0,0.12345679012345678,56.66666666666666,0)" xlink:href="#aj"/><use transform="matrix(0.12345679012345678,0,0,0.12345679012345678,81.35802469135801,0)" xlink:href="#ak"/><use transform="matrix(0.12345679012345678,0,0,0.12345679012345678,103.58024691358023,0)" xlink:href="#ah"/><use transform="matrix(0.12345679012345678,0,0,0.12345679012345678,115.92592592592591,0)" xlink:href="#aj"/><use transform="matrix(0.12345679012345678,0,0,0.12345679012345678,140.61728395061726,0)" xlink:href="#ai"/><use transform="matrix(0.12345679012345678,0,0,0.12345679012345678,155.30864197530863,0)" xlink:href="#al"/></g><path fill="#333" d="M85-194c31 0 48 13 60 33l-1-100h32l1 261h-30c-2-10 0-23-3-31C134-8 116 4 85 4 32 4 16-35 15-94c0-66 23-100 70-100zm9 24c-40 0-46 34-46 75 0 40 6 74 45 74 42 0 51-32 51-76 0-42-9-74-50-73" id="am"/><path fill="#333" d="M135-143c-3-34-86-38-87 0 15 53 115 12 119 90S17 21 10-45l28-5c4 36 97 45 98 0-10-56-113-15-118-90-4-57 82-63 122-42 12 7 21 19 24 35" id="an"/><g id="b"><use transform="matrix(0.12345679012345678,0,0,0.12345679012345678,0,0)" xlink:href="#am"/><use transform="matrix(0.12345679012345678,0,0,0.12345679012345678,24.691358024691358,0)" xlink:href="#al"/><use transform="matrix(0.12345679012345678,0,0,0.12345679012345678,49.382716049382715,0)" xlink:href="#an"/></g><path fill="#333" d="M24-231v-30h32v30H24zM24 0v-190h32V0H24" id="ao"/><path fill="#333" d="M100-194c62-1 85 37 85 99 1 63-27 99-86 99S16-35 15-95c0-66 28-99 85-99zM99-20c44 1 53-31 53-75 0-43-8-75-51-75s-53 32-53 75 10 74 51 75" id="ap"/><path fill="#333" d="M117-194c89-4 53 116 60 194h-32v-121c0-31-8-49-39-48C34-167 62-67 57 0H25l-1-190h30c1 10-1 24 2 32 11-22 29-35 61-36" id="aq"/><path fill="#333" d="M141-36C126-15 110 5 73 4 37 3 15-17 15-53c-1-64 63-63 125-63 3-35-9-54-41-54-24 1-41 7-42 31l-33-3c5-37 33-52 76-52 45 0 72 20 72 64v82c-1 20 7 32 28 27v20c-31 9-61-2-59-35zM48-53c0 20 12 33 32 33 41-3 63-29 60-74-43 2-92-5-92 41" id="ar"/><g id="c"><use transform="matrix(0.12345679012345678,0,0,0.12345679012345678,0,0)" xlink:href="#am"/><use transform="matrix(0.12345679012345678,0,0,0.12345679012345678,24.691358024691358,0)" xlink:href="#ao"/><use transform="matrix(0.12345679012345678,0,0,0.12345679012345678,34.44444444444444,0)" xlink:href="#ak"/><use transform="matrix(0.12345679012345678,0,0,0.12345679012345678,56.666666666666664,0)" xlink:href="#ah"/><use transform="matrix(0.12345679012345678,0,0,0.12345679012345678,69.01234567901234,0)" xlink:href="#ao"/><use transform="matrix(0.12345679012345678,0,0,0.12345679012345678,78.76543209876543,0)" xlink:href="#ap"/><use transform="matrix(0.12345679012345678,0,0,0.12345679012345678,103.45679012345678,0)" xlink:href="#aq"/><use transform="matrix(0.12345679012345678,0,0,0.12345679012345678,128.14814814814815,0)" xlink:href="#aq"/><use transform="matrix(0.12345679012345678,0,0,0.12345679012345678,152.83950617283952,0)" xlink:href="#ar"/><use transform="matrix(0.12345679012345678,0,0,0.12345679012345678,177.5308641975309,0)" xlink:href="#ao"/><use transform="matrix(0.12345679012345678,0,0,0.12345679012345678,187.28395061728398,0)" xlink:href="#ai"/><use transform="matrix(0.12345679012345678,0,0,0.12345679012345678,201.97530864197535,0)" xlink:href="#al"/><use transform="matrix(0.12345679012345678,0,0,0.12345679012345678,226.6666666666667,0)" xlink:href="#an"/></g><g id="d"><use transform="matrix(0.12345679012345678,0,0,0.12345679012345678,0,0)" xlink:href="#am"/><use transform="matrix(0.12345679012345678,0,0,0.12345679012345678,24.691358024691358,0)" xlink:href="#al"/></g><path fill="#333" d="M100-194c63 0 86 42 84 106H49c0 40 14 67 53 68 26 1 43-12 49-29l28 8c-11 28-37 45-77 45C44 4 14-33 15-96c1-61 26-98 85-98zm52 81c6-60-76-77-97-28-3 7-6 17-6 28h103zm-74-98c8-23 27-35 38-54h36v5l-58 49H78" id="as"/><path fill="#333" d="M24 0v-261h32V0H24" id="at"/><g id="e"><use transform="matrix(0.12345679012345678,0,0,0.12345679012345678,0,0)" xlink:href="#ai"/><use transform="matrix(0.12345679012345678,0,0,0.12345679012345678,14.691358024691358,0)" xlink:href="#as"/><use transform="matrix(0.12345679012345678,0,0,0.12345679012345678,39.382716049382715,0)" xlink:href="#an"/><use transform="matrix(0.12345679012345678,0,0,0.12345679012345678,61.60493827160494,0)" xlink:href="#aj"/><use transform="matrix(0.12345679012345678,0,0,0.12345679012345678,86.29629629629629,0)" xlink:href="#at"/><use transform="matrix(0.12345679012345678,0,0,0.12345679012345678,96.04938271604938,0)" xlink:href="#ah"/><use transform="matrix(0.12345679012345678,0,0,0.12345679012345678,108.39506172839506,0)" xlink:href="#ar"/><use transform="matrix(0.12345679012345678,0,0,0.12345679012345678,133.08641975308643,0)" xlink:href="#ah"/><use transform="matrix(0.12345679012345678,0,0,0.12345679012345678,145.4320987654321,0)" xlink:href="#an"/></g><filter id="f" filterUnits="objectBoundingBox" x="-.02" y="0" width="1.03" height="1.02"><feOffset result="offOut" in="SourceAlpha" dy="6"/><feGaussianBlur result="blurOut" in="offOut" stdDeviation="5"/><feColorMatrix result="colorOut" in="blurOut" values="0 0 0 0 0 0 0 0 0 0 0 0 0 0 0 0 0 0 0.5019607843137255 0"/><feBlend in="SourceGraphic" in2="colorOut"/></filter><path fill="#333" d="M24 0v-248h52v208h133V0H24" id="au"/><path fill="#333" d="M185-48c-13 30-37 53-82 52C43 2 14-33 14-96s30-98 90-98c62 0 83 45 84 108H66c0 31 8 55 39 56 18 0 30-7 34-22zm-45-69c5-46-57-63-70-21-2 6-4 13-4 21h74zm-67-91v-5l45-51h45v8l-60 48H73" id="av"/><path fill="#333" d="M195-6C206 82 75 100 31 46c-4-6-6-13-8-21l49-6c3 16 16 24 34 25 40 0 42-37 40-79-11 22-30 35-61 35-53 0-70-43-70-97 0-56 18-96 73-97 30 0 46 14 59 34l2-30h47zm-90-29c32 0 41-27 41-63 0-35-9-62-40-62-32 0-39 29-40 63 0 36 9 62 39 62" id="aw"/><path fill="#333" d="M185-48c-13 30-37 53-82 52C43 2 14-33 14-96s30-98 90-98c62 0 83 45 84 108H66c0 31 8 55 39 56 18 0 30-7 34-22zm-45-69c5-46-57-63-70-21-2 6-4 13-4 21h74" id="ax"/><path fill="#333" d="M135-194c87-1 58 113 63 194h-50c-7-57 23-157-34-157-59 0-34 97-39 157H25l-1-190h47c2 12-1 28 3 38 12-26 28-41 61-42" id="ay"/><path fill="#333" d="M88-194c31-1 46 15 58 34l-1-101h50l1 261h-48c-2-10 0-23-3-31C134-8 116 4 84 4 32 4 16-41 15-95c0-56 19-97 73-99zm17 164c33 0 40-30 41-66 1-37-9-64-41-64s-38 30-39 65c0 43 13 65 39 65" id="az"/><g id="g"><use transform="matrix(0.09259259259259257,0,0,0.09259259259259257,0,0)" xlink:href="#au"/><use transform="matrix(0.09259259259259257,0,0,0.09259259259259257,20.277777777777775,0)" xlink:href="#av"/><use transform="matrix(0.09259259259259257,0,0,0.09259259259259257,38.79629629629629,0)" xlink:href="#aw"/><use transform="matrix(0.09259259259259257,0,0,0.09259259259259257,59.07407407407406,0)" xlink:href="#ax"/><use transform="matrix(0.09259259259259257,0,0,0.09259259259259257,77.59259259259258,0)" xlink:href="#ay"/><use transform="matrix(0.09259259259259257,0,0,0.09259259259259257,97.87037037037035,0)" xlink:href="#az"/><use transform="matrix(0.09259259259259257,0,0,0.09259259259259257,118.14814814814812,0)" xlink:href="#ax"/></g><path fill="#333" d="M35-132v-50h50v50H35zM35 0v-49h50V0H35" id="aA"/><use transform="matrix(0.09259259259259257,0,0,0.09259259259259257,0,0)" xlink:href="#aA" id="h"/><path fill="#fff" d="M161-211c-63 0-91 46-91 110 0 39 17 65 58 64 38-1 60-20 74-45l40 20C220-23 184 0 125 4 9 13-10-144 57-208c33-50 166-62 196-1 4 8 9 18 11 27l-48 12c-6-24-25-41-55-41" id="aB"/><path fill="#fff" d="M166-52c-4 17 5 29 24 23l-3 27c-30 11-74 1-67-34C105-15 91 4 56 4 23 4 3-15 2-49c0-64 63-67 128-67 10-22 3-53-29-45-13 3-22 10-25 24l-46-5c5-64 156-77 153 0-1 33-11 60-17 90zM97-88c-44-9-64 57-19 57 31 0 42-28 47-57H97" id="aC"/><path fill="#fff" d="M144-137c-1-29-70-35-71-2 16 41 103 10 103 80C176 9 79 16 32-9 18-17 9-31 4-48l44-6c3 32 80 36 82 1-15-42-103-11-103-82 0-77 157-79 161-8" id="aD"/><g id="i"><use transform="matrix(0.06234567901234567,0,0,0.06234567901234567,0,0)" xlink:href="#aB"/><use transform="matrix(0.06234567901234567,0,0,0.06234567901234567,16.147530864197527,0)" xlink:href="#aC"/><use transform="matrix(0.06234567901234567,0,0,0.06234567901234567,28.61666666666666,0)" xlink:href="#aD"/></g><path fill="#fff" d="M132-28C118-9 101 4 69 4 30 4 10-23 10-62c0-70 24-129 92-132 31-1 47 14 56 35l19-102h49L179 0h-49zM62-69c0 22 7 39 29 39 45-2 54-45 57-90 2-27-10-40-33-40-44 0-53 48-53 91" id="aE"/><path fill="#fff" d="M114-194c63-2 87 48 72 110H63c-3 28 1 55 31 54 21-1 32-13 37-29l44 13C160-14 137 4 91 4 41 4 11-22 11-73c0-71 33-119 103-121zm30 77c14-47-50-61-67-22-3 6-6 13-8 22h75" id="aF"/><g id="j"><use transform="matrix(0.06234567901234567,0,0,0.06234567901234567,0,0)" xlink:href="#aE"/><use transform="matrix(0.06234567901234567,0,0,0.06234567901234567,13.653703703703702,0)" xlink:href="#aF"/></g><path fill="#fff" d="M50-224l7-37h49l-7 37H50zM6 0l37-190h49L55 0H6" id="aG"/><path fill="#fff" d="M255-194c90 0 29 129 24 194h-49l25-136c-7-39-53-14-60 9-12 38-18 85-28 127h-49l25-136c2-29-39-23-50-7C69-108 68-47 56 0H6l36-190h48c-1 10-6 24-4 32 12-20 27-36 57-36s46 15 50 41c14-21 29-41 62-41" id="aH"/><path fill="#fff" d="M69 3c-96 0-34-126-28-193h49L65-57c6 42 62 18 71-6 14-38 17-86 28-127h50L178 0h-47c0-11 4-26 3-33-14 20-30 37-65 36" id="aI"/><path fill="#fff" d="M6 0l51-261h49L55 0H6" id="aJ"/><path fill="#fff" d="M72-63c-8 23 5 39 32 30L98-1C54 14 12-6 23-64l18-93H15l7-33h28l24-45h31l-8 45h35l-6 33H90" id="aK"/><path fill="#fff" d="M124-194c51 0 84 22 84 74C207-44 167 4 94 4 43 4 11-23 11-74c0-74 41-120 113-120zM99-30c46 0 58-42 58-86 0-27-11-44-37-44-44 0-55 40-57 84-1 27 10 45 36 46" id="aL"/><path fill="#fff" d="M151-194c95 0 34 128 28 194h-49l25-134c0-29-45-25-59-9C67-111 69-48 56 0H6l36-190h47l-4 32c15-20 33-36 66-36" id="aM"/><g id="k"><use transform="matrix(0.06234567901234567,0,0,0.06234567901234567,0,0)" xlink:href="#aD"/><use transform="matrix(0.06234567901234567,0,0,0.06234567901234567,12.469135802469133,0)" xlink:href="#aG"/><use transform="matrix(0.06234567901234567,0,0,0.06234567901234567,18.7037037037037,0)" xlink:href="#aH"/><use transform="matrix(0.06234567901234567,0,0,0.06234567901234567,38.654320987654316,0)" xlink:href="#aI"/><use transform="matrix(0.06234567901234567,0,0,0.06234567901234567,52.308024691358014,0)" xlink:href="#aJ"/><use transform="matrix(0.06234567901234567,0,0,0.06234567901234567,58.542592592592584,0)" xlink:href="#aC"/><use transform="matrix(0.06234567901234567,0,0,0.06234567901234567,71.01172839506171,0)" xlink:href="#aK"/><use transform="matrix(0.06234567901234567,0,0,0.06234567901234567,78.43086419753084,0)" xlink:href="#aG"/><use transform="matrix(0.06234567901234567,0,0,0.06234567901234567,84.66543209876541,0)" xlink:href="#aL"/><use transform="matrix(0.06234567901234567,0,0,0.06234567901234567,98.3191358024691,0)" xlink:href="#aM"/></g><path fill="#fff" d="M130 0H70L30-248h54l24 206c31-72 69-137 103-206h54" id="aN"/><path fill="#fff" d="M84-151c13-25 34-51 72-40l-8 41C67-170 71-64 56 0H6l36-190h47" id="aO"/><path fill="#fff" d="M87-160c15-17 32-34 63-34 99 1 59 172-1 192-36 12-78 0-87-29L54 0H6l52-261h49zm71 38c0-24-5-37-29-37-46 0-55 46-57 89-1 25 12 40 35 40 44 0 51-50 51-92" id="aP"/><g id="l"><use transform="matrix(0.06234567901234567,0,0,0.06234567901234567,0,0)" xlink:href="#aN"/><use transform="matrix(0.06234567901234567,0,0,0.06234567901234567,14.152469135802466,0)" xlink:href="#aC"/><use transform="matrix(0.06234567901234567,0,0,0.06234567901234567,26.6216049382716,0)" xlink:href="#aO"/><use transform="matrix(0.06234567901234567,0,0,0.06234567901234567,35.349999999999994,0)" xlink:href="#aG"/><use transform="matrix(0.06234567901234567,0,0,0.06234567901234567,41.584567901234564,0)" xlink:href="#aC"/><use transform="matrix(0.06234567901234567,0,0,0.06234567901234567,54.0537037037037,0)" xlink:href="#aP"/><use transform="matrix(0.06234567901234567,0,0,0.06234567901234567,67.7074074074074,0)" xlink:href="#aJ"/><use transform="matrix(0.06234567901234567,0,0,0.06234567901234567,73.94197530864197,0)" xlink:href="#aF"/><use transform="matrix(0.06234567901234567,0,0,0.06234567901234567,86.4111111111111,0)" xlink:href="#aD"/></g><path fill="#fff" d="M250-142C247-53 197 0 108 0H6l48-248c105-5 200 3 196 106zm-49 2c1-57-42-72-103-68L66-40c84 6 135-22 135-100" id="aQ"/><path fill="#fff" d="M67-101c-8 29-7 73 27 71 23-2 32-16 39-37l48 9C170-19 141 4 91 4 36 4 7-28 12-86c6-75 61-124 140-103 26 7 40 29 43 59l-50 4c-1-20-9-34-29-34-35 0-41 29-49 59" id="aR"/><g id="m"><use transform="matrix(0.06666679012345679,0,0,0.06666679012345679,0,0)" xlink:href="#aQ"/><use transform="matrix(0.06666679012345679,0,0,0.06666679012345679,17.26669864197531,0)" xlink:href="#aG"/><use transform="matrix(0.06666679012345679,0,0,0.06666679012345679,23.93337765432099,0)" xlink:href="#aR"/><use transform="matrix(0.06666679012345679,0,0,0.06666679012345679,37.26673567901234,0)" xlink:href="#aK"/><use transform="matrix(0.06666679012345679,0,0,0.06666679012345679,45.200083703703704,0)" xlink:href="#aG"/><use transform="matrix(0.06666679012345679,0,0,0.06666679012345679,51.866762716049394,0)" xlink:href="#aL"/><use transform="matrix(0.06666679012345679,0,0,0.06666679012345679,66.46678975308643,0)" xlink:href="#aM"/><use transform="matrix(0.06666679012345679,0,0,0.06666679012345679,81.06681679012347,0)" xlink:href="#aM"/><use transform="matrix(0.06666679012345679,0,0,0.06666679012345679,95.6668438271605,0)" xlink:href="#aC"/><use transform="matrix(0.06666679012345679,0,0,0.06666679012345679,109.00020185185187,0)" xlink:href="#aG"/><use transform="matrix(0.06666679012345679,0,0,0.06666679012345679,115.66688086419755,0)" xlink:href="#aO"/><use transform="matrix(0.06666679012345679,0,0,0.06666679012345679,125.0002314814815,0)" xlink:href="#aF"/></g><g id="n"><use transform="matrix(0.06666679012345679,0,0,0.06666679012345679,0,0)" xlink:href="#aE"/><use transform="matrix(0.06666679012345679,0,0,0.06666679012345679,14.600027037037037,0)" xlink:href="#aF"/></g><path fill="#fff" d="M114-194c63-2 87 48 72 110H63c-3 28 1 55 31 54 21-1 32-13 37-29l44 13C160-14 137 4 91 4 41 4 11-22 11-73c0-71 33-119 103-121zm30 77c14-47-50-61-67-22-3 6-6 13-8 22h75zm-52-91c10-23 30-36 44-56h49l-1 8-67 48H92" id="aS"/><g id="o"><use transform="matrix(0.06666679012345679,0,0,0.06666679012345679,0,0)" xlink:href="#aO"/><use transform="matrix(0.06666679012345679,0,0,0.06666679012345679,9.333350617283951,0)" xlink:href="#aS"/><use transform="matrix(0.06666679012345679,0,0,0.06666679012345679,22.666708641975312,0)" xlink:href="#aD"/><use transform="matrix(0.06666679012345679,0,0,0.06666679012345679,36.00006666666667,0)" xlink:href="#aI"/><use transform="matrix(0.06666679012345679,0,0,0.06666679012345679,50.600093703703706,0)" xlink:href="#aJ"/><use transform="matrix(0.06666679012345679,0,0,0.06666679012345679,57.26677271604939,0)" xlink:href="#aK"/><use transform="matrix(0.06666679012345679,0,0,0.06666679012345679,65.20012074074074,0)" xlink:href="#aC"/><use transform="matrix(0.06666679012345679,0,0,0.06666679012345679,78.53347876543211,0)" xlink:href="#aK"/><use transform="matrix(0.06666679012345679,0,0,0.06666679012345679,86.46682679012346,0)" xlink:href="#aD"/></g><path fill="#fff" d="M178-136c88 48 22 151-73 140C49-3 12-15 4-64l51-9c1 50 111 53 115 3-16-63-132-20-133-112 0-93 190-91 199-10l-50 12c-4-41-93-50-97-4 7 38 59 32 89 48" id="aT"/><g id="p"><use transform="matrix(0.06234567901234567,0,0,0.06234567901234567,0,0)" xlink:href="#aT"/><use transform="matrix(0.06234567901234567,0,0,0.06234567901234567,14.96296296296296,0)" xlink:href="#aG"/><use transform="matrix(0.06234567901234567,0,0,0.06234567901234567,21.197530864197525,0)" xlink:href="#aH"/><use transform="matrix(0.06234567901234567,0,0,0.06234567901234567,41.14814814814814,0)" xlink:href="#aI"/><use transform="matrix(0.06234567901234567,0,0,0.06234567901234567,54.801851851851836,0)" xlink:href="#aJ"/><use transform="matrix(0.06234567901234567,0,0,0.06234567901234567,61.036419753086406,0)" xlink:href="#aC"/><use transform="matrix(0.06234567901234567,0,0,0.06234567901234567,73.50555555555553,0)" xlink:href="#aK"/><use transform="matrix(0.06234567901234567,0,0,0.06234567901234567,80.92469135802466,0)" xlink:href="#aG"/><use transform="matrix(0.06234567901234567,0,0,0.06234567901234567,87.15925925925923,0)" xlink:href="#aL"/><use transform="matrix(0.06234567901234567,0,0,0.06234567901234567,100.81296296296293,0)" xlink:href="#aM"/><use transform="matrix(0.06234567901234567,0,0,0.06234567901234567,114.46666666666663,0)" xlink:href="#aD"/></g><g id="q"><use transform="matrix(0.06234567901234567,0,0,0.06234567901234567,0,0)" xlink:href="#aB"/><use transform="matrix(0.06234567901234567,0,0,0.06234567901234567,16.147530864197527,0)" xlink:href="#aC"/><use transform="matrix(0.06234567901234567,0,0,0.06234567901234567,28.61666666666666,0)" xlink:href="#aJ"/><use transform="matrix(0.06234567901234567,0,0,0.06234567901234567,34.85123456790123,0)" xlink:href="#aR"/><use transform="matrix(0.06234567901234567,0,0,0.06234567901234567,47.32037037037036,0)" xlink:href="#aI"/><use transform="matrix(0.06234567901234567,0,0,0.06234567901234567,60.97407407407407,0)" xlink:href="#aJ"/><use transform="matrix(0.06234567901234567,0,0,0.06234567901234567,67.20864197530864,0)" xlink:href="#aS"/></g><path fill="#fff" d="M212 0l43-212L151 0h-37L90-212C82-137 65-70 52 0H6l48-248h70l20 187 93-187h69L258 0h-46" id="aU"/><g id="r"><use transform="matrix(0.06234567901234567,0,0,0.06234567901234567,0,0)" xlink:href="#aU"/><use transform="matrix(0.06234567901234567,0,0,0.06234567901234567,18.641358024691353,0)" xlink:href="#aI"/><use transform="matrix(0.06234567901234567,0,0,0.06234567901234567,32.295061728395055,0)" xlink:href="#aD"/><use transform="matrix(0.06234567901234567,0,0,0.06234567901234567,44.76419753086419,0)" xlink:href="#aR"/><use transform="matrix(0.06234567901234567,0,0,0.06234567901234567,57.23333333333332,0)" xlink:href="#aJ"/><use transform="matrix(0.06234567901234567,0,0,0.06234567901234567,63.46790123456789,0)" xlink:href="#aF"/></g><g id="s"><use transform="matrix(0.06234567901234567,0,0,0.06234567901234567,0,0)" xlink:href="#aB"/><use transform="matrix(0.06234567901234567,0,0,0.06234567901234567,16.147530864197527,0)" xlink:href="#aL"/><use transform="matrix(0.06234567901234567,0,0,0.06234567901234567,29.80123456790123,0)" xlink:href="#aM"/><use transform="matrix(0.06234567901234567,0,0,0.06234567901234567,43.45493827160493,0)" xlink:href="#aD"/><use transform="matrix(0.06234567901234567,0,0,0.06234567901234567,55.92407407407406,0)" xlink:href="#aK"/><use transform="matrix(0.06234567901234567,0,0,0.06234567901234567,63.3432098765432,0)" xlink:href="#aC"/><use transform="matrix(0.06234567901234567,0,0,0.06234567901234567,75.81234567901234,0)" xlink:href="#aM"/><use transform="matrix(0.06234567901234567,0,0,0.06234567901234567,89.46604938271604,0)" xlink:href="#aK"/><use transform="matrix(0.06234567901234567,0,0,0.06234567901234567,96.88518518518516,0)" xlink:href="#aF"/><use transform="matrix(0.06234567901234567,0,0,0.06234567901234567,109.35432098765429,0)" xlink:href="#aD"/></g><g id="t"><use transform="matrix(0.06234567901234567,0,0,0.06234567901234567,0,0)" xlink:href="#aN"/><use transform="matrix(0.06234567901234567,0,0,0.06234567901234567,14.152469135802466,0)" xlink:href="#aC"/><use transform="matrix(0.06234567901234567,0,0,0.06234567901234567,26.6216049382716,0)" xlink:href="#aO"/><use transform="matrix(0.06234567901234567,0,0,0.06234567901234567,35.349999999999994,0)" xlink:href="#aG"/><use transform="matrix(0.06234567901234567,0,0,0.06234567901234567,41.584567901234564,0)" xlink:href="#aC"/><use transform="matrix(0.06234567901234567,0,0,0.06234567901234567,54.0537037037037,0)" xlink:href="#aP"/><use transform="matrix(0.06234567901234567,0,0,0.06234567901234567,67.7074074074074,0)" xlink:href="#aJ"/><use transform="matrix(0.06234567901234567,0,0,0.06234567901234567,73.94197530864197,0)" xlink:href="#aF"/></g><g id="u"><use transform="matrix(0.06234567901234567,0,0,0.06234567901234567,0,0)" xlink:href="#aN"/><use transform="matrix(0.06234567901234567,0,0,0.06234567901234567,14.152469135802466,0)" xlink:href="#aC"/><use transform="matrix(0.06234567901234567,0,0,0.06234567901234567,26.6216049382716,0)" xlink:href="#aJ"/><use transform="matrix(0.06234567901234567,0,0,0.06234567901234567,32.856172839506165,0)" xlink:href="#aF"/><use transform="matrix(0.06234567901234567,0,0,0.06234567901234567,45.3253086419753,0)" xlink:href="#aI"/><use transform="matrix(0.06234567901234567,0,0,0.06234567901234567,58.979012345678996,0)" xlink:href="#aO"/></g><path fill="#fff" d="M156-122c2-23-7-37-28-37-47 0-58 44-58 89 0 24 12 40 36 40 43 0 47-49 50-92zM-8 75l50-265h48c0 10-3 24-3 30 22-50 127-45 121 29-6 73-21 135-92 135-29 0-46-14-55-35L41 75H-8" id="aV"/><g id="v"><use transform="matrix(0.06234567901234567,0,0,0.06234567901234567,0,0)" xlink:href="#aV"/><use transform="matrix(0.06234567901234567,0,0,0.06234567901234567,13.653703703703702,0)" xlink:href="#aC"/><use transform="matrix(0.06234567901234567,0,0,0.06234567901234567,26.122839506172834,0)" xlink:href="#aO"/></g><path fill="#fff" d="M93-157L62 0H13l31-157H16l6-33h28c2-54 40-81 100-68l-6 32c-29-8-44 9-45 36h38l-7 33H93" id="aW"/><g id="w"><use transform="matrix(0.06234567901234567,0,0,0.06234567901234567,0,0)" xlink:href="#aE"/><use transform="matrix(0.06234567901234567,0,0,0.06234567901234567,13.653703703703702,0)" xlink:href="#aS"/><use transform="matrix(0.06234567901234567,0,0,0.06234567901234567,26.122839506172834,0)" xlink:href="#aW"/><use transform="matrix(0.06234567901234567,0,0,0.06234567901234567,33.541975308641966,0)" xlink:href="#aC"/><use transform="matrix(0.06234567901234567,0,0,0.06234567901234567,46.0111111111111,0)" xlink:href="#aI"/><use transform="matrix(0.06234567901234567,0,0,0.06234567901234567,59.664814814814804,0)" xlink:href="#aK"/></g><path fill="#fff" d="M6 0l48-248h52L58 0H6" id="aX"/><g id="x"><use transform="matrix(0.06234567901234567,0,0,0.06234567901234567,0,0)" xlink:href="#aX"/><use transform="matrix(0.06234567901234567,0,0,0.06234567901234567,6.234567901234566,0)" xlink:href="#aM"/><use transform="matrix(0.06234567901234567,0,0,0.06234567901234567,19.888271604938268,0)" xlink:href="#aW"/><use transform="matrix(0.06234567901234567,0,0,0.06234567901234567,27.307407407407403,0)" xlink:href="#aL"/><use transform="matrix(0.06234567901234567,0,0,0.06234567901234567,40.96111111111111,0)" xlink:href="#aO"/><use transform="matrix(0.06234567901234567,0,0,0.06234567901234567,49.6895061728395,0)" xlink:href="#aH"/><use transform="matrix(0.06234567901234567,0,0,0.06234567901234567,69.64012345679012,0)" xlink:href="#aC"/><use transform="matrix(0.06234567901234567,0,0,0.06234567901234567,82.10925925925926,0)" xlink:href="#aK"/><use transform="matrix(0.06234567901234567,0,0,0.06234567901234567,89.52839506172839,0)" xlink:href="#aG"/><use transform="matrix(0.06234567901234567,0,0,0.06234567901234567,95.76296296296296,0)" xlink:href="#aL"/><use transform="matrix(0.06234567901234567,0,0,0.06234567901234567,109.41666666666666,0)" xlink:href="#aM"/></g><g id="y"><use transform="matrix(0.06234567901234567,0,0,0.06234567901234567,0,0)" xlink:href="#aD"/><use transform="matrix(0.06234567901234567,0,0,0.06234567901234567,12.469135802469133,0)" xlink:href="#aI"/><use transform="matrix(0.06234567901234567,0,0,0.06234567901234567,26.122839506172834,0)" xlink:href="#aV"/><use transform="matrix(0.06234567901234567,0,0,0.06234567901234567,39.776543209876536,0)" xlink:href="#aV"/><use transform="matrix(0.06234567901234567,0,0,0.06234567901234567,53.430246913580234,0)" xlink:href="#aJ"/><use transform="matrix(0.06234567901234567,0,0,0.06234567901234567,59.664814814814804,0)" xlink:href="#aS"/><use transform="matrix(0.06234567901234567,0,0,0.06234567901234567,72.13395061728394,0)" xlink:href="#aH"/><use transform="matrix(0.06234567901234567,0,0,0.06234567901234567,92.08456790123455,0)" xlink:href="#aF"/><use transform="matrix(0.06234567901234567,0,0,0.06234567901234567,104.55370370370369,0)" xlink:href="#aM"/><use transform="matrix(0.06234567901234567,0,0,0.06234567901234567,118.20740740740739,0)" xlink:href="#aK"/><use transform="matrix(0.06234567901234567,0,0,0.06234567901234567,125.62654320987652,0)" xlink:href="#aC"/><use transform="matrix(0.06234567901234567,0,0,0.06234567901234567,138.09567901234564,0)" xlink:href="#aG"/><use transform="matrix(0.06234567901234567,0,0,0.06234567901234567,144.3302469135802,0)" xlink:href="#aO"/><use transform="matrix(0.06234567901234567,0,0,0.06234567901234567,153.0586419753086,0)" xlink:href="#aF"/><use transform="matrix(0.06234567901234567,0,0,0.06234567901234567,165.52777777777774,0)" xlink:href="#aD"/></g><path fill="#fff" d="M-21 44V30h207v14H-21" id="aY"/><path fill="#fff" d="M6 0l7-41h62l31-161-67 37 8-42 70-41h48L124-41h57l-8 41H6" id="aZ"/><g id="z"><use transform="matrix(0.06234567901234567,0,0,0.06234567901234567,0,0)" xlink:href="#aN"/><use transform="matrix(0.06234567901234567,0,0,0.06234567901234567,14.152469135802466,0)" xlink:href="#aC"/><use transform="matrix(0.06234567901234567,0,0,0.06234567901234567,26.6216049382716,0)" xlink:href="#aO"/><use transform="matrix(0.06234567901234567,0,0,0.06234567901234567,35.349999999999994,0)" xlink:href="#aG"/><use transform="matrix(0.06234567901234567,0,0,0.06234567901234567,41.584567901234564,0)" xlink:href="#aC"/><use transform="matrix(0.06234567901234567,0,0,0.06234567901234567,54.0537037037037,0)" xlink:href="#aP"/><use transform="matrix(0.06234567901234567,0,0,0.06234567901234567,67.7074074074074,0)" xlink:href="#aJ"/><use transform="matrix(0.06234567901234567,0,0,0.06234567901234567,73.94197530864197,0)" xlink:href="#aF"/><use transform="matrix(0.06234567901234567,0,0,0.06234567901234567,86.4111111111111,0)" xlink:href="#aY"/><use transform="matrix(0.06234567901234567,0,0,0.06234567901234567,98.88024691358024,0)" xlink:href="#aZ"/></g><path fill="#333" d="M147 0H94L2-248h55l64 206c17-72 42-137 63-206h54" id="ba"/><path fill="#333" d="M133-34C117-15 103 5 69 4 32 3 11-16 11-54c-1-60 55-63 116-61 1-26-3-47-28-47-18 1-26 9-28 27l-52-2c7-38 36-58 82-57s74 22 75 68l1 82c-1 14 12 18 25 15v27c-30 8-71 5-69-32zm-48 3c29 0 43-24 42-57-32 0-66-3-65 30 0 17 8 27 23 27" id="bb"/><path fill="#333" d="M135-150c-39-12-60 13-60 57V0H25l-1-190h47c2 13-1 29 3 40 6-28 27-53 61-41v41" id="bc"/><path fill="#333" d="M25-224v-37h50v37H25zM25 0v-190h50V0H25" id="bd"/><path fill="#333" d="M135-194c52 0 70 43 70 98 0 56-19 99-73 100-30 1-46-15-58-35L72 0H24l1-261h50v104c11-23 29-37 60-37zM114-30c31 0 40-27 40-66 0-37-7-63-39-63s-41 28-41 65c0 36 8 64 40 64" id="be"/><path fill="#333" d="M25 0v-261h50V0H25" id="bf"/><path fill="#333" d="M24-248c120-7 223 5 221 122C244-46 201 0 124 0H24v-248zM76-40c74 7 117-18 117-86 0-67-45-88-117-82v168" id="bg"/><path fill="#333" d="M190-63c-7 42-38 67-86 67-59 0-84-38-90-98-12-110 154-137 174-36l-49 2c-2-19-15-32-35-32-30 0-35 28-38 64-6 74 65 87 74 30" id="bh"/><path fill="#333" d="M115-3C79 11 28 4 28-45v-112H4v-33h27l15-45h31v45h36v33H77v99c-1 23 16 31 38 25v30" id="bi"/><path fill="#333" d="M110-194c64 0 96 36 96 99 0 64-35 99-97 99-61 0-95-36-95-99 0-62 34-99 96-99zm-1 164c35 0 45-28 45-65 0-40-10-65-43-65-34 0-45 26-45 65 0 36 10 65 43 65" id="bj"/><path fill="#333" d="M123 10C108 53 80 86 19 72V37c35 8 53-11 59-39L3-190h52l48 148c12-52 28-100 44-148h51" id="bk"/><g id="A"><use transform="matrix(0.06172839506172839,0,0,0.06172839506172839,0,0)" xlink:href="#ba"/><use transform="matrix(0.06172839506172839,0,0,0.06172839506172839,13.580246913580245,0)" xlink:href="#bb"/><use transform="matrix(0.06172839506172839,0,0,0.06172839506172839,25.925925925925924,0)" xlink:href="#bc"/><use transform="matrix(0.06172839506172839,0,0,0.06172839506172839,34.5679012345679,0)" xlink:href="#bd"/><use transform="matrix(0.06172839506172839,0,0,0.06172839506172839,40.74074074074074,0)" xlink:href="#bb"/><use transform="matrix(0.06172839506172839,0,0,0.06172839506172839,53.08641975308642,0)" xlink:href="#be"/><use transform="matrix(0.06172839506172839,0,0,0.06172839506172839,66.60493827160494,0)" xlink:href="#bf"/><use transform="matrix(0.06172839506172839,0,0,0.06172839506172839,72.77777777777777,0)" xlink:href="#ax"/><use transform="matrix(0.06172839506172839,0,0,0.06172839506172839,85.12345679012346,0)" xlink:href="#bg"/><use transform="matrix(0.06172839506172839,0,0,0.06172839506172839,101.11111111111111,0)" xlink:href="#bd"/><use transform="matrix(0.06172839506172839,0,0,0.06172839506172839,107.28395061728395,0)" xlink:href="#bh"/><use transform="matrix(0.06172839506172839,0,0,0.06172839506172839,119.62962962962963,0)" xlink:href="#bi"/><use transform="matrix(0.06172839506172839,0,0,0.06172839506172839,126.97530864197533,0)" xlink:href="#bd"/><use transform="matrix(0.06172839506172839,0,0,0.06172839506172839,133.14814814814815,0)" xlink:href="#bj"/><use transform="matrix(0.06172839506172839,0,0,0.06172839506172839,146.66666666666666,0)" xlink:href="#ay"/><use transform="matrix(0.06172839506172839,0,0,0.06172839506172839,160.18518518518516,0)" xlink:href="#bb"/><use transform="matrix(0.06172839506172839,0,0,0.06172839506172839,172.53086419753083,0)" xlink:href="#bc"/><use transform="matrix(0.06172839506172839,0,0,0.06172839506172839,181.1728395061728,0)" xlink:href="#bk"/></g><path fill="#333" d="M67-125c0 53 21 87 73 88 37 1 54-22 65-47l45 17C233-25 199 4 140 4 58 4 20-42 15-125 8-235 124-281 211-232c18 10 29 29 36 50l-46 12c-8-25-30-41-62-41-52 0-71 34-72 86" id="bl"/><path fill="#333" d="M137-138c1-29-70-34-71-4 15 46 118 7 119 86 1 83-164 76-172 9l43-7c4 19 20 25 44 25 33 8 57-30 24-41C81-84 22-81 20-136c-2-80 154-74 161-7" id="bm"/><g id="B"><use transform="matrix(0.06172839506172839,0,0,0.06172839506172839,0,0)" xlink:href="#bl"/><use transform="matrix(0.06172839506172839,0,0,0.06172839506172839,15.987654320987653,0)" xlink:href="#bj"/><use transform="matrix(0.06172839506172839,0,0,0.06172839506172839,29.50617283950617,0)" xlink:href="#ay"/><use transform="matrix(0.06172839506172839,0,0,0.06172839506172839,43.02469135802469,0)" xlink:href="#bm"/><use transform="matrix(0.06172839506172839,0,0,0.06172839506172839,55.37037037037037,0)" xlink:href="#bi"/><use transform="matrix(0.06172839506172839,0,0,0.06172839506172839,62.716049382716044,0)" xlink:href="#bb"/><use transform="matrix(0.06172839506172839,0,0,0.06172839506172839,75.06172839506172,0)" xlink:href="#ay"/><use transform="matrix(0.06172839506172839,0,0,0.06172839506172839,88.58024691358024,0)" xlink:href="#bi"/><use transform="matrix(0.06172839506172839,0,0,0.06172839506172839,95.92592592592592,0)" xlink:href="#bm"/><use transform="matrix(0.06172839506172839,0,0,0.06172839506172839,108.27160493827161,0)" xlink:href="#bg"/><use transform="matrix(0.06172839506172839,0,0,0.06172839506172839,124.25925925925927,0)" xlink:href="#bd"/><use transform="matrix(0.06172839506172839,0,0,0.06172839506172839,130.4320987654321,0)" xlink:href="#bh"/><use transform="matrix(0.06172839506172839,0,0,0.06172839506172839,142.77777777777777,0)" xlink:href="#bi"/><use transform="matrix(0.06172839506172839,0,0,0.06172839506172839,150.12345679012344,0)" xlink:href="#bd"/><use transform="matrix(0.06172839506172839,0,0,0.06172839506172839,156.29629629629628,0)" xlink:href="#bj"/><use transform="matrix(0.06172839506172839,0,0,0.06172839506172839,169.81481481481478,0)" xlink:href="#ay"/><use transform="matrix(0.06172839506172839,0,0,0.06172839506172839,183.3333333333333,0)" xlink:href="#bb"/><use transform="matrix(0.06172839506172839,0,0,0.06172839506172839,195.67901234567896,0)" xlink:href="#bc"/><use transform="matrix(0.06172839506172839,0,0,0.06172839506172839,204.32098765432093,0)" xlink:href="#bk"/></g><path fill="#fff" d="M121-251c83 0 93 87 42 126-35 27-77 48-103 84h115l-7 41H-6C6-94 102-103 141-168c11-20 3-46-24-44-23 2-33 13-39 32l-47-10c12-38 39-61 90-61" id="bn"/><g id="C"><use transform="matrix(0.06234567901234567,0,0,0.06234567901234567,0,0)" xlink:href="#aN"/><use transform="matrix(0.06234567901234567,0,0,0.06234567901234567,14.152469135802466,0)" xlink:href="#aC"/><use transform="matrix(0.06234567901234567,0,0,0.06234567901234567,26.6216049382716,0)" xlink:href="#aO"/><use transform="matrix(0.06234567901234567,0,0,0.06234567901234567,35.349999999999994,0)" xlink:href="#aG"/><use transform="matrix(0.06234567901234567,0,0,0.06234567901234567,41.584567901234564,0)" xlink:href="#aC"/><use transform="matrix(0.06234567901234567,0,0,0.06234567901234567,54.0537037037037,0)" xlink:href="#aP"/><use transform="matrix(0.06234567901234567,0,0,0.06234567901234567,67.7074074074074,0)" xlink:href="#aJ"/><use transform="matrix(0.06234567901234567,0,0,0.06234567901234567,73.94197530864197,0)" xlink:href="#aF"/><use transform="matrix(0.06234567901234567,0,0,0.06234567901234567,86.4111111111111,0)" xlink:href="#aY"/><use transform="matrix(0.06234567901234567,0,0,0.06234567901234567,98.88024691358024,0)" xlink:href="#bn"/></g><path fill="#fff" d="M131-73c0-31-25-35-58-33l8-40c36 2 64-5 65-39 0-17-10-28-28-27-23 1-35 12-41 32l-47-9c11-39 39-63 90-62 44 1 76 17 76 60 0 42-26 59-63 64 28 5 48 20 48 54C181 22 9 32 3-60l49-7c3 21 16 31 40 31s39-13 39-37" id="bo"/><g id="D"><use transform="matrix(0.06234567901234567,0,0,0.06234567901234567,0,0)" xlink:href="#aN"/><use transform="matrix(0.06234567901234567,0,0,0.06234567901234567,14.152469135802466,0)" xlink:href="#aC"/><use transform="matrix(0.06234567901234567,0,0,0.06234567901234567,26.6216049382716,0)" xlink:href="#aO"/><use transform="matrix(0.06234567901234567,0,0,0.06234567901234567,35.349999999999994,0)" xlink:href="#aG"/><use transform="matrix(0.06234567901234567,0,0,0.06234567901234567,41.584567901234564,0)" xlink:href="#aC"/><use transform="matrix(0.06234567901234567,0,0,0.06234567901234567,54.0537037037037,0)" xlink:href="#aP"/><use transform="matrix(0.06234567901234567,0,0,0.06234567901234567,67.7074074074074,0)" xlink:href="#aJ"/><use transform="matrix(0.06234567901234567,0,0,0.06234567901234567,73.94197530864197,0)" xlink:href="#aF"/><use transform="matrix(0.06234567901234567,0,0,0.06234567901234567,86.4111111111111,0)" xlink:href="#aY"/><use transform="matrix(0.06234567901234567,0,0,0.06234567901234567,98.88024691358024,0)" xlink:href="#bo"/></g><path fill="#fff" d="M70-104c-4 71 81 81 132 50l8-40h-60l7-37h108L246-31C216-10 181 3 130 3 60 2 18-32 18-102c-1-106 79-169 188-144 33 8 53 31 63 63l-50 14c-6-26-25-42-56-42-62 0-89 43-93 107" id="bp"/><g id="E"><use transform="matrix(0.06234567901234567,0,0,0.06234567901234567,0,0)" xlink:href="#bp"/><use transform="matrix(0.06234567901234567,0,0,0.06234567901234567,17.456790123456788,0)" xlink:href="#aO"/><use transform="matrix(0.06234567901234567,0,0,0.06234567901234567,26.185185185185183,0)" xlink:href="#aL"/><use transform="matrix(0.06234567901234567,0,0,0.06234567901234567,39.83888888888889,0)" xlink:href="#aI"/><use transform="matrix(0.06234567901234567,0,0,0.06234567901234567,53.49259259259259,0)" xlink:href="#aV"/><use transform="matrix(0.06234567901234567,0,0,0.06234567901234567,67.14629629629628,0)" xlink:href="#aF"/></g><g id="F"><use transform="matrix(0.06234567901234567,0,0,0.06234567901234567,0,0)" xlink:href="#aU"/><use transform="matrix(0.06234567901234567,0,0,0.06234567901234567,18.641358024691353,0)" xlink:href="#aI"/><use transform="matrix(0.06234567901234567,0,0,0.06234567901234567,32.295061728395055,0)" xlink:href="#aD"/><use transform="matrix(0.06234567901234567,0,0,0.06234567901234567,44.76419753086419,0)" xlink:href="#aR"/><use transform="matrix(0.06234567901234567,0,0,0.06234567901234567,57.23333333333332,0)" xlink:href="#aJ"/><use transform="matrix(0.06234567901234567,0,0,0.06234567901234567,63.46790123456789,0)" xlink:href="#aF"/><use transform="matrix(0.06234567901234567,0,0,0.06234567901234567,75.93703703703702,0)" xlink:href="#aY"/><use transform="matrix(0.06234567901234567,0,0,0.06234567901234567,88.40617283950616,0)" xlink:href="#aZ"/></g><g id="G"><use transform="matrix(0.06234567901234567,0,0,0.06234567901234567,0,0)" xlink:href="#aU"/><use transform="matrix(0.06234567901234567,0,0,0.06234567901234567,18.641358024691353,0)" xlink:href="#aI"/><use transform="matrix(0.06234567901234567,0,0,0.06234567901234567,32.295061728395055,0)" xlink:href="#aD"/><use transform="matrix(0.06234567901234567,0,0,0.06234567901234567,44.76419753086419,0)" xlink:href="#aR"/><use transform="matrix(0.06234567901234567,0,0,0.06234567901234567,57.23333333333332,0)" xlink:href="#aJ"/><use transform="matrix(0.06234567901234567,0,0,0.06234567901234567,63.46790123456789,0)" xlink:href="#aF"/><use transform="matrix(0.06234567901234567,0,0,0.06234567901234567,75.93703703703702,0)" xlink:href="#aY"/><use transform="matrix(0.06234567901234567,0,0,0.06234567901234567,88.40617283950616,0)" xlink:href="#bn"/></g><g id="H"><use transform="matrix(0.06234567901234567,0,0,0.06234567901234567,0,0)" xlink:href="#aU"/><use transform="matrix(0.06234567901234567,0,0,0.06234567901234567,18.641358024691353,0)" xlink:href="#aI"/><use transform="matrix(0.06234567901234567,0,0,0.06234567901234567,32.295061728395055,0)" xlink:href="#aD"/><use transform="matrix(0.06234567901234567,0,0,0.06234567901234567,44.76419753086419,0)" xlink:href="#aR"/><use transform="matrix(0.06234567901234567,0,0,0.06234567901234567,57.23333333333332,0)" xlink:href="#aJ"/><use transform="matrix(0.06234567901234567,0,0,0.06234567901234567,63.46790123456789,0)" xlink:href="#aF"/><use transform="matrix(0.06234567901234567,0,0,0.06234567901234567,75.93703703703702,0)" xlink:href="#aY"/><use transform="matrix(0.06234567901234567,0,0,0.06234567901234567,88.40617283950616,0)" xlink:href="#bo"/></g><path fill="#333" d="M230 0l2-204L168 0h-37L68-204 70 0H24v-248h70l56 185 57-185h69V0h-46" id="bq"/><path fill="#333" d="M85 4C-2 5 27-109 22-190h50c7 57-23 150 33 157 60-5 35-97 40-157h50l1 190h-47c-2-12 1-28-3-38-12 25-28 42-61 42" id="br"/><g id="I"><use transform="matrix(0.06172839506172839,0,0,0.06172839506172839,0,0)" xlink:href="#bq"/><use transform="matrix(0.06172839506172839,0,0,0.06172839506172839,18.456790123456788,0)" xlink:href="#br"/><use transform="matrix(0.06172839506172839,0,0,0.06172839506172839,31.9753086419753,0)" xlink:href="#bm"/><use transform="matrix(0.06172839506172839,0,0,0.06172839506172839,44.32098765432098,0)" xlink:href="#bh"/><use transform="matrix(0.06172839506172839,0,0,0.06172839506172839,56.66666666666666,0)" xlink:href="#bf"/><use transform="matrix(0.06172839506172839,0,0,0.06172839506172839,62.8395061728395,0)" xlink:href="#ax"/><use transform="matrix(0.06172839506172839,0,0,0.06172839506172839,75.18518518518518,0)" xlink:href="#bg"/><use transform="matrix(0.06172839506172839,0,0,0.06172839506172839,91.17283950617283,0)" xlink:href="#bd"/><use transform="matrix(0.06172839506172839,0,0,0.06172839506172839,97.34567901234567,0)" xlink:href="#bh"/><use transform="matrix(0.06172839506172839,0,0,0.06172839506172839,109.69135802469135,0)" xlink:href="#bi"/><use transform="matrix(0.06172839506172839,0,0,0.06172839506172839,117.03703703703704,0)" xlink:href="#bd"/><use transform="matrix(0.06172839506172839,0,0,0.06172839506172839,123.20987654320987,0)" xlink:href="#bj"/><use transform="matrix(0.06172839506172839,0,0,0.06172839506172839,136.72839506172838,0)" xlink:href="#ay"/><use transform="matrix(0.06172839506172839,0,0,0.06172839506172839,150.24691358024688,0)" xlink:href="#bb"/><use transform="matrix(0.06172839506172839,0,0,0.06172839506172839,162.59259259259255,0)" xlink:href="#bc"/><use transform="matrix(0.06172839506172839,0,0,0.06172839506172839,171.23456790123453,0)" xlink:href="#bk"/></g><g id="J"><use transform="matrix(0.06234567901234567,0,0,0.06234567901234567,0,0)" xlink:href="#aU"/><use transform="matrix(0.06234567901234567,0,0,0.06234567901234567,18.641358024691353,0)" xlink:href="#aI"/><use transform="matrix(0.06234567901234567,0,0,0.06234567901234567,32.295061728395055,0)" xlink:href="#aD"/><use transform="matrix(0.06234567901234567,0,0,0.06234567901234567,44.76419753086419,0)" xlink:href="#aR"/><use transform="matrix(0.06234567901234567,0,0,0.06234567901234567,57.23333333333332,0)" xlink:href="#aJ"/><use transform="matrix(0.06234567901234567,0,0,0.06234567901234567,63.46790123456789,0)" xlink:href="#aF"/><use transform="matrix(0.06234567901234567,0,0,0.06234567901234567,75.93703703703702,0)" xlink:href="#aY"/><use transform="matrix(0.06234567901234567,0,0,0.06234567901234567,88.40617283950616,0)" xlink:href="#aZ"/></g><g id="K"><use transform="matrix(0.06234567901234567,0,0,0.06234567901234567,0,0)" xlink:href="#aV"/><use transform="matrix(0.06234567901234567,0,0,0.06234567901234567,13.653703703703702,0)" xlink:href="#aC"/><use transform="matrix(0.06234567901234567,0,0,0.06234567901234567,26.122839506172834,0)" xlink:href="#aO"/><use transform="matrix(0.06234567901234567,0,0,0.06234567901234567,34.85123456790123,0)" xlink:href="#aK"/><use transform="matrix(0.06234567901234567,0,0,0.06234567901234567,42.270370370370365,0)" xlink:href="#aY"/><use transform="matrix(0.06234567901234567,0,0,0.06234567901234567,54.7395061728395,0)" xlink:href="#aZ"/></g><g id="L"><use transform="matrix(0.06234567901234567,0,0,0.06234567901234567,0,0)" xlink:href="#aV"/><use transform="matrix(0.06234567901234567,0,0,0.06234567901234567,13.653703703703702,0)" xlink:href="#aC"/><use transform="matrix(0.06234567901234567,0,0,0.06234567901234567,26.122839506172834,0)" xlink:href="#aO"/><use transform="matrix(0.06234567901234567,0,0,0.06234567901234567,34.85123456790123,0)" xlink:href="#aK"/><use transform="matrix(0.06234567901234567,0,0,0.06234567901234567,42.270370370370365,0)" xlink:href="#aY"/><use transform="matrix(0.06234567901234567,0,0,0.06234567901234567,54.7395061728395,0)" xlink:href="#bn"/></g><g id="M"><use transform="matrix(0.06234567901234567,0,0,0.06234567901234567,0,0)" xlink:href="#aV"/><use transform="matrix(0.06234567901234567,0,0,0.06234567901234567,13.653703703703702,0)" xlink:href="#aC"/><use transform="matrix(0.06234567901234567,0,0,0.06234567901234567,26.122839506172834,0)" xlink:href="#aO"/><use transform="matrix(0.06234567901234567,0,0,0.06234567901234567,34.85123456790123,0)" xlink:href="#aK"/><use transform="matrix(0.06234567901234567,0,0,0.06234567901234567,42.270370370370365,0)" xlink:href="#aY"/><use transform="matrix(0.06234567901234567,0,0,0.06234567901234567,54.7395061728395,0)" xlink:href="#bo"/></g><g id="N"><use transform="matrix(0.06234567901234567,0,0,0.06234567901234567,0,0)" xlink:href="#aB"/><use transform="matrix(0.06234567901234567,0,0,0.06234567901234567,16.147530864197527,0)" xlink:href="#aL"/><use transform="matrix(0.06234567901234567,0,0,0.06234567901234567,29.80123456790123,0)" xlink:href="#aH"/><use transform="matrix(0.06234567901234567,0,0,0.06234567901234567,49.75185185185184,0)" xlink:href="#aP"/><use transform="matrix(0.06234567901234567,0,0,0.06234567901234567,63.40555555555554,0)" xlink:href="#aG"/><use transform="matrix(0.06234567901234567,0,0,0.06234567901234567,69.6401234567901,0)" xlink:href="#aM"/><use transform="matrix(0.06234567901234567,0,0,0.06234567901234567,83.2938271604938,0)" xlink:href="#aF"/><use transform="matrix(0.06234567901234567,0,0,0.06234567901234567,95.76296296296294,0)" xlink:href="#aE"/></g><g id="O"><use transform="matrix(0.06172839506172839,0,0,0.06172839506172839,0,0)" xlink:href="#bq"/><use transform="matrix(0.06172839506172839,0,0,0.06172839506172839,18.456790123456788,0)" xlink:href="#br"/><use transform="matrix(0.06172839506172839,0,0,0.06172839506172839,31.9753086419753,0)" xlink:href="#bm"/><use transform="matrix(0.06172839506172839,0,0,0.06172839506172839,44.32098765432098,0)" xlink:href="#bh"/><use transform="matrix(0.06172839506172839,0,0,0.06172839506172839,56.66666666666666,0)" xlink:href="#bf"/><use transform="matrix(0.06172839506172839,0,0,0.06172839506172839,62.8395061728395,0)" xlink:href="#ax"/><use transform="matrix(0.06172839506172839,0,0,0.06172839506172839,75.18518518518518,0)" xlink:href="#ba"/><use transform="matrix(0.06172839506172839,0,0,0.06172839506172839,88.76543209876542,0)" xlink:href="#bb"/><use transform="matrix(0.06172839506172839,0,0,0.06172839506172839,101.1111111111111,0)" xlink:href="#bc"/><use transform="matrix(0.06172839506172839,0,0,0.06172839506172839,109.75308641975307,0)" xlink:href="#bd"/><use transform="matrix(0.06172839506172839,0,0,0.06172839506172839,115.92592592592591,0)" xlink:href="#bb"/><use transform="matrix(0.06172839506172839,0,0,0.06172839506172839,128.2716049382716,0)" xlink:href="#be"/><use transform="matrix(0.06172839506172839,0,0,0.06172839506172839,141.7901234567901,0)" xlink:href="#bf"/><use transform="matrix(0.06172839506172839,0,0,0.06172839506172839,147.96296296296293,0)" xlink:href="#ax"/><use transform="matrix(0.06172839506172839,0,0,0.06172839506172839,160.3086419753086,0)" xlink:href="#bg"/><use transform="matrix(0.06172839506172839,0,0,0.06172839506172839,176.29629629629625,0)" xlink:href="#bd"/><use transform="matrix(0.06172839506172839,0,0,0.06172839506172839,182.46913580246908,0)" xlink:href="#bh"/><use transform="matrix(0.06172839506172839,0,0,0.06172839506172839,194.81481481481475,0)" xlink:href="#bi"/><use transform="matrix(0.06172839506172839,0,0,0.06172839506172839,202.16049382716042,0)" xlink:href="#bd"/><use transform="matrix(0.06172839506172839,0,0,0.06172839506172839,208.33333333333326,0)" xlink:href="#bj"/><use transform="matrix(0.06172839506172839,0,0,0.06172839506172839,221.85185185185176,0)" xlink:href="#ay"/><use transform="matrix(0.06172839506172839,0,0,0.06172839506172839,235.37037037037027,0)" xlink:href="#bb"/><use transform="matrix(0.06172839506172839,0,0,0.06172839506172839,247.71604938271594,0)" xlink:href="#bc"/><use transform="matrix(0.06172839506172839,0,0,0.06172839506172839,256.3580246913579,0)" xlink:href="#bk"/></g><g id="P"><use transform="matrix(0.06234567901234567,0,0,0.06234567901234567,0,0)" xlink:href="#aQ"/><use transform="matrix(0.06234567901234567,0,0,0.06234567901234567,16.147530864197527,0)" xlink:href="#aF"/><use transform="matrix(0.06234567901234567,0,0,0.06234567901234567,28.61666666666666,0)" xlink:href="#aD"/><use transform="matrix(0.06234567901234567,0,0,0.06234567901234567,41.08580246913579,0)" xlink:href="#aR"/><use transform="matrix(0.06234567901234567,0,0,0.06234567901234567,53.554938271604925,0)" xlink:href="#aO"/><use transform="matrix(0.06234567901234567,0,0,0.06234567901234567,62.28333333333332,0)" xlink:href="#aG"/><use transform="matrix(0.06234567901234567,0,0,0.06234567901234567,68.51790123456789,0)" xlink:href="#aV"/><use transform="matrix(0.06234567901234567,0,0,0.06234567901234567,82.17160493827159,0)" xlink:href="#aK"/><use transform="matrix(0.06234567901234567,0,0,0.06234567901234567,89.59074074074071,0)" xlink:href="#aG"/><use transform="matrix(0.06234567901234567,0,0,0.06234567901234567,95.82530864197528,0)" xlink:href="#aL"/><use transform="matrix(0.06234567901234567,0,0,0.06234567901234567,109.47901234567898,0)" xlink:href="#aM"/></g><g id="Q"><use transform="matrix(0.06234567901234567,0,0,0.06234567901234567,0,0)" xlink:href="#aN"/><use transform="matrix(0.06234567901234567,0,0,0.06234567901234567,14.152469135802466,0)" xlink:href="#aC"/><use transform="matrix(0.06234567901234567,0,0,0.06234567901234567,26.6216049382716,0)" xlink:href="#aO"/><use transform="matrix(0.06234567901234567,0,0,0.06234567901234567,35.349999999999994,0)" xlink:href="#aG"/><use transform="matrix(0.06234567901234567,0,0,0.06234567901234567,41.584567901234564,0)" xlink:href="#aC"/><use transform="matrix(0.06234567901234567,0,0,0.06234567901234567,54.0537037037037,0)" xlink:href="#aP"/><use transform="matrix(0.06234567901234567,0,0,0.06234567901234567,67.7074074074074,0)" xlink:href="#aJ"/><use transform="matrix(0.06234567901234567,0,0,0.06234567901234567,73.94197530864197,0)" xlink:href="#aF"/><use transform="matrix(0.06234567901234567,0,0,0.06234567901234567,86.4111111111111,0)" xlink:href="#aY"/><use transform="matrix(0.06234567901234567,0,0,0.06234567901234567,98.88024691358024,0)" xlink:href="#bo"/></g><path fill="#fff" d="M157-208L117 0H65l40-208H25l8-40h212l-8 40h-80" id="bs"/><g id="R"><use transform="matrix(0.06234567901234567,0,0,0.06234567901234567,0,0)" xlink:href="#bs"/><use transform="matrix(0.06234567901234567,0,0,0.06234567901234567,12.843209876543208,0)" xlink:href="#aL"/><use transform="matrix(0.06234567901234567,0,0,0.06234567901234567,26.49691358024691,0)" xlink:href="#aK"/><use transform="matrix(0.06234567901234567,0,0,0.06234567901234567,33.91604938271605,0)" xlink:href="#aC"/><use transform="matrix(0.06234567901234567,0,0,0.06234567901234567,46.38518518518518,0)" xlink:href="#aJ"/></g><path fill="#fff" d="M13-52c0-97 37-163 91-209h50c-53 52-92 115-92 212 0 48 8 90 25 124H39C22 40 13-2 13-52" id="bt"/><path fill="#fff" d="M102-194c32-2 46 14 56 35 2-10 4-23 8-31h48L161 75h-49l21-104C119-9 101 4 69 4 31 4 10-22 10-61c0-70 24-129 92-133zM63-82c-3 28 2 52 28 52 46-1 55-45 57-90 1-24-7-40-30-40-43 0-50 40-55 78" id="bu"/><g id="S"><use transform="matrix(0.06234567901234567,0,0,0.06234567901234567,0,0)" xlink:href="#bt"/><use transform="matrix(0.06234567901234567,0,0,0.06234567901234567,7.4191358024691345,0)" xlink:href="#aT"/><use transform="matrix(0.06234567901234567,0,0,0.06234567901234567,22.382098765432094,0)" xlink:href="#aF"/><use transform="matrix(0.06234567901234567,0,0,0.06234567901234567,34.85123456790123,0)" xlink:href="#bu"/><use transform="matrix(0.06234567901234567,0,0,0.06234567901234567,48.50493827160493,0)" xlink:href="#aI"/><use transform="matrix(0.06234567901234567,0,0,0.06234567901234567,62.158641975308626,0)" xlink:href="#aF"/><use transform="matrix(0.06234567901234567,0,0,0.06234567901234567,74.62777777777777,0)" xlink:href="#aM"/><use transform="matrix(0.06234567901234567,0,0,0.06234567901234567,88.28148148148146,0)" xlink:href="#aR"/><use transform="matrix(0.06234567901234567,0,0,0.06234567901234567,100.75061728395059,0)" xlink:href="#aF"/><use transform="matrix(0.06234567901234567,0,0,0.06234567901234567,113.21975308641973,0)" xlink:href="#aB"/><use transform="matrix(0.06234567901234567,0,0,0.06234567901234567,129.36728395061726,0)" xlink:href="#aL"/><use transform="matrix(0.06234567901234567,0,0,0.06234567901234567,143.02098765432098,0)" xlink:href="#aH"/><use transform="matrix(0.06234567901234567,0,0,0.06234567901234567,162.97160493827158,0)" xlink:href="#aV"/><use transform="matrix(0.06234567901234567,0,0,0.06234567901234567,176.6253086419753,0)" xlink:href="#aL"/><use transform="matrix(0.06234567901234567,0,0,0.06234567901234567,190.279012345679,0)" xlink:href="#aD"/><use transform="matrix(0.06234567901234567,0,0,0.06234567901234567,202.74814814814815,0)" xlink:href="#aC"/><use transform="matrix(0.06234567901234567,0,0,0.06234567901234567,215.2172839506173,0)" xlink:href="#aM"/><use transform="matrix(0.06234567901234567,0,0,0.06234567901234567,228.870987654321,0)" xlink:href="#aK"/><use transform="matrix(0.06234567901234567,0,0,0.06234567901234567,236.29012345679013,0)" xlink:href="#aF"/><use transform="matrix(0.06234567901234567,0,0,0.06234567901234567,248.75925925925927,0)" xlink:href="#aD"/></g><path fill="#fff" d="M22-148v-39h180v39H22zm0 97v-39h180v39H22" id="bv"/><use transform="matrix(0.06234567901234567,0,0,0.06234567901234567,0,0)" xlink:href="#bv" id="T"/><path fill="#fff" d="M-9 75l65-336h95l-7 34H96L44 41h48l-6 34H-9" id="bw"/><path fill="#fff" d="M152-158h-39l13-90h48zm-75 0H38l13-90h48" id="bx"/><path fill="#fff" d="M-31 75l7-34h49l52-268H28l6-34h96L65 75h-96" id="by"/><path fill="#fff" d="M109-139C109-39 71 27 18 75h-50C22 21 61-44 61-142c0-46-11-87-27-119h47c17 31 28 75 28 122" id="bz"/><g id="U"><use transform="matrix(0.06234567901234567,0,0,0.06234567901234567,0,0)" xlink:href="#bw"/><use transform="matrix(0.06234567901234567,0,0,0.06234567901234567,7.4191358024691345,0)" xlink:href="#bx"/><use transform="matrix(0.06234567901234567,0,0,0.06234567901234567,18.017901234567898,0)" xlink:href="#bs"/><use transform="matrix(0.06234567901234567,0,0,0.06234567901234567,30.861111111111107,0)" xlink:href="#aL"/><use transform="matrix(0.06234567901234567,0,0,0.06234567901234567,44.51481481481481,0)" xlink:href="#aK"/><use transform="matrix(0.06234567901234567,0,0,0.06234567901234567,51.93395061728395,0)" xlink:href="#aC"/><use transform="matrix(0.06234567901234567,0,0,0.06234567901234567,64.40308641975308,0)" xlink:href="#aJ"/><use transform="matrix(0.06234567901234567,0,0,0.06234567901234567,70.63765432098765,0)" xlink:href="#bx"/><use transform="matrix(0.06234567901234567,0,0,0.06234567901234567,81.23641975308641,0)" xlink:href="#by"/><use transform="matrix(0.06234567901234567,0,0,0.06234567901234567,88.65555555555554,0)" xlink:href="#bz"/></g><g id="V"><use transform="matrix(0.06234567901234567,0,0,0.06234567901234567,0,0)" xlink:href="#aU"/><use transform="matrix(0.06234567901234567,0,0,0.06234567901234567,18.641358024691353,0)" xlink:href="#aI"/><use transform="matrix(0.06234567901234567,0,0,0.06234567901234567,32.295061728395055,0)" xlink:href="#aD"/><use transform="matrix(0.06234567901234567,0,0,0.06234567901234567,44.76419753086419,0)" xlink:href="#aR"/><use transform="matrix(0.06234567901234567,0,0,0.06234567901234567,57.23333333333332,0)" xlink:href="#aJ"/><use transform="matrix(0.06234567901234567,0,0,0.06234567901234567,63.46790123456789,0)" xlink:href="#aF"/><use transform="matrix(0.06234567901234567,0,0,0.06234567901234567,75.93703703703702,0)" xlink:href="#aN"/><use transform="matrix(0.06234567901234567,0,0,0.06234567901234567,90.08950617283948,0)" xlink:href="#aC"/><use transform="matrix(0.06234567901234567,0,0,0.06234567901234567,102.5586419753086,0)" xlink:href="#aO"/><use transform="matrix(0.06234567901234567,0,0,0.06234567901234567,111.287037037037,0)" xlink:href="#aG"/><use transform="matrix(0.06234567901234567,0,0,0.06234567901234567,117.52160493827157,0)" xlink:href="#aC"/><use transform="matrix(0.06234567901234567,0,0,0.06234567901234567,129.9907407407407,0)" xlink:href="#aP"/><use transform="matrix(0.06234567901234567,0,0,0.06234567901234567,143.64444444444442,0)" xlink:href="#aJ"/><use transform="matrix(0.06234567901234567,0,0,0.06234567901234567,149.87901234567897,0)" xlink:href="#aF"/><use transform="matrix(0.06234567901234567,0,0,0.06234567901234567,162.3481481481481,0)" xlink:href="#aY"/><use transform="matrix(0.06234567901234567,0,0,0.06234567901234567,174.81728395061725,0)" xlink:href="#aZ"/></g><g id="W"><use transform="matrix(0.06234567901234567,0,0,0.06234567901234567,0,0)" xlink:href="#aU"/><use transform="matrix(0.06234567901234567,0,0,0.06234567901234567,18.641358024691353,0)" xlink:href="#aI"/><use transform="matrix(0.06234567901234567,0,0,0.06234567901234567,32.295061728395055,0)" xlink:href="#aD"/><use transform="matrix(0.06234567901234567,0,0,0.06234567901234567,44.76419753086419,0)" xlink:href="#aR"/><use transform="matrix(0.06234567901234567,0,0,0.06234567901234567,57.23333333333332,0)" xlink:href="#aJ"/><use transform="matrix(0.06234567901234567,0,0,0.06234567901234567,63.46790123456789,0)" xlink:href="#aF"/><use transform="matrix(0.06234567901234567,0,0,0.06234567901234567,75.93703703703702,0)" xlink:href="#aN"/><use transform="matrix(0.06234567901234567,0,0,0.06234567901234567,90.08950617283948,0)" xlink:href="#aC"/><use transform="matrix(0.06234567901234567,0,0,0.06234567901234567,102.5586419753086,0)" xlink:href="#aO"/><use transform="matrix(0.06234567901234567,0,0,0.06234567901234567,111.287037037037,0)" xlink:href="#aG"/><use transform="matrix(0.06234567901234567,0,0,0.06234567901234567,117.52160493827157,0)" xlink:href="#aC"/><use transform="matrix(0.06234567901234567,0,0,0.06234567901234567,129.9907407407407,0)" xlink:href="#aP"/><use transform="matrix(0.06234567901234567,0,0,0.06234567901234567,143.64444444444442,0)" xlink:href="#aJ"/><use transform="matrix(0.06234567901234567,0,0,0.06234567901234567,149.87901234567897,0)" xlink:href="#aF"/><use transform="matrix(0.06234567901234567,0,0,0.06234567901234567,162.3481481481481,0)" xlink:href="#aY"/><use transform="matrix(0.06234567901234567,0,0,0.06234567901234567,174.81728395061725,0)" xlink:href="#bn"/></g><g id="X"><use transform="matrix(0.06234567901234567,0,0,0.06234567901234567,0,0)" xlink:href="#aU"/><use transform="matrix(0.06234567901234567,0,0,0.06234567901234567,18.641358024691353,0)" xlink:href="#aI"/><use transform="matrix(0.06234567901234567,0,0,0.06234567901234567,32.295061728395055,0)" xlink:href="#aD"/><use transform="matrix(0.06234567901234567,0,0,0.06234567901234567,44.76419753086419,0)" xlink:href="#aR"/><use transform="matrix(0.06234567901234567,0,0,0.06234567901234567,57.23333333333332,0)" xlink:href="#aJ"/><use transform="matrix(0.06234567901234567,0,0,0.06234567901234567,63.46790123456789,0)" xlink:href="#aF"/><use transform="matrix(0.06234567901234567,0,0,0.06234567901234567,75.93703703703702,0)" xlink:href="#aN"/><use transform="matrix(0.06234567901234567,0,0,0.06234567901234567,90.08950617283948,0)" xlink:href="#aC"/><use transform="matrix(0.06234567901234567,0,0,0.06234567901234567,102.5586419753086,0)" xlink:href="#aO"/><use transform="matrix(0.06234567901234567,0,0,0.06234567901234567,111.287037037037,0)" xlink:href="#aG"/><use transform="matrix(0.06234567901234567,0,0,0.06234567901234567,117.52160493827157,0)" xlink:href="#aC"/><use transform="matrix(0.06234567901234567,0,0,0.06234567901234567,129.9907407407407,0)" xlink:href="#aP"/><use transform="matrix(0.06234567901234567,0,0,0.06234567901234567,143.64444444444442,0)" xlink:href="#aJ"/><use transform="matrix(0.06234567901234567,0,0,0.06234567901234567,149.87901234567897,0)" xlink:href="#aF"/><use transform="matrix(0.06234567901234567,0,0,0.06234567901234567,162.3481481481481,0)" xlink:href="#aY"/><use transform="matrix(0.06234567901234567,0,0,0.06234567901234567,174.81728395061725,0)" xlink:href="#bo"/></g><g id="Y"><use transform="matrix(0.06234567901234567,0,0,0.06234567901234567,0,0)" xlink:href="#aT"/><use transform="matrix(0.06234567901234567,0,0,0.06234567901234567,14.96296296296296,0)" xlink:href="#aF"/><use transform="matrix(0.06234567901234567,0,0,0.06234567901234567,27.432098765432094,0)" xlink:href="#bu"/><use transform="matrix(0.06234567901234567,0,0,0.06234567901234567,41.0858024691358,0)" xlink:href="#aI"/><use transform="matrix(0.06234567901234567,0,0,0.06234567901234567,54.7395061728395,0)" xlink:href="#aF"/><use transform="matrix(0.06234567901234567,0,0,0.06234567901234567,67.20864197530864,0)" xlink:href="#aM"/><use transform="matrix(0.06234567901234567,0,0,0.06234567901234567,80.86234567901234,0)" xlink:href="#aR"/><use transform="matrix(0.06234567901234567,0,0,0.06234567901234567,93.33148148148146,0)" xlink:href="#aF"/><use transform="matrix(0.06234567901234567,0,0,0.06234567901234567,105.8006172839506,0)" xlink:href="#aB"/><use transform="matrix(0.06234567901234567,0,0,0.06234567901234567,121.94814814814814,0)" xlink:href="#aL"/><use transform="matrix(0.06234567901234567,0,0,0.06234567901234567,135.60185185185185,0)" xlink:href="#aH"/><use transform="matrix(0.06234567901234567,0,0,0.06234567901234567,155.55246913580245,0)" xlink:href="#aV"/><use transform="matrix(0.06234567901234567,0,0,0.06234567901234567,169.20617283950617,0)" xlink:href="#aL"/><use transform="matrix(0.06234567901234567,0,0,0.06234567901234567,182.85987654320988,0)" xlink:href="#aD"/><use transform="matrix(0.06234567901234567,0,0,0.06234567901234567,195.32901234567902,0)" xlink:href="#aC"/><use transform="matrix(0.06234567901234567,0,0,0.06234567901234567,207.79814814814816,0)" xlink:href="#aM"/><use transform="matrix(0.06234567901234567,0,0,0.06234567901234567,221.45185185185187,0)" xlink:href="#aK"/><use transform="matrix(0.06234567901234567,0,0,0.06234567901234567,228.870987654321,0)" xlink:href="#aF"/><use transform="matrix(0.06234567901234567,0,0,0.06234567901234567,241.34012345679014,0)" xlink:href="#aD"/></g><use transform="matrix(0.06234567901234567,0,0,0.06234567901234567,0,0)" xlink:href="#bv" id="Z"/><path fill="#fff" d="M127 0L95-67 37 0h-53l89-99-49-91h52l30 61 52-61h54l-85 92 52 98h-52" id="bA"/><path fill="#fff" d="M69-54C61-12 54 32 29 56H-4C11 41 25 23 31 0H8l10-54h51" id="bB"/><g id="aa"><use transform="matrix(0.06234567901234567,0,0,0.06234567901234567,0,0)" xlink:href="#bw"/><use transform="matrix(0.06234567901234567,0,0,0.06234567901234567,7.4191358024691345,0)" xlink:href="#bx"/><use transform="matrix(0.06234567901234567,0,0,0.06234567901234567,18.017901234567898,0)" xlink:href="#bA"/><use transform="matrix(0.06234567901234567,0,0,0.06234567901234567,30.48703703703703,0)" xlink:href="#bx"/><use transform="matrix(0.06234567901234567,0,0,0.06234567901234567,41.08580246913579,0)" xlink:href="#bB"/></g><path fill="#fff" d="M100 10C77 47 50 87-15 72l7-35c37 9 51-18 65-41L20-190h51L89-44l73-146h53" id="bC"/><g id="ab"><use transform="matrix(0.06234567901234567,0,0,0.06234567901234567,0,0)" xlink:href="#bx"/><use transform="matrix(0.06234567901234567,0,0,0.06234567901234567,10.598765432098764,0)" xlink:href="#bC"/><use transform="matrix(0.06234567901234567,0,0,0.06234567901234567,23.0679012345679,0)" xlink:href="#bx"/><use transform="matrix(0.06234567901234567,0,0,0.06234567901234567,33.666666666666664,0)" xlink:href="#bB"/></g><path fill="#fff" d="M-6 0l7-35 114-120H31l7-35h142l-7 35L59-36h100l-7 36H-6" id="bD"/><g id="ac"><use transform="matrix(0.06234567901234567,0,0,0.06234567901234567,0,0)" xlink:href="#bx"/><use transform="matrix(0.06234567901234567,0,0,0.06234567901234567,10.598765432098764,0)" xlink:href="#bD"/><use transform="matrix(0.06234567901234567,0,0,0.06234567901234567,21.820987654320984,0)" xlink:href="#bx"/><use transform="matrix(0.06234567901234567,0,0,0.06234567901234567,32.419753086419746,0)" xlink:href="#by"/></g><use transform="matrix(0.06234567901234567,0,0,0.06234567901234567,0,0)" xlink:href="#bA" id="ad"/><use transform="matrix(0.06234567901234567,0,0,0.06234567901234567,0,0)" xlink:href="#bC" id="ae"/><use transform="matrix(0.06234567901234567,0,0,0.06234567901234567,0,0)" xlink:href="#bD" id="af"/></defs></g></svg>