<svg xmlns="http://www.w3.org/2000/svg" xmlns:xlink="http://www.w3.org/1999/xlink" xmlns:lucid="lucid" width="3172" height="514"><g transform="translate(1636 2578)" lucid:page-tab-id="0_0"><path d="M-5000-4000h8000v6500h-8000z" fill="#fff"/><path d="M-1622.1-3693.86a6 6 0 0 1 6-6h3188.7a6 6 0 0 1 6 6v1165.5a6 6 0 0 1-6 6h-3188.7a6 6 0 0 1-6-6z" stroke="#5e5e5e" stroke-width="3" fill="#fff"/><path d="M-1594.25-3568.23a12 12 0 0 1 12-12h595.16a12 12 0 0 1 12 12v1001.53a12 12 0 0 1-12 12h-595.15a12 12 0 0 1-12-12z" stroke="#000" stroke-opacity="0" stroke-width="2" fill="#fafafa" filter="url(#a)"/><path d="M-284.36-2627.8a8 8 0 0 1 8-8H-5.83a8 8 0 0 1 8 8v24a8 8 0 0 1-8 8h-270.53a8 8 0 0 1-8-8z" stroke="#000" stroke-opacity="0" stroke-width="2" fill="#ba23f6"/><use xlink:href="#b" transform="matrix(1,0,0,1,-279.3579788391014,-2630.802784944631) translate(77.58827160493829 19.893055555555552)"/><path d="M-1560-2488a12 12 0 0 1 12-12h2676a12 12 0 0 1 12 12v197.06a12 12 0 0 1-12 12h-2676a12 12 0 0 1-12-12z" stroke="#000" stroke-opacity="0" stroke-width="2" fill="#fafafa" filter="url(#c)"/><path d="M-1560-2500h340v92.42h-340z" stroke="#000" stroke-opacity="0" stroke-width="2" fill="#fff" fill-opacity="0"/><use xlink:href="#d" transform="matrix(1,0,0,1,-1555,-2495) translate(86.5277777777778 47.416666666666664)"/><use xlink:href="#e" transform="matrix(1,0,0,1,-1555,-2495) translate(232.4537037037037 47.416666666666664)"/><path d="M-1523.78-2392a8 8 0 0 1 8-8h304.63a8 8 0 0 1 8 8v76.42a8 8 0 0 1-8 8h-304.63a8 8 0 0 1-8-8z" stroke="#000" stroke-opacity="0" stroke-width="2" fill="#e81313"/><use xlink:href="#f" transform="matrix(1,0,0,1,-1518.7792908765339,-2395) translate(15.799741296296276 45.13753555555556)"/><use xlink:href="#g" transform="matrix(1,0,0,1,-1518.7792908765339,-2395) translate(160.8000098148148 45.13753555555556)"/><use xlink:href="#h" transform="matrix(1,0,0,1,-1518.7792908765339,-2395) translate(195.4000738888889 45.13753555555556)"/><path d="M10.72-2392a8 8 0 0 1 8-8h304.63a8 8 0 0 1 8 8v76.42a8 8 0 0 1-8 8H18.72a8 8 0 0 1-8-8z" stroke="#000" stroke-opacity="0" stroke-width="2" fill="#fc9432"/><use xlink:href="#i" transform="matrix(1,0,0,1,15.720709123465923,-2394.9999999999995) translate(115.66111111111111 46.48680555555555)"/><path d="M-1140.15-2392a8 8 0 0 1 8-8h304.62a8 8 0 0 1 8 8v76.42a8 8 0 0 1-8 8h-304.62a8 8 0 0 1-8-8z" stroke="#000" stroke-opacity="0" stroke-width="2" fill="#54c45e"/><use xlink:href="#j" transform="matrix(1,0,0,1,-1135.1542908765339,-2395) translate(117.53148148148149 46.48680555555555)"/><path d="M-372.9-2392a8 8 0 0 1 8-8h304.62a8 8 0 0 1 8 8v76.42a8 8 0 0 1-8 8H-364.9a8 8 0 0 1-8-8z" stroke="#000" stroke-opacity="0" stroke-width="2" fill="#ba23f6"/><use xlink:href="#k" transform="matrix(1,0,0,1,-367.9042908765339,-2395) translate(94.58827160493829 46.48680555555555)"/><path d="M-756.53-2392a8 8 0 0 1 8-8h304.63a8 8 0 0 1 8 8v76.42a8 8 0 0 1-8 8h-304.63a8 8 0 0 1-8-8z" stroke="#000" stroke-opacity="0" stroke-width="2" fill="#1071e5"/><use xlink:href="#l" transform="matrix(1,0,0,1,-751.5292908765339,-2394.9999999999995) translate(112.29444444444445 46.48680555555555)"/><path d="M394.35-2392a8 8 0 0 1 8-8h304.62a8 8 0 0 1 8 8v76.42a8 8 0 0 1-8 8H402.35a8 8 0 0 1-8-8z" stroke="#000" stroke-opacity="0" stroke-width="2" fill="#cbc2a3"/><use xlink:href="#m" transform="matrix(1,0,0,1,399.3457091234661,-2395) translate(64.44413580246916 46.48680555555555)"/><use xlink:href="#n" transform="matrix(1,0,0,1,399.3457091234661,-2395) translate(138.38611111111112 46.48680555555555)"/><use xlink:href="#o" transform="matrix(1,0,0,1,399.3457091234661,-2395) translate(179.4719135802469 46.48680555555555)"/><path d="M777.97-2392a8 8 0 0 1 8-8h304.63a8 8 0 0 1 8 8v76.42a8 8 0 0 1-8 8H785.97a8 8 0 0 1-8-8z" stroke="#000" stroke-opacity="0" stroke-width="2" fill="#ff80df"/><g><use xlink:href="#p" transform="matrix(1,0,0,1,782.9707091234661,-2394.9999999999995) translate(1.8490740740741103 46.48680555555555)"/><use xlink:href="#q" transform="matrix(1,0,0,1,782.9707091234661,-2394.9999999999995) translate(131.15401234567904 46.48680555555555)"/></g><defs><filter id="a" filterUnits="objectBoundingBox" x="-.02" y="0" width="1.03" height="1.02"><feOffset result="offOut" in="SourceAlpha" dy="6"/><feGaussianBlur result="blurOut" in="offOut" stdDeviation="5"/><feColorMatrix result="colorOut" in="blurOut" values="0 0 0 0 0 0 0 0 0 0 0 0 0 0 0 0 0 0 0.5019607843137255 0"/><feBlend in="SourceGraphic" in2="colorOut"/></filter><path fill="#fff" d="M161-211c-63 0-91 46-91 110 0 39 17 65 58 64 38-1 60-20 74-45l40 20C220-23 184 0 125 4 9 13-10-144 57-208c33-50 166-62 196-1 4 8 9 18 11 27l-48 12c-6-24-25-41-55-41" id="r"/><path fill="#fff" d="M124-194c51 0 84 22 84 74C207-44 167 4 94 4 43 4 11-23 11-74c0-74 41-120 113-120zM99-30c46 0 58-42 58-86 0-27-11-44-37-44-44 0-55 40-57 84-1 27 10 45 36 46" id="s"/><path fill="#fff" d="M151-194c95 0 34 128 28 194h-49l25-134c0-29-45-25-59-9C67-111 69-48 56 0H6l36-190h47l-4 32c15-20 33-36 66-36" id="t"/><path fill="#fff" d="M144-137c-1-29-70-35-71-2 16 41 103 10 103 80C176 9 79 16 32-9 18-17 9-31 4-48l44-6c3 32 80 36 82 1-15-42-103-11-103-82 0-77 157-79 161-8" id="u"/><path fill="#fff" d="M72-63c-8 23 5 39 32 30L98-1C54 14 12-6 23-64l18-93H15l7-33h28l24-45h31l-8 45h35l-6 33H90" id="v"/><path fill="#fff" d="M166-52c-4 17 5 29 24 23l-3 27c-30 11-74 1-67-34C105-15 91 4 56 4 23 4 3-15 2-49c0-64 63-67 128-67 10-22 3-53-29-45-13 3-22 10-25 24l-46-5c5-64 156-77 153 0-1 33-11 60-17 90zM97-88c-44-9-64 57-19 57 31 0 42-28 47-57H97" id="w"/><path fill="#fff" d="M114-194c63-2 87 48 72 110H63c-3 28 1 55 31 54 21-1 32-13 37-29l44 13C160-14 137 4 91 4 41 4 11-22 11-73c0-71 33-119 103-121zm30 77c14-47-50-61-67-22-3 6-6 13-8 22h75" id="x"/><g id="b"><use transform="matrix(0.06234567901234567,0,0,0.06234567901234567,0,0)" xlink:href="#r"/><use transform="matrix(0.06234567901234567,0,0,0.06234567901234567,16.147530864197527,0)" xlink:href="#s"/><use transform="matrix(0.06234567901234567,0,0,0.06234567901234567,29.80123456790123,0)" xlink:href="#t"/><use transform="matrix(0.06234567901234567,0,0,0.06234567901234567,43.45493827160493,0)" xlink:href="#u"/><use transform="matrix(0.06234567901234567,0,0,0.06234567901234567,55.92407407407406,0)" xlink:href="#v"/><use transform="matrix(0.06234567901234567,0,0,0.06234567901234567,63.3432098765432,0)" xlink:href="#w"/><use transform="matrix(0.06234567901234567,0,0,0.06234567901234567,75.81234567901234,0)" xlink:href="#t"/><use transform="matrix(0.06234567901234567,0,0,0.06234567901234567,89.46604938271604,0)" xlink:href="#v"/><use transform="matrix(0.06234567901234567,0,0,0.06234567901234567,96.88518518518516,0)" xlink:href="#x"/><use transform="matrix(0.06234567901234567,0,0,0.06234567901234567,109.35432098765429,0)" xlink:href="#u"/></g><filter id="c" filterUnits="objectBoundingBox" x="0" y="-.02" width="1.01" height="1.09"><feOffset result="offOut" in="SourceAlpha" dy="6"/><feGaussianBlur result="blurOut" in="offOut" stdDeviation="5"/><feColorMatrix result="colorOut" in="blurOut" values="0 0 0 0 0 0 0 0 0 0 0 0 0 0 0 0 0 0 0.5019607843137255 0"/><feBlend in="SourceGraphic" in2="colorOut"/></filter><path fill="#333" d="M24 0v-248h52v208h133V0H24" id="y"/><path fill="#333" d="M185-48c-13 30-37 53-82 52C43 2 14-33 14-96s30-98 90-98c62 0 83 45 84 108H66c0 31 8 55 39 56 18 0 30-7 34-22zm-45-69c5-46-57-63-70-21-2 6-4 13-4 21h74zm-67-91v-5l45-51h45v8l-60 48H73" id="z"/><path fill="#333" d="M195-6C206 82 75 100 31 46c-4-6-6-13-8-21l49-6c3 16 16 24 34 25 40 0 42-37 40-79-11 22-30 35-61 35-53 0-70-43-70-97 0-56 18-96 73-97 30 0 46 14 59 34l2-30h47zm-90-29c32 0 41-27 41-63 0-35-9-62-40-62-32 0-39 29-40 63 0 36 9 62 39 62" id="A"/><path fill="#333" d="M185-48c-13 30-37 53-82 52C43 2 14-33 14-96s30-98 90-98c62 0 83 45 84 108H66c0 31 8 55 39 56 18 0 30-7 34-22zm-45-69c5-46-57-63-70-21-2 6-4 13-4 21h74" id="B"/><path fill="#333" d="M135-194c87-1 58 113 63 194h-50c-7-57 23-157-34-157-59 0-34 97-39 157H25l-1-190h47c2 12-1 28 3 38 12-26 28-41 61-42" id="C"/><path fill="#333" d="M88-194c31-1 46 15 58 34l-1-101h50l1 261h-48c-2-10 0-23-3-31C134-8 116 4 84 4 32 4 16-41 15-95c0-56 19-97 73-99zm17 164c33 0 40-30 41-66 1-37-9-64-41-64s-38 30-39 65c0 43 13 65 39 65" id="D"/><g id="d"><use transform="matrix(0.09259259259259257,0,0,0.09259259259259257,0,0)" xlink:href="#y"/><use transform="matrix(0.09259259259259257,0,0,0.09259259259259257,20.277777777777775,0)" xlink:href="#z"/><use transform="matrix(0.09259259259259257,0,0,0.09259259259259257,38.79629629629629,0)" xlink:href="#A"/><use transform="matrix(0.09259259259259257,0,0,0.09259259259259257,59.07407407407406,0)" xlink:href="#B"/><use transform="matrix(0.09259259259259257,0,0,0.09259259259259257,77.59259259259258,0)" xlink:href="#C"/><use transform="matrix(0.09259259259259257,0,0,0.09259259259259257,97.87037037037035,0)" xlink:href="#D"/><use transform="matrix(0.09259259259259257,0,0,0.09259259259259257,118.14814814814812,0)" xlink:href="#B"/></g><path fill="#333" d="M35-132v-50h50v50H35zM35 0v-49h50V0H35" id="E"/><use transform="matrix(0.09259259259259257,0,0,0.09259259259259257,0,0)" xlink:href="#E" id="e"/><path fill="#fff" d="M250-142C247-53 197 0 108 0H6l48-248c105-5 200 3 196 106zm-49 2c1-57-42-72-103-68L66-40c84 6 135-22 135-100" id="F"/><path fill="#fff" d="M50-224l7-37h49l-7 37H50zM6 0l37-190h49L55 0H6" id="G"/><path fill="#fff" d="M67-101c-8 29-7 73 27 71 23-2 32-16 39-37l48 9C170-19 141 4 91 4 36 4 7-28 12-86c6-75 61-124 140-103 26 7 40 29 43 59l-50 4c-1-20-9-34-29-34-35 0-41 29-49 59" id="H"/><path fill="#fff" d="M84-151c13-25 34-51 72-40l-8 41C67-170 71-64 56 0H6l36-190h47" id="I"/><g id="f"><use transform="matrix(0.06666679012345679,0,0,0.06666679012345679,0,0)" xlink:href="#F"/><use transform="matrix(0.06666679012345679,0,0,0.06666679012345679,17.26669864197531,0)" xlink:href="#G"/><use transform="matrix(0.06666679012345679,0,0,0.06666679012345679,23.93337765432099,0)" xlink:href="#H"/><use transform="matrix(0.06666679012345679,0,0,0.06666679012345679,37.26673567901234,0)" xlink:href="#v"/><use transform="matrix(0.06666679012345679,0,0,0.06666679012345679,45.200083703703704,0)" xlink:href="#G"/><use transform="matrix(0.06666679012345679,0,0,0.06666679012345679,51.866762716049394,0)" xlink:href="#s"/><use transform="matrix(0.06666679012345679,0,0,0.06666679012345679,66.46678975308643,0)" xlink:href="#t"/><use transform="matrix(0.06666679012345679,0,0,0.06666679012345679,81.06681679012347,0)" xlink:href="#t"/><use transform="matrix(0.06666679012345679,0,0,0.06666679012345679,95.6668438271605,0)" xlink:href="#w"/><use transform="matrix(0.06666679012345679,0,0,0.06666679012345679,109.00020185185187,0)" xlink:href="#G"/><use transform="matrix(0.06666679012345679,0,0,0.06666679012345679,115.66688086419755,0)" xlink:href="#I"/><use transform="matrix(0.06666679012345679,0,0,0.06666679012345679,125.0002314814815,0)" xlink:href="#x"/></g><path fill="#fff" d="M132-28C118-9 101 4 69 4 30 4 10-23 10-62c0-70 24-129 92-132 31-1 47 14 56 35l19-102h49L179 0h-49zM62-69c0 22 7 39 29 39 45-2 54-45 57-90 2-27-10-40-33-40-44 0-53 48-53 91" id="J"/><g id="g"><use transform="matrix(0.06666679012345679,0,0,0.06666679012345679,0,0)" xlink:href="#J"/><use transform="matrix(0.06666679012345679,0,0,0.06666679012345679,14.600027037037037,0)" xlink:href="#x"/></g><path fill="#fff" d="M114-194c63-2 87 48 72 110H63c-3 28 1 55 31 54 21-1 32-13 37-29l44 13C160-14 137 4 91 4 41 4 11-22 11-73c0-71 33-119 103-121zm30 77c14-47-50-61-67-22-3 6-6 13-8 22h75zm-52-91c10-23 30-36 44-56h49l-1 8-67 48H92" id="K"/><path fill="#fff" d="M69 3c-96 0-34-126-28-193h49L65-57c6 42 62 18 71-6 14-38 17-86 28-127h50L178 0h-47c0-11 4-26 3-33-14 20-30 37-65 36" id="L"/><path fill="#fff" d="M6 0l51-261h49L55 0H6" id="M"/><g id="h"><use transform="matrix(0.06666679012345679,0,0,0.06666679012345679,0,0)" xlink:href="#I"/><use transform="matrix(0.06666679012345679,0,0,0.06666679012345679,9.333350617283951,0)" xlink:href="#K"/><use transform="matrix(0.06666679012345679,0,0,0.06666679012345679,22.666708641975312,0)" xlink:href="#u"/><use transform="matrix(0.06666679012345679,0,0,0.06666679012345679,36.00006666666667,0)" xlink:href="#L"/><use transform="matrix(0.06666679012345679,0,0,0.06666679012345679,50.600093703703706,0)" xlink:href="#M"/><use transform="matrix(0.06666679012345679,0,0,0.06666679012345679,57.26677271604939,0)" xlink:href="#v"/><use transform="matrix(0.06666679012345679,0,0,0.06666679012345679,65.20012074074074,0)" xlink:href="#w"/><use transform="matrix(0.06666679012345679,0,0,0.06666679012345679,78.53347876543211,0)" xlink:href="#v"/><use transform="matrix(0.06666679012345679,0,0,0.06666679012345679,86.46682679012346,0)" xlink:href="#u"/></g><g id="i"><use transform="matrix(0.06234567901234567,0,0,0.06234567901234567,0,0)" xlink:href="#r"/><use transform="matrix(0.06234567901234567,0,0,0.06234567901234567,16.147530864197527,0)" xlink:href="#w"/><use transform="matrix(0.06234567901234567,0,0,0.06234567901234567,28.61666666666666,0)" xlink:href="#M"/><use transform="matrix(0.06234567901234567,0,0,0.06234567901234567,34.85123456790123,0)" xlink:href="#H"/><use transform="matrix(0.06234567901234567,0,0,0.06234567901234567,47.32037037037036,0)" xlink:href="#L"/><use transform="matrix(0.06234567901234567,0,0,0.06234567901234567,60.97407407407407,0)" xlink:href="#M"/><use transform="matrix(0.06234567901234567,0,0,0.06234567901234567,67.20864197530864,0)" xlink:href="#K"/></g><path fill="#fff" d="M212 0l43-212L151 0h-37L90-212C82-137 65-70 52 0H6l48-248h70l20 187 93-187h69L258 0h-46" id="N"/><g id="j"><use transform="matrix(0.06234567901234567,0,0,0.06234567901234567,0,0)" xlink:href="#N"/><use transform="matrix(0.06234567901234567,0,0,0.06234567901234567,18.641358024691353,0)" xlink:href="#L"/><use transform="matrix(0.06234567901234567,0,0,0.06234567901234567,32.295061728395055,0)" xlink:href="#u"/><use transform="matrix(0.06234567901234567,0,0,0.06234567901234567,44.76419753086419,0)" xlink:href="#H"/><use transform="matrix(0.06234567901234567,0,0,0.06234567901234567,57.23333333333332,0)" xlink:href="#M"/><use transform="matrix(0.06234567901234567,0,0,0.06234567901234567,63.46790123456789,0)" xlink:href="#x"/></g><g id="k"><use transform="matrix(0.06234567901234567,0,0,0.06234567901234567,0,0)" xlink:href="#r"/><use transform="matrix(0.06234567901234567,0,0,0.06234567901234567,16.147530864197527,0)" xlink:href="#s"/><use transform="matrix(0.06234567901234567,0,0,0.06234567901234567,29.80123456790123,0)" xlink:href="#t"/><use transform="matrix(0.06234567901234567,0,0,0.06234567901234567,43.45493827160493,0)" xlink:href="#u"/><use transform="matrix(0.06234567901234567,0,0,0.06234567901234567,55.92407407407406,0)" xlink:href="#v"/><use transform="matrix(0.06234567901234567,0,0,0.06234567901234567,63.3432098765432,0)" xlink:href="#w"/><use transform="matrix(0.06234567901234567,0,0,0.06234567901234567,75.81234567901234,0)" xlink:href="#t"/><use transform="matrix(0.06234567901234567,0,0,0.06234567901234567,89.46604938271604,0)" xlink:href="#v"/><use transform="matrix(0.06234567901234567,0,0,0.06234567901234567,96.88518518518516,0)" xlink:href="#x"/><use transform="matrix(0.06234567901234567,0,0,0.06234567901234567,109.35432098765429,0)" xlink:href="#u"/></g><path fill="#fff" d="M130 0H70L30-248h54l24 206c31-72 69-137 103-206h54" id="O"/><path fill="#fff" d="M87-160c15-17 32-34 63-34 99 1 59 172-1 192-36 12-78 0-87-29L54 0H6l52-261h49zm71 38c0-24-5-37-29-37-46 0-55 46-57 89-1 25 12 40 35 40 44 0 51-50 51-92" id="P"/><g id="l"><use transform="matrix(0.06234567901234567,0,0,0.06234567901234567,0,0)" xlink:href="#O"/><use transform="matrix(0.06234567901234567,0,0,0.06234567901234567,14.152469135802466,0)" xlink:href="#w"/><use transform="matrix(0.06234567901234567,0,0,0.06234567901234567,26.6216049382716,0)" xlink:href="#I"/><use transform="matrix(0.06234567901234567,0,0,0.06234567901234567,35.349999999999994,0)" xlink:href="#G"/><use transform="matrix(0.06234567901234567,0,0,0.06234567901234567,41.584567901234564,0)" xlink:href="#w"/><use transform="matrix(0.06234567901234567,0,0,0.06234567901234567,54.0537037037037,0)" xlink:href="#P"/><use transform="matrix(0.06234567901234567,0,0,0.06234567901234567,67.7074074074074,0)" xlink:href="#M"/><use transform="matrix(0.06234567901234567,0,0,0.06234567901234567,73.94197530864197,0)" xlink:href="#x"/></g><g id="m"><use transform="matrix(0.06234567901234567,0,0,0.06234567901234567,0,0)" xlink:href="#O"/><use transform="matrix(0.06234567901234567,0,0,0.06234567901234567,14.152469135802466,0)" xlink:href="#w"/><use transform="matrix(0.06234567901234567,0,0,0.06234567901234567,26.6216049382716,0)" xlink:href="#M"/><use transform="matrix(0.06234567901234567,0,0,0.06234567901234567,32.856172839506165,0)" xlink:href="#x"/><use transform="matrix(0.06234567901234567,0,0,0.06234567901234567,45.3253086419753,0)" xlink:href="#L"/><use transform="matrix(0.06234567901234567,0,0,0.06234567901234567,58.979012345678996,0)" xlink:href="#I"/></g><path fill="#fff" d="M156-122c2-23-7-37-28-37-47 0-58 44-58 89 0 24 12 40 36 40 43 0 47-49 50-92zM-8 75l50-265h48c0 10-3 24-3 30 22-50 127-45 121 29-6 73-21 135-92 135-29 0-46-14-55-35L41 75H-8" id="Q"/><g id="n"><use transform="matrix(0.06234567901234567,0,0,0.06234567901234567,0,0)" xlink:href="#Q"/><use transform="matrix(0.06234567901234567,0,0,0.06234567901234567,13.653703703703702,0)" xlink:href="#w"/><use transform="matrix(0.06234567901234567,0,0,0.06234567901234567,26.122839506172834,0)" xlink:href="#I"/></g><path fill="#fff" d="M93-157L62 0H13l31-157H16l6-33h28c2-54 40-81 100-68l-6 32c-29-8-44 9-45 36h38l-7 33H93" id="R"/><g id="o"><use transform="matrix(0.06234567901234567,0,0,0.06234567901234567,0,0)" xlink:href="#J"/><use transform="matrix(0.06234567901234567,0,0,0.06234567901234567,13.653703703703702,0)" xlink:href="#K"/><use transform="matrix(0.06234567901234567,0,0,0.06234567901234567,26.122839506172834,0)" xlink:href="#R"/><use transform="matrix(0.06234567901234567,0,0,0.06234567901234567,33.541975308641966,0)" xlink:href="#w"/><use transform="matrix(0.06234567901234567,0,0,0.06234567901234567,46.0111111111111,0)" xlink:href="#L"/><use transform="matrix(0.06234567901234567,0,0,0.06234567901234567,59.664814814814804,0)" xlink:href="#v"/></g><path fill="#fff" d="M6 0l48-248h52L58 0H6" id="S"/><path fill="#fff" d="M255-194c90 0 29 129 24 194h-49l25-136c-7-39-53-14-60 9-12 38-18 85-28 127h-49l25-136c2-29-39-23-50-7C69-108 68-47 56 0H6l36-190h48c-1 10-6 24-4 32 12-20 27-36 57-36s46 15 50 41c14-21 29-41 62-41" id="T"/><g id="p"><use transform="matrix(0.06234567901234567,0,0,0.06234567901234567,0,0)" xlink:href="#S"/><use transform="matrix(0.06234567901234567,0,0,0.06234567901234567,6.234567901234566,0)" xlink:href="#t"/><use transform="matrix(0.06234567901234567,0,0,0.06234567901234567,19.888271604938268,0)" xlink:href="#R"/><use transform="matrix(0.06234567901234567,0,0,0.06234567901234567,27.307407407407403,0)" xlink:href="#s"/><use transform="matrix(0.06234567901234567,0,0,0.06234567901234567,40.96111111111111,0)" xlink:href="#I"/><use transform="matrix(0.06234567901234567,0,0,0.06234567901234567,49.6895061728395,0)" xlink:href="#T"/><use transform="matrix(0.06234567901234567,0,0,0.06234567901234567,69.64012345679012,0)" xlink:href="#w"/><use transform="matrix(0.06234567901234567,0,0,0.06234567901234567,82.10925925925926,0)" xlink:href="#v"/><use transform="matrix(0.06234567901234567,0,0,0.06234567901234567,89.52839506172839,0)" xlink:href="#G"/><use transform="matrix(0.06234567901234567,0,0,0.06234567901234567,95.76296296296296,0)" xlink:href="#s"/><use transform="matrix(0.06234567901234567,0,0,0.06234567901234567,109.41666666666666,0)" xlink:href="#t"/></g><g id="q"><use transform="matrix(0.06234567901234567,0,0,0.06234567901234567,0,0)" xlink:href="#u"/><use transform="matrix(0.06234567901234567,0,0,0.06234567901234567,12.469135802469133,0)" xlink:href="#L"/><use transform="matrix(0.06234567901234567,0,0,0.06234567901234567,26.122839506172834,0)" xlink:href="#Q"/><use transform="matrix(0.06234567901234567,0,0,0.06234567901234567,39.776543209876536,0)" xlink:href="#Q"/><use transform="matrix(0.06234567901234567,0,0,0.06234567901234567,53.430246913580234,0)" xlink:href="#M"/><use transform="matrix(0.06234567901234567,0,0,0.06234567901234567,59.664814814814804,0)" xlink:href="#K"/><use transform="matrix(0.06234567901234567,0,0,0.06234567901234567,72.13395061728394,0)" xlink:href="#T"/><use transform="matrix(0.06234567901234567,0,0,0.06234567901234567,92.08456790123455,0)" xlink:href="#x"/><use transform="matrix(0.06234567901234567,0,0,0.06234567901234567,104.55370370370369,0)" xlink:href="#t"/><use transform="matrix(0.06234567901234567,0,0,0.06234567901234567,118.20740740740739,0)" xlink:href="#v"/><use transform="matrix(0.06234567901234567,0,0,0.06234567901234567,125.62654320987652,0)" xlink:href="#w"/><use transform="matrix(0.06234567901234567,0,0,0.06234567901234567,138.09567901234564,0)" xlink:href="#G"/><use transform="matrix(0.06234567901234567,0,0,0.06234567901234567,144.3302469135802,0)" xlink:href="#I"/><use transform="matrix(0.06234567901234567,0,0,0.06234567901234567,153.0586419753086,0)" xlink:href="#x"/><use transform="matrix(0.06234567901234567,0,0,0.06234567901234567,165.52777777777774,0)" xlink:href="#u"/></g></defs></g></svg>