<svg xmlns="http://www.w3.org/2000/svg" xmlns:xlink="http://www.w3.org/1999/xlink" xmlns:lucid="lucid" width="2393" height="514"><g transform="translate(4796 4292)" lucid:page-tab-id="0_0"><path d="M-5000-4500h8000v7000h-8000z" fill="#fff"/><path d="M-4660-4108a12 12 0 0 1 12-12h2136a12 12 0 0 1 12 12v216a12 12 0 0 1-12 12h-2136a12 12 0 0 1-12-12z" stroke="#000" stroke-opacity="0" stroke-width="2" fill="#fafafa" filter="url(#a)"/><path d="M-4660-4120h260v60h-260z" stroke="#000" stroke-opacity="0" stroke-width="2" fill="#fff" fill-opacity="0"/><use xlink:href="#b" transform="matrix(1,0,0,1,-4654.999999999999,-4115) translate(46.5277777777778 33.041666666666664)"/><use xlink:href="#c" transform="matrix(1,0,0,1,-4654.999999999999,-4115) translate(192.4537037037037 33.041666666666664)"/><path d="M-2861.5-4032a8 8 0 0 1 8-8h304.63a8 8 0 0 1 8 8v76.42a8 8 0 0 1-8 8h-304.63a8 8 0 0 1-8-8z" stroke="#000" stroke-opacity="0" stroke-width="2" fill="#fc9432"/><use xlink:href="#d" transform="matrix(1,0,0,1,-2856.5,-4035.0000000000005) translate(14.255864197530883 33.51805555555555)"/><use xlink:href="#e" transform="matrix(1,0,0,1,-2856.5,-4035.0000000000005) translate(126.16635802469136 33.51805555555555)"/><use xlink:href="#f" transform="matrix(1,0,0,1,-2856.5,-4035.0000000000005) translate(144.87006172839506 33.51805555555555)"/><use xlink:href="#g" transform="matrix(1,0,0,1,-2856.5,-4035.0000000000005) translate(219.5601851851852 33.51805555555555)"/><use xlink:href="#h" transform="matrix(1,0,0,1,-2856.5,-4035.0000000000005) translate(278.04043209876545 33.51805555555555)"/><use xlink:href="#i" transform="matrix(1,0,0,1,-2856.5,-4035.0000000000005) translate(38.04074074074077 60.451388888888886)"/><use xlink:href="#j" transform="matrix(1,0,0,1,-2856.5,-4035.0000000000005) translate(132.4320987654321 60.451388888888886)"/><use xlink:href="#k" transform="matrix(1,0,0,1,-2856.5,-4035.0000000000005) translate(164.7895061728395 60.451388888888886)"/><path d="M-3740.75-4032a8 8 0 0 1 8-8h304.63a8 8 0 0 1 8 8v76.42a8 8 0 0 1-8 8h-304.63a8 8 0 0 1-8-8z" stroke="#000" stroke-opacity="0" stroke-width="2" fill="#54c45e"/><g><use xlink:href="#l" transform="matrix(1,0,0,1,-3735.75,-4035.0000000000005) translate(59.67469135802472 46.48680555555555)"/><use xlink:href="#m" transform="matrix(1,0,0,1,-3735.75,-4035.0000000000005) translate(106.99506172839507 46.48680555555555)"/><use xlink:href="#n" transform="matrix(1,0,0,1,-3735.75,-4035.0000000000005) translate(139.35246913580247 46.48680555555555)"/></g><path d="M-3301.13-4032a8 8 0 0 1 8-8h304.63a8 8 0 0 1 8 8v76.42a8 8 0 0 1-8 8h-304.63a8 8 0 0 1-8-8z" stroke="#000" stroke-opacity="0" stroke-width="2" fill="#ba23f6"/><g><use xlink:href="#o" transform="matrix(1,0,0,1,-3296.125,-4035.0000000000005) translate(106.05987654320988 46.48680555555555)"/></g><path d="M-4620-4032a8 8 0 0 1 8-8h304.63a8 8 0 0 1 8 8v76.42a8 8 0 0 1-8 8H-4612a8 8 0 0 1-8-8z" stroke="#000" stroke-opacity="0" stroke-width="2" fill="#e81313"/><g><use xlink:href="#p" transform="matrix(1,0,0,1,-4615,-4035.0000000000005) translate(15.799741296296276 45.13753555555556)"/><use xlink:href="#q" transform="matrix(1,0,0,1,-4615,-4035.0000000000005) translate(160.8000098148148 45.13753555555556)"/><use xlink:href="#r" transform="matrix(1,0,0,1,-4615,-4035.0000000000005) translate(195.4000738888889 45.13753555555556)"/></g><path d="M-4180.38-4032a8 8 0 0 1 8-8h304.63a8 8 0 0 1 8 8v76.42a8 8 0 0 1-8 8h-304.63a8 8 0 0 1-8-8z" stroke="#000" stroke-opacity="0" stroke-width="2" fill="#1071e5"/><g><use xlink:href="#s" transform="matrix(1,0,0,1,-4175.375,-4035.0000000000005) translate(92.03209876543212 46.48680555555555)"/></g><defs><filter id="a" filterUnits="objectBoundingBox" x="0" y="-.02" width="1.01" height="1.08"><feOffset result="offOut" in="SourceAlpha" dy="6"/><feGaussianBlur result="blurOut" in="offOut" stdDeviation="5"/><feColorMatrix result="colorOut" in="blurOut" values="0 0 0 0 0 0 0 0 0 0 0 0 0 0 0 0 0 0 0.5019607843137255 0"/><feBlend in="SourceGraphic" in2="colorOut"/></filter><path fill="#333" d="M24 0v-248h52v208h133V0H24" id="t"/><path fill="#333" d="M185-48c-13 30-37 53-82 52C43 2 14-33 14-96s30-98 90-98c62 0 83 45 84 108H66c0 31 8 55 39 56 18 0 30-7 34-22zm-45-69c5-46-57-63-70-21-2 6-4 13-4 21h74zm-67-91v-5l45-51h45v8l-60 48H73" id="u"/><path fill="#333" d="M195-6C206 82 75 100 31 46c-4-6-6-13-8-21l49-6c3 16 16 24 34 25 40 0 42-37 40-79-11 22-30 35-61 35-53 0-70-43-70-97 0-56 18-96 73-97 30 0 46 14 59 34l2-30h47zm-90-29c32 0 41-27 41-63 0-35-9-62-40-62-32 0-39 29-40 63 0 36 9 62 39 62" id="v"/><path fill="#333" d="M185-48c-13 30-37 53-82 52C43 2 14-33 14-96s30-98 90-98c62 0 83 45 84 108H66c0 31 8 55 39 56 18 0 30-7 34-22zm-45-69c5-46-57-63-70-21-2 6-4 13-4 21h74" id="w"/><path fill="#333" d="M135-194c87-1 58 113 63 194h-50c-7-57 23-157-34-157-59 0-34 97-39 157H25l-1-190h47c2 12-1 28 3 38 12-26 28-41 61-42" id="x"/><path fill="#333" d="M88-194c31-1 46 15 58 34l-1-101h50l1 261h-48c-2-10 0-23-3-31C134-8 116 4 84 4 32 4 16-41 15-95c0-56 19-97 73-99zm17 164c33 0 40-30 41-66 1-37-9-64-41-64s-38 30-39 65c0 43 13 65 39 65" id="y"/><g id="b"><use transform="matrix(0.09259259259259257,0,0,0.09259259259259257,0,0)" xlink:href="#t"/><use transform="matrix(0.09259259259259257,0,0,0.09259259259259257,20.277777777777775,0)" xlink:href="#u"/><use transform="matrix(0.09259259259259257,0,0,0.09259259259259257,38.79629629629629,0)" xlink:href="#v"/><use transform="matrix(0.09259259259259257,0,0,0.09259259259259257,59.07407407407406,0)" xlink:href="#w"/><use transform="matrix(0.09259259259259257,0,0,0.09259259259259257,77.59259259259258,0)" xlink:href="#x"/><use transform="matrix(0.09259259259259257,0,0,0.09259259259259257,97.87037037037035,0)" xlink:href="#y"/><use transform="matrix(0.09259259259259257,0,0,0.09259259259259257,118.14814814814812,0)" xlink:href="#w"/></g><path fill="#333" d="M35-132v-50h50v50H35zM35 0v-49h50V0H35" id="z"/><use transform="matrix(0.09259259259259257,0,0,0.09259259259259257,0,0)" xlink:href="#z" id="c"/><path fill="#fff" d="M183 0l-10-63H79L44 0H-7l138-248h61L234 0h-51zm-14-102l-15-108c-16 38-36 73-55 108h70" id="A"/><path fill="#fff" d="M84-151c13-25 34-51 72-40l-8 41C67-170 71-64 56 0H6l36-190h47" id="B"/><path fill="#fff" d="M45-171c29-32 103-29 114 14 2-11 5-23 8-33h47L176-2c-3 70-92 96-155 64C9 56 1 42-1 25l50-5c2 28 48 27 63 11 13-13 20-45 21-66-13 20-30 35-62 36-87 3-60-134-26-172zM94-35c41-3 55-43 55-86 0-24-12-39-35-39-43 0-51 48-51 90 0 22 9 37 31 35" id="C"/><path fill="#fff" d="M69 3c-96 0-34-126-28-193h49L65-57c6 42 62 18 71-6 14-38 17-86 28-127h50L178 0h-47c0-11 4-26 3-33-14 20-30 37-65 36" id="D"/><path fill="#fff" d="M255-194c90 0 29 129 24 194h-49l25-136c-7-39-53-14-60 9-12 38-18 85-28 127h-49l25-136c2-29-39-23-50-7C69-108 68-47 56 0H6l36-190h48c-1 10-6 24-4 32 12-20 27-36 57-36s46 15 50 41c14-21 29-41 62-41" id="E"/><path fill="#fff" d="M114-194c63-2 87 48 72 110H63c-3 28 1 55 31 54 21-1 32-13 37-29l44 13C160-14 137 4 91 4 41 4 11-22 11-73c0-71 33-119 103-121zm30 77c14-47-50-61-67-22-3 6-6 13-8 22h75" id="F"/><path fill="#fff" d="M151-194c95 0 34 128 28 194h-49l25-134c0-29-45-25-59-9C67-111 69-48 56 0H6l36-190h47l-4 32c15-20 33-36 66-36" id="G"/><path fill="#fff" d="M72-63c-8 23 5 39 32 30L98-1C54 14 12-6 23-64l18-93H15l7-33h28l24-45h31l-8 45h35l-6 33H90" id="H"/><g id="d"><use transform="matrix(0.06234567901234567,0,0,0.06234567901234567,0,0)" xlink:href="#A"/><use transform="matrix(0.06234567901234567,0,0,0.06234567901234567,16.147530864197527,0)" xlink:href="#B"/><use transform="matrix(0.06234567901234567,0,0,0.06234567901234567,24.87592592592592,0)" xlink:href="#C"/><use transform="matrix(0.06234567901234567,0,0,0.06234567901234567,38.529629629629625,0)" xlink:href="#D"/><use transform="matrix(0.06234567901234567,0,0,0.06234567901234567,52.18333333333332,0)" xlink:href="#E"/><use transform="matrix(0.06234567901234567,0,0,0.06234567901234567,72.13395061728394,0)" xlink:href="#F"/><use transform="matrix(0.06234567901234567,0,0,0.06234567901234567,84.60308641975308,0)" xlink:href="#G"/><use transform="matrix(0.06234567901234567,0,0,0.06234567901234567,98.25679012345678,0)" xlink:href="#H"/></g><path fill="#fff" d="M166-52c-4 17 5 29 24 23l-3 27c-30 11-74 1-67-34C105-15 91 4 56 4 23 4 3-15 2-49c0-64 63-67 128-67 10-22 3-53-29-45-13 3-22 10-25 24l-46-5c5-64 156-77 153 0-1 33-11 60-17 90zM97-88c-44-9-64 57-19 57 31 0 42-28 47-57H97zm26-120l-54-48 1-8h46l34 51c-1 10-18 3-27 5" id="I"/><use transform="matrix(0.06234567901234567,0,0,0.06234567901234567,0,0)" xlink:href="#I" id="e"/><g id="f"><use transform="matrix(0.06234567901234567,0,0,0.06234567901234567,0,0)" xlink:href="#E"/><use transform="matrix(0.06234567901234567,0,0,0.06234567901234567,19.950617283950614,0)" xlink:href="#F"/><use transform="matrix(0.06234567901234567,0,0,0.06234567901234567,32.419753086419746,0)" xlink:href="#H"/><use transform="matrix(0.06234567901234567,0,0,0.06234567901234567,39.83888888888888,0)" xlink:href="#H"/><use transform="matrix(0.06234567901234567,0,0,0.06234567901234567,47.25802469135802,0)" xlink:href="#B"/><use transform="matrix(0.06234567901234567,0,0,0.06234567901234567,55.98641975308641,0)" xlink:href="#F"/></g><path fill="#fff" d="M132-28C118-9 101 4 69 4 30 4 10-23 10-62c0-70 24-129 92-132 31-1 47 14 56 35l19-102h49L179 0h-49zM62-69c0 22 7 39 29 39 45-2 54-45 57-90 2-27-10-40-33-40-44 0-53 48-53 91" id="J"/><path fill="#fff" d="M166-52c-4 17 5 29 24 23l-3 27c-30 11-74 1-67-34C105-15 91 4 56 4 23 4 3-15 2-49c0-64 63-67 128-67 10-22 3-53-29-45-13 3-22 10-25 24l-46-5c5-64 156-77 153 0-1 33-11 60-17 90zM97-88c-44-9-64 57-19 57 31 0 42-28 47-57H97" id="K"/><path fill="#fff" d="M144-137c-1-29-70-35-71-2 16 41 103 10 103 80C176 9 79 16 32-9 18-17 9-31 4-48l44-6c3 32 80 36 82 1-15-42-103-11-103-82 0-77 157-79 161-8" id="L"/><g id="g"><use transform="matrix(0.06234567901234567,0,0,0.06234567901234567,0,0)" xlink:href="#J"/><use transform="matrix(0.06234567901234567,0,0,0.06234567901234567,13.653703703703702,0)" xlink:href="#K"/><use transform="matrix(0.06234567901234567,0,0,0.06234567901234567,26.122839506172834,0)" xlink:href="#G"/><use transform="matrix(0.06234567901234567,0,0,0.06234567901234567,39.776543209876536,0)" xlink:href="#L"/></g><path fill="#fff" d="M6 0l51-261h49L55 0H6" id="M"/><g id="h"><use transform="matrix(0.06234567901234567,0,0,0.06234567901234567,0,0)" xlink:href="#M"/><use transform="matrix(0.06234567901234567,0,0,0.06234567901234567,6.234567901234566,0)" xlink:href="#K"/></g><path fill="#fff" d="M93-157L62 0H13l31-157H16l6-33h28c2-54 40-81 100-68l-6 32c-29-8-44 9-45 36h38l-7 33H93" id="N"/><path fill="#fff" d="M124-194c51 0 84 22 84 74C207-44 167 4 94 4 43 4 11-23 11-74c0-74 41-120 113-120zM99-30c46 0 58-42 58-86 0-27-11-44-37-44-44 0-55 40-57 84-1 27 10 45 36 46" id="O"/><path fill="#fff" d="M67-101c-8 29-7 73 27 71 23-2 32-16 39-37l48 9C170-19 141 4 91 4 36 4 7-28 12-86c6-75 61-124 140-103 26 7 40 29 43 59l-50 4c-1-20-9-34-29-34-35 0-41 29-49 59" id="P"/><path fill="#fff" d="M50-224l7-37h49l-7 37H50zM6 0l37-190h49L55 0H6" id="Q"/><g id="i"><use transform="matrix(0.06234567901234567,0,0,0.06234567901234567,0,0)" xlink:href="#N"/><use transform="matrix(0.06234567901234567,0,0,0.06234567901234567,7.4191358024691345,0)" xlink:href="#O"/><use transform="matrix(0.06234567901234567,0,0,0.06234567901234567,21.072839506172837,0)" xlink:href="#G"/><use transform="matrix(0.06234567901234567,0,0,0.06234567901234567,34.72654320987654,0)" xlink:href="#P"/><use transform="matrix(0.06234567901234567,0,0,0.06234567901234567,47.19567901234567,0)" xlink:href="#H"/><use transform="matrix(0.06234567901234567,0,0,0.06234567901234567,54.61481481481481,0)" xlink:href="#Q"/><use transform="matrix(0.06234567901234567,0,0,0.06234567901234567,60.84938271604938,0)" xlink:href="#O"/><use transform="matrix(0.06234567901234567,0,0,0.06234567901234567,74.50308641975307,0)" xlink:href="#G"/></g><g id="j"><use transform="matrix(0.06234567901234567,0,0,0.06234567901234567,0,0)" xlink:href="#J"/><use transform="matrix(0.06234567901234567,0,0,0.06234567901234567,13.653703703703702,0)" xlink:href="#F"/></g><path fill="#fff" d="M156-122c2-23-7-37-28-37-47 0-58 44-58 89 0 24 12 40 36 40 43 0 47-49 50-92zM-8 75l50-265h48c0 10-3 24-3 30 22-50 127-45 121 29-6 73-21 135-92 135-29 0-46-14-55-35L41 75H-8" id="R"/><path fill="#fff" d="M150-105c8-23 8-54-22-51-68 7-54 98-72 156H6l50-261h50L85-158c15-20 33-36 66-36 95 0 34 128 28 194h-49" id="S"/><path fill="#fff" d="M102-194c32-2 46 14 56 35 2-10 4-23 8-31h48L161 75h-49l21-104C119-9 101 4 69 4 31 4 10-22 10-61c0-70 24-129 92-133zM63-82c-3 28 2 52 28 52 46-1 55-45 57-90 1-24-7-40-30-40-43 0-50 40-55 78" id="T"/><g id="k"><use transform="matrix(0.06234567901234567,0,0,0.06234567901234567,0,0)" xlink:href="#C"/><use transform="matrix(0.06234567901234567,0,0,0.06234567901234567,13.653703703703702,0)" xlink:href="#B"/><use transform="matrix(0.06234567901234567,0,0,0.06234567901234567,22.382098765432097,0)" xlink:href="#K"/><use transform="matrix(0.06234567901234567,0,0,0.06234567901234567,34.85123456790123,0)" xlink:href="#R"/><use transform="matrix(0.06234567901234567,0,0,0.06234567901234567,48.50493827160493,0)" xlink:href="#S"/><use transform="matrix(0.06234567901234567,0,0,0.06234567901234567,62.158641975308626,0)" xlink:href="#Q"/><use transform="matrix(0.06234567901234567,0,0,0.06234567901234567,68.3932098765432,0)" xlink:href="#T"/><use transform="matrix(0.06234567901234567,0,0,0.06234567901234567,82.0469135802469,0)" xlink:href="#D"/><use transform="matrix(0.06234567901234567,0,0,0.06234567901234567,95.70061728395059,0)" xlink:href="#F"/></g><path fill="#fff" d="M161-211c-63 0-91 46-91 110 0 39 17 65 58 64 38-1 60-20 74-45l40 20C220-23 184 0 125 4 9 13-10-144 57-208c33-50 166-62 196-1 4 8 9 18 11 27l-48 12c-6-24-25-41-55-41" id="U"/><g id="l"><use transform="matrix(0.06234567901234567,0,0,0.06234567901234567,0,0)" xlink:href="#U"/><use transform="matrix(0.06234567901234567,0,0,0.06234567901234567,16.147530864197527,0)" xlink:href="#K"/><use transform="matrix(0.06234567901234567,0,0,0.06234567901234567,28.61666666666666,0)" xlink:href="#L"/></g><g id="m"><use transform="matrix(0.06234567901234567,0,0,0.06234567901234567,0,0)" xlink:href="#J"/><use transform="matrix(0.06234567901234567,0,0,0.06234567901234567,13.653703703703702,0)" xlink:href="#F"/></g><g id="n"><use transform="matrix(0.06234567901234567,0,0,0.06234567901234567,0,0)" xlink:href="#L"/><use transform="matrix(0.06234567901234567,0,0,0.06234567901234567,12.469135802469133,0)" xlink:href="#Q"/><use transform="matrix(0.06234567901234567,0,0,0.06234567901234567,18.7037037037037,0)" xlink:href="#E"/><use transform="matrix(0.06234567901234567,0,0,0.06234567901234567,38.654320987654316,0)" xlink:href="#D"/><use transform="matrix(0.06234567901234567,0,0,0.06234567901234567,52.308024691358014,0)" xlink:href="#M"/><use transform="matrix(0.06234567901234567,0,0,0.06234567901234567,58.542592592592584,0)" xlink:href="#K"/><use transform="matrix(0.06234567901234567,0,0,0.06234567901234567,71.01172839506171,0)" xlink:href="#H"/><use transform="matrix(0.06234567901234567,0,0,0.06234567901234567,78.43086419753084,0)" xlink:href="#Q"/><use transform="matrix(0.06234567901234567,0,0,0.06234567901234567,84.66543209876541,0)" xlink:href="#O"/><use transform="matrix(0.06234567901234567,0,0,0.06234567901234567,98.3191358024691,0)" xlink:href="#G"/></g><path fill="#fff" d="M130 0H70L30-248h54l24 206c31-72 69-137 103-206h54" id="V"/><path fill="#fff" d="M87-160c15-17 32-34 63-34 99 1 59 172-1 192-36 12-78 0-87-29L54 0H6l52-261h49zm71 38c0-24-5-37-29-37-46 0-55 46-57 89-1 25 12 40 35 40 44 0 51-50 51-92" id="W"/><g id="o"><use transform="matrix(0.06234567901234567,0,0,0.06234567901234567,0,0)" xlink:href="#V"/><use transform="matrix(0.06234567901234567,0,0,0.06234567901234567,14.152469135802466,0)" xlink:href="#K"/><use transform="matrix(0.06234567901234567,0,0,0.06234567901234567,26.6216049382716,0)" xlink:href="#B"/><use transform="matrix(0.06234567901234567,0,0,0.06234567901234567,35.349999999999994,0)" xlink:href="#Q"/><use transform="matrix(0.06234567901234567,0,0,0.06234567901234567,41.584567901234564,0)" xlink:href="#K"/><use transform="matrix(0.06234567901234567,0,0,0.06234567901234567,54.0537037037037,0)" xlink:href="#W"/><use transform="matrix(0.06234567901234567,0,0,0.06234567901234567,67.7074074074074,0)" xlink:href="#M"/><use transform="matrix(0.06234567901234567,0,0,0.06234567901234567,73.94197530864197,0)" xlink:href="#F"/><use transform="matrix(0.06234567901234567,0,0,0.06234567901234567,86.4111111111111,0)" xlink:href="#L"/></g><path fill="#fff" d="M250-142C247-53 197 0 108 0H6l48-248c105-5 200 3 196 106zm-49 2c1-57-42-72-103-68L66-40c84 6 135-22 135-100" id="X"/><g id="p"><use transform="matrix(0.06666679012345679,0,0,0.06666679012345679,0,0)" xlink:href="#X"/><use transform="matrix(0.06666679012345679,0,0,0.06666679012345679,17.26669864197531,0)" xlink:href="#Q"/><use transform="matrix(0.06666679012345679,0,0,0.06666679012345679,23.93337765432099,0)" xlink:href="#P"/><use transform="matrix(0.06666679012345679,0,0,0.06666679012345679,37.26673567901234,0)" xlink:href="#H"/><use transform="matrix(0.06666679012345679,0,0,0.06666679012345679,45.200083703703704,0)" xlink:href="#Q"/><use transform="matrix(0.06666679012345679,0,0,0.06666679012345679,51.866762716049394,0)" xlink:href="#O"/><use transform="matrix(0.06666679012345679,0,0,0.06666679012345679,66.46678975308643,0)" xlink:href="#G"/><use transform="matrix(0.06666679012345679,0,0,0.06666679012345679,81.06681679012347,0)" xlink:href="#G"/><use transform="matrix(0.06666679012345679,0,0,0.06666679012345679,95.6668438271605,0)" xlink:href="#K"/><use transform="matrix(0.06666679012345679,0,0,0.06666679012345679,109.00020185185187,0)" xlink:href="#Q"/><use transform="matrix(0.06666679012345679,0,0,0.06666679012345679,115.66688086419755,0)" xlink:href="#B"/><use transform="matrix(0.06666679012345679,0,0,0.06666679012345679,125.0002314814815,0)" xlink:href="#F"/></g><g id="q"><use transform="matrix(0.06666679012345679,0,0,0.06666679012345679,0,0)" xlink:href="#J"/><use transform="matrix(0.06666679012345679,0,0,0.06666679012345679,14.600027037037037,0)" xlink:href="#F"/></g><path fill="#fff" d="M114-194c63-2 87 48 72 110H63c-3 28 1 55 31 54 21-1 32-13 37-29l44 13C160-14 137 4 91 4 41 4 11-22 11-73c0-71 33-119 103-121zm30 77c14-47-50-61-67-22-3 6-6 13-8 22h75zm-52-91c10-23 30-36 44-56h49l-1 8-67 48H92" id="Y"/><g id="r"><use transform="matrix(0.06666679012345679,0,0,0.06666679012345679,0,0)" xlink:href="#B"/><use transform="matrix(0.06666679012345679,0,0,0.06666679012345679,9.333350617283951,0)" xlink:href="#Y"/><use transform="matrix(0.06666679012345679,0,0,0.06666679012345679,22.666708641975312,0)" xlink:href="#L"/><use transform="matrix(0.06666679012345679,0,0,0.06666679012345679,36.00006666666667,0)" xlink:href="#D"/><use transform="matrix(0.06666679012345679,0,0,0.06666679012345679,50.600093703703706,0)" xlink:href="#M"/><use transform="matrix(0.06666679012345679,0,0,0.06666679012345679,57.26677271604939,0)" xlink:href="#H"/><use transform="matrix(0.06666679012345679,0,0,0.06666679012345679,65.20012074074074,0)" xlink:href="#K"/><use transform="matrix(0.06666679012345679,0,0,0.06666679012345679,78.53347876543211,0)" xlink:href="#H"/><use transform="matrix(0.06666679012345679,0,0,0.06666679012345679,86.46682679012346,0)" xlink:href="#L"/></g><path fill="#fff" d="M178-136c88 48 22 151-73 140C49-3 12-15 4-64l51-9c1 50 111 53 115 3-16-63-132-20-133-112 0-93 190-91 199-10l-50 12c-4-41-93-50-97-4 7 38 59 32 89 48" id="Z"/><g id="s"><use transform="matrix(0.06234567901234567,0,0,0.06234567901234567,0,0)" xlink:href="#Z"/><use transform="matrix(0.06234567901234567,0,0,0.06234567901234567,14.96296296296296,0)" xlink:href="#Q"/><use transform="matrix(0.06234567901234567,0,0,0.06234567901234567,21.197530864197525,0)" xlink:href="#E"/><use transform="matrix(0.06234567901234567,0,0,0.06234567901234567,41.14814814814814,0)" xlink:href="#D"/><use transform="matrix(0.06234567901234567,0,0,0.06234567901234567,54.801851851851836,0)" xlink:href="#M"/><use transform="matrix(0.06234567901234567,0,0,0.06234567901234567,61.036419753086406,0)" xlink:href="#K"/><use transform="matrix(0.06234567901234567,0,0,0.06234567901234567,73.50555555555553,0)" xlink:href="#H"/><use transform="matrix(0.06234567901234567,0,0,0.06234567901234567,80.92469135802466,0)" xlink:href="#Q"/><use transform="matrix(0.06234567901234567,0,0,0.06234567901234567,87.15925925925923,0)" xlink:href="#O"/><use transform="matrix(0.06234567901234567,0,0,0.06234567901234567,100.81296296296293,0)" xlink:href="#G"/><use transform="matrix(0.06234567901234567,0,0,0.06234567901234567,114.46666666666663,0)" xlink:href="#L"/></g></defs></g></svg>