<svg xmlns="http://www.w3.org/2000/svg" xmlns:xlink="http://www.w3.org/1999/xlink" xmlns:lucid="lucid" width="2014" height="883"><g transform="translate(3846 1762)" lucid:page-tab-id="0_0"><path d="M-5000-4500h8500v7000h-8500z" fill="#fff"/><path d="M-4680-3697.36a6 6 0 0 1 6-6h2848.76a6 6 0 0 1 6 6V-886a6 6 0 0 1-6 6H-4674a6 6 0 0 1-6-6z" stroke="#5e5e5e" stroke-width="3" fill="#fff"/><path d="M-3780.67-2114.36a6 6 0 0 1 6-6h1858a6 6 0 0 1 6 6v328a6 6 0 0 1-6 6h-1858a6 6 0 0 1-6-6zM-3780-1673.36a6 6 0 0 1 6-6h1858a6 6 0 0 1 6 6v729a6 6 0 0 1-6 6h-1858a6 6 0 0 1-6-6z" stroke="#5e5e5e" stroke-width="3" fill="#fff"/><path d="M-3092.18-1484.87a8 8 0 0 1 8-8h244a8 8 0 0 1 8 8v74.16a8 8 0 0 1-8 8h-244a8 8 0 0 1-8-8z" stroke="#000" stroke-opacity="0" stroke-width="2" fill="#e81313"/><use xlink:href="#a" transform="matrix(1,0,0,1,-3087.1759074081974,-1487.874080114988) translate(55.833205246913565 21.73128555555556)"/><use xlink:href="#b" transform="matrix(1,0,0,1,-3087.1759074081974,-1487.874080114988) translate(56.033205617283926 47.41122020206773)"/><use xlink:href="#c" transform="matrix(1,0,0,1,-3087.1759074081974,-1487.874080114988) translate(179.96676845679013 47.41122020206773)"/><use xlink:href="#d" transform="matrix(1,0,0,1,-3087.1759074081974,-1487.874080114988) translate(40.36650993827159 73.0911548485799)"/><path d="M-3092.18-1285.98a8 8 0 0 1 8-8h244a8 8 0 0 1 8 8v74.15a8 8 0 0 1-8 8h-244a8 8 0 0 1-8-8z" stroke="#000" stroke-opacity="0" stroke-width="2" fill="#e81313"/><use xlink:href="#a" transform="matrix(1,0,0,1,-3087.1759074081974,-1288.9854029109815) translate(55.833205246913565 21.73128555555556)"/><use xlink:href="#e" transform="matrix(1,0,0,1,-3087.1759074081974,-1288.9854029109815) translate(56.033205617283926 47.41122020206773)"/><use xlink:href="#c" transform="matrix(1,0,0,1,-3087.1759074081974,-1288.9854029109815) translate(179.96676845679013 47.41122020206773)"/><use xlink:href="#d" transform="matrix(1,0,0,1,-3087.1759074081974,-1288.9854029109815) translate(40.36650993827159 73.0911548485799)"/><path d="M-3092.18-1097.93a8 8 0 0 1 8-8h244a8 8 0 0 1 8 8v74.16a8 8 0 0 1-8 8h-244a8 8 0 0 1-8-8z" stroke="#000" stroke-opacity="0" stroke-width="2" fill="#e81313"/><use xlink:href="#a" transform="matrix(1,0,0,1,-3087.1759074081974,-1100.9260470956397) translate(55.833205246913565 21.73128555555556)"/><use xlink:href="#f" transform="matrix(1,0,0,1,-3087.1759074081974,-1100.9260470956397) translate(56.033205617283926 47.41122020206773)"/><use xlink:href="#c" transform="matrix(1,0,0,1,-3087.1759074081974,-1100.9260470956397) translate(179.96676845679013 47.41122020206773)"/><use xlink:href="#d" transform="matrix(1,0,0,1,-3087.1759074081974,-1100.9260470956397) translate(40.36650993827159 73.0911548485799)"/><path d="M-3680-1299.64a8 8 0 0 1 8-8h344a8 8 0 0 1 8 8v101.47a8 8 0 0 1-8 8h-344a8 8 0 0 1-8-8z" stroke="#000" stroke-opacity="0" stroke-width="2" fill="#6f7681"/><use xlink:href="#g" transform="matrix(1,0,0,1,-3675,-1302.6410954752646) translate(12.033031543209859 32.70003555555556)"/><use xlink:href="#h" transform="matrix(1,0,0,1,-3675,-1302.6410954752646) translate(157.0333000617284 32.70003555555556)"/><use xlink:href="#i" transform="matrix(1,0,0,1,-3675,-1302.6410954752646) translate(204.96672216049382 32.70003555555556)"/><use xlink:href="#j" transform="matrix(1,0,0,1,-3675,-1302.6410954752646) translate(310.0335833950617 32.70003555555556)"/><use xlink:href="#k" transform="matrix(1,0,0,1,-3675,-1302.6410954752646) translate(96.1331872839506 58.37997020206773)"/><use xlink:href="#l" transform="matrix(1,0,0,1,-3675,-1302.6410954752646) translate(122.79990333333332 58.37997020206773)"/><use xlink:href="#c" transform="matrix(1,0,0,1,-3675,-1302.6410954752646) translate(239.86678679012346 58.37997020206773)"/><use xlink:href="#m" transform="matrix(1,0,0,1,-3675,-1302.6410954752646) translate(11.833031172839554 84.0599048485799)"/><path d="M-2629.24-1519.55a8 8 0 0 1 8-8h244a8 8 0 0 1 8 8v47.14a8 8 0 0 1-8 8h-244a8 8 0 0 1-8-8z" stroke="#000" stroke-opacity="0" stroke-width="2" fill="#54c45e"/><use xlink:href="#n" transform="matrix(1,0,0,1,-2624.245404629234,-1522.549533233545) translate(78.33425925925927 31.455555555555552)"/><path d="M-2630-1423.18a8 8 0 0 1 8-8h244a8 8 0 0 1 8 8v47.14a8 8 0 0 1-8 8h-244a8 8 0 0 1-8-8z" stroke="#000" stroke-opacity="0" stroke-width="2" fill="#54c45e"/><use xlink:href="#o" transform="matrix(1,0,0,1,-2625.0000499999996,-1426.178253908523) translate(78.33425925925927 31.455555555555552)"/><path d="M-2368.24-1495.98h108.04" stroke="#5e5e5e" stroke-width="2" fill="none"/><path d="M-2368.22-1494.98h-1.03v-2h1.03z" stroke="#5e5e5e" stroke-width=".05" fill="#5e5e5e"/><path d="M-2253.17-1495.98l-12.9 7.64v-15.28z" stroke="#5e5e5e" stroke-width="2" fill="#5e5e5e"/><path d="M-2369-1399.6h108.8" stroke="#5e5e5e" stroke-width="2" fill="none"/><path d="M-2368.97-1398.6h-1.03v-2h1.03z" stroke="#5e5e5e" stroke-width=".05" fill="#5e5e5e"/><path d="M-2253.17-1399.6l-12.9 7.63v-15.27z" stroke="#5e5e5e" stroke-width="2" fill="#5e5e5e"/><path d="M-2831.18-1447.8h94.47a6 6 0 0 0 6-6v-36.18a6 6 0 0 1 6-6h86.46" stroke="#5e5e5e" stroke-width="2" fill="none"/><path d="M-2831.15-1446.8h-1.03v-2h1.03z" stroke="#5e5e5e" stroke-width=".05" fill="#5e5e5e"/><path d="M-2631.2-1495.98l-12.92 7.64v-15.28z" stroke="#5e5e5e" stroke-width="2" fill="#5e5e5e"/><path d="M-2831.18-1447.8h94.1a6 6 0 0 1 6 6v36.2a6 6 0 0 0 6 6h86.1" stroke="#5e5e5e" stroke-width="2" fill="none"/><path d="M-2831.15-1446.8h-1.03v-2h1.03z" stroke="#5e5e5e" stroke-width=".05" fill="#5e5e5e"/><path d="M-2631.96-1399.6l-12.92 7.63v-15.27z" stroke="#5e5e5e" stroke-width="2" fill="#5e5e5e"/><path d="M-2629.24-1320.66a8 8 0 0 1 8-8h244a8 8 0 0 1 8 8v47.14a8 8 0 0 1-8 8h-244a8 8 0 0 1-8-8z" stroke="#000" stroke-opacity="0" stroke-width="2" fill="#54c45e"/><use xlink:href="#p" transform="matrix(1,0,0,1,-2624.245404629234,-1323.660856029538) translate(78.33425925925927 31.455555555555552)"/><path d="M-2630-1218.14a8 8 0 0 1 8-8h244a8 8 0 0 1 8 8v47.14a8 8 0 0 1-8 8h-244a8 8 0 0 1-8-8z" stroke="#000" stroke-opacity="0" stroke-width="2" fill="#54c45e"/><use xlink:href="#q" transform="matrix(1,0,0,1,-2625.0000499999996,-1221.1434581505532) translate(78.33425925925927 31.455555555555552)"/><path d="M-2368.24-1297.1h108.04" stroke="#5e5e5e" stroke-width="2" fill="none"/><path d="M-2368.22-1296.1h-1.03v-2h1.03z" stroke="#5e5e5e" stroke-width=".05" fill="#5e5e5e"/><path d="M-2253.17-1297.1l-12.9 7.64v-15.27z" stroke="#5e5e5e" stroke-width="2" fill="#5e5e5e"/><path d="M-2369-1194.57h108.8" stroke="#5e5e5e" stroke-width="2" fill="none"/><path d="M-2368.97-1193.57h-1.03v-2h1.03z" stroke="#5e5e5e" stroke-width=".05" fill="#5e5e5e"/><path d="M-2253.17-1194.57l-12.9 7.63v-15.27z" stroke="#5e5e5e" stroke-width="2" fill="#5e5e5e"/><path d="M-2790.42-1248.9h53.7a6 6 0 0 0 6-6v-36.2a6 6 0 0 1 6-6h86.48M-2790.4-1248.9h-1.02" stroke="#5e5e5e" stroke-width="2" fill="none"/><path d="M-2631.2-1297.1l-12.92 7.64v-15.27z" stroke="#5e5e5e" stroke-width="2" fill="#5e5e5e"/><path d="M-2831.18-1248.9h94.1a6 6 0 0 1 6 6v42.33a6 6 0 0 0 6 6h86.1" stroke="#5e5e5e" stroke-width="2" fill="none"/><path d="M-2831.15-1247.9h-1.03v-2h1.03z" stroke="#5e5e5e" stroke-width=".05" fill="#5e5e5e"/><path d="M-2631.96-1194.57l-12.92 7.63v-15.27z" stroke="#5e5e5e" stroke-width="2" fill="#5e5e5e"/><path d="M-2251.2-1523.14a8 8 0 0 1 8-8h244a8 8 0 0 1 8 8v47.14a8 8 0 0 1-8 8h-244a8 8 0 0 1-8-8z" stroke="#000" stroke-opacity="0" stroke-width="2" fill="#ba23f6"/><use xlink:href="#r" transform="matrix(1,0,0,1,-2246.2081916631078,-1526.1397710377732) translate(75.55987654320988 31.455555555555552)"/><path d="M-2251.2-1427.86a8 8 0 0 1 8-8h244a8 8 0 0 1 8 8v47.14a8 8 0 0 1-8 8h-244a8 8 0 0 1-8-8z" stroke="#000" stroke-opacity="0" stroke-width="2" fill="#ba23f6"/><use xlink:href="#r" transform="matrix(1,0,0,1,-2246.2081916631078,-1430.8605257753716) translate(75.55987654320988 31.455555555555552)"/><path d="M-2251.2-1320.66a8 8 0 0 1 8-8h244a8 8 0 0 1 8 8v47.14a8 8 0 0 1-8 8h-244a8 8 0 0 1-8-8z" stroke="#000" stroke-opacity="0" stroke-width="2" fill="#ba23f6"/><use xlink:href="#r" transform="matrix(1,0,0,1,-2246.2081916631078,-1323.660856029538) translate(75.55987654320988 31.455555555555552)"/><path d="M-2251.2-1218.14a8 8 0 0 1 8-8h244a8 8 0 0 1 8 8v47.14a8 8 0 0 1-8 8h-244a8 8 0 0 1-8-8z" stroke="#000" stroke-opacity="0" stroke-width="2" fill="#ba23f6"/><use xlink:href="#r" transform="matrix(1,0,0,1,-2246.2081916631078,-1221.1434581505532) translate(75.55987654320988 31.455555555555552)"/><path d="M-2628.5-1131.36a8 8 0 0 1 8-8h244a8 8 0 0 1 8 8v47.14a8 8 0 0 1-8 8h-244a8 8 0 0 1-8-8z" stroke="#000" stroke-opacity="0" stroke-width="2" fill="#54c45e"/><use xlink:href="#s" transform="matrix(1,0,0,1,-2623.4907592584686,-1134.3638935710342) translate(78.33425925925927 31.455555555555552)"/><path d="M-2629.24-1028.85a8 8 0 0 1 8-8h244a8 8 0 0 1 8 8v47.14a8 8 0 0 1-8 8h-244a8 8 0 0 1-8-8z" stroke="#000" stroke-opacity="0" stroke-width="2" fill="#54c45e"/><use xlink:href="#t" transform="matrix(1,0,0,1,-2624.245404629234,-1031.8464956920493) translate(78.33425925925927 31.455555555555552)"/><path d="M-2367.5-1107.8h108.05" stroke="#5e5e5e" stroke-width="2" fill="none"/><path d="M-2367.47-1106.8h-1.02v-2h1.03z" stroke="#5e5e5e" stroke-width=".05" fill="#5e5e5e"/><path d="M-2252.42-1107.8l-12.9 7.64v-15.27z" stroke="#5e5e5e" stroke-width="2" fill="#5e5e5e"/><path d="M-2368.24-1005.28h108.8" stroke="#5e5e5e" stroke-width="2" fill="none"/><path d="M-2368.22-1004.28h-1.03v-2h1.03z" stroke="#5e5e5e" stroke-width=".05" fill="#5e5e5e"/><path d="M-2252.42-1005.28l-12.9 7.64v-15.27z" stroke="#5e5e5e" stroke-width="2" fill="#5e5e5e"/><path d="M-2831.18-1060.85h94.47a6 6 0 0 0 6-6v-34.94a6 6 0 0 1 6-6h87.22" stroke="#5e5e5e" stroke-width="2" fill="none"/><path d="M-2831.15-1059.85h-1.03v-2h1.03z" stroke="#5e5e5e" stroke-width=".05" fill="#5e5e5e"/><path d="M-2630.45-1107.8l-12.92 7.64v-15.27z" stroke="#5e5e5e" stroke-width="2" fill="#5e5e5e"/><path d="M-2831.18-1060.85h94.47a6 6 0 0 1 6 6v43.57a6 6 0 0 0 6 6h86.46" stroke="#5e5e5e" stroke-width="2" fill="none"/><path d="M-2831.15-1059.85h-1.03v-2h1.03z" stroke="#5e5e5e" stroke-width=".05" fill="#5e5e5e"/><path d="M-2631.2-1005.28l-12.92 7.64v-15.27z" stroke="#5e5e5e" stroke-width="2" fill="#5e5e5e"/><path d="M-2250.45-1131.36a8 8 0 0 1 8-8h244a8 8 0 0 1 8 8v47.14a8 8 0 0 1-8 8h-244a8 8 0 0 1-8-8z" stroke="#000" stroke-opacity="0" stroke-width="2" fill="#ba23f6"/><g><use xlink:href="#r" transform="matrix(1,0,0,1,-2245.4535462923423,-1134.3638935710342) translate(75.55987654320988 31.455555555555552)"/></g><path d="M-2250.45-1028.85a8 8 0 0 1 8-8h244a8 8 0 0 1 8 8v47.14a8 8 0 0 1-8 8h-244a8 8 0 0 1-8-8z" stroke="#000" stroke-opacity="0" stroke-width="2" fill="#ba23f6"/><g><use xlink:href="#r" transform="matrix(1,0,0,1,-2245.4535462923423,-1031.8464956920493) translate(75.55987654320988 31.455555555555552)"/></g><path d="M-3319-1248.9h217.83" stroke="#5e5e5e" stroke-width="2" fill="none"/><path d="M-3318.97-1247.9h-1.03v-2h1.03z" stroke="#5e5e5e" stroke-width=".05" fill="#5e5e5e"/><path d="M-3094.14-1248.9l-12.9 7.63v-15.27z" stroke="#5e5e5e" stroke-width="2" fill="#5e5e5e"/><path d="M-3751.42-1645.94a6 6 0 0 1 6-6h708a6 6 0 0 1 6 6v51.14a6 6 0 0 1-6 6h-708a6 6 0 0 1-6-6z" stroke="#5e5e5e" stroke-width="3" fill="#fff"/><g><use xlink:href="#u" transform="matrix(1,0,0,1,-3746.4213120374325,-1646.9421138043149) translate(150.3191358024692 31.455555555555552)"/><use xlink:href="#v" transform="matrix(1,0,0,1,-3746.4213120374325,-1646.9421138043149) translate(256.0574074074074 31.455555555555552)"/><use xlink:href="#w" transform="matrix(1,0,0,1,-3746.4213120374325,-1646.9421138043149) translate(300.883950617284 31.455555555555552)"/><use xlink:href="#x" transform="matrix(1,0,0,1,-3746.4213120374325,-1646.9421138043149) translate(399.14074074074074 31.455555555555552)"/><use xlink:href="#y" transform="matrix(1,0,0,1,-3746.4213120374325,-1646.9421138043149) translate(431.4981481481481 31.455555555555552)"/><use xlink:href="#z" transform="matrix(1,0,0,1,-3746.4213120374325,-1646.9421138043149) translate(456.4364197530864 31.455555555555552)"/></g><path d="M-3319-1248.9h106.9a6 6 0 0 0 6-6v-186.9a6 6 0 0 1 6-6h98.93" stroke="#5e5e5e" stroke-width="2" fill="none"/><path d="M-3318.97-1247.9h-1.03v-2h1.03z" stroke="#5e5e5e" stroke-width=".05" fill="#5e5e5e"/><path d="M-3094.14-1447.8l-12.9 7.64v-15.27z" stroke="#5e5e5e" stroke-width="2" fill="#5e5e5e"/><path d="M-3319-1248.9h106.9a6 6 0 0 1 6 6v176.05a6 6 0 0 0 6 6h98.93" stroke="#5e5e5e" stroke-width="2" fill="none"/><path d="M-3318.97-1247.9h-1.03v-2h1.03z" stroke="#5e5e5e" stroke-width=".05" fill="#5e5e5e"/><path d="M-3094.14-1060.85l-12.9 7.64v-15.28z" stroke="#5e5e5e" stroke-width="2" fill="#5e5e5e"/><defs><path fill="#fff" d="M250-142C247-53 197 0 108 0H6l48-248c105-5 200 3 196 106zm-49 2c1-57-42-72-103-68L66-40c84 6 135-22 135-100" id="A"/><path fill="#fff" d="M50-224l7-37h49l-7 37H50zM6 0l37-190h49L55 0H6" id="B"/><path fill="#fff" d="M67-101c-8 29-7 73 27 71 23-2 32-16 39-37l48 9C170-19 141 4 91 4 36 4 7-28 12-86c6-75 61-124 140-103 26 7 40 29 43 59l-50 4c-1-20-9-34-29-34-35 0-41 29-49 59" id="C"/><path fill="#fff" d="M72-63c-8 23 5 39 32 30L98-1C54 14 12-6 23-64l18-93H15l7-33h28l24-45h31l-8 45h35l-6 33H90" id="D"/><path fill="#fff" d="M124-194c51 0 84 22 84 74C207-44 167 4 94 4 43 4 11-23 11-74c0-74 41-120 113-120zM99-30c46 0 58-42 58-86 0-27-11-44-37-44-44 0-55 40-57 84-1 27 10 45 36 46" id="E"/><path fill="#fff" d="M151-194c95 0 34 128 28 194h-49l25-134c0-29-45-25-59-9C67-111 69-48 56 0H6l36-190h47l-4 32c15-20 33-36 66-36" id="F"/><path fill="#fff" d="M166-52c-4 17 5 29 24 23l-3 27c-30 11-74 1-67-34C105-15 91 4 56 4 23 4 3-15 2-49c0-64 63-67 128-67 10-22 3-53-29-45-13 3-22 10-25 24l-46-5c5-64 156-77 153 0-1 33-11 60-17 90zM97-88c-44-9-64 57-19 57 31 0 42-28 47-57H97" id="G"/><path fill="#fff" d="M84-151c13-25 34-51 72-40l-8 41C67-170 71-64 56 0H6l36-190h47" id="H"/><path fill="#fff" d="M114-194c63-2 87 48 72 110H63c-3 28 1 55 31 54 21-1 32-13 37-29l44 13C160-14 137 4 91 4 41 4 11-22 11-73c0-71 33-119 103-121zm30 77c14-47-50-61-67-22-3 6-6 13-8 22h75" id="I"/><g id="a"><use transform="matrix(0.06666679012345679,0,0,0.06666679012345679,0,0)" xlink:href="#A"/><use transform="matrix(0.06666679012345679,0,0,0.06666679012345679,17.26669864197531,0)" xlink:href="#B"/><use transform="matrix(0.06666679012345679,0,0,0.06666679012345679,23.93337765432099,0)" xlink:href="#C"/><use transform="matrix(0.06666679012345679,0,0,0.06666679012345679,37.26673567901234,0)" xlink:href="#D"/><use transform="matrix(0.06666679012345679,0,0,0.06666679012345679,45.200083703703704,0)" xlink:href="#B"/><use transform="matrix(0.06666679012345679,0,0,0.06666679012345679,51.866762716049394,0)" xlink:href="#E"/><use transform="matrix(0.06666679012345679,0,0,0.06666679012345679,66.46678975308643,0)" xlink:href="#F"/><use transform="matrix(0.06666679012345679,0,0,0.06666679012345679,81.06681679012347,0)" xlink:href="#F"/><use transform="matrix(0.06666679012345679,0,0,0.06666679012345679,95.6668438271605,0)" xlink:href="#G"/><use transform="matrix(0.06666679012345679,0,0,0.06666679012345679,109.00020185185187,0)" xlink:href="#B"/><use transform="matrix(0.06666679012345679,0,0,0.06666679012345679,115.66688086419755,0)" xlink:href="#H"/><use transform="matrix(0.06666679012345679,0,0,0.06666679012345679,125.0002314814815,0)" xlink:href="#I"/></g><path fill="#fff" d="M109 0H50L19-190h51L86-37l77-153h54" id="J"/><path fill="#fff" d="M87-160c15-17 32-34 63-34 99 1 59 172-1 192-36 12-78 0-87-29L54 0H6l52-261h49zm71 38c0-24-5-37-29-37-46 0-55 46-57 89-1 25 12 40 35 40 44 0 51-50 51-92" id="K"/><path fill="#fff" d="M6 0l51-261h49L55 0H6" id="L"/><path fill="#fff" d="M-21 44V30h207v14H-21" id="M"/><path fill="#fff" d="M6 0l7-41h62l31-161-67 37 8-42 70-41h48L124-41h57l-8 41H6" id="N"/><g id="b"><use transform="matrix(0.06666679012345679,0,0,0.06666679012345679,0,0)" xlink:href="#J"/><use transform="matrix(0.06666679012345679,0,0,0.06666679012345679,13.333358024691359,0)" xlink:href="#G"/><use transform="matrix(0.06666679012345679,0,0,0.06666679012345679,26.666716049382718,0)" xlink:href="#H"/><use transform="matrix(0.06666679012345679,0,0,0.06666679012345679,36.00006666666667,0)" xlink:href="#B"/><use transform="matrix(0.06666679012345679,0,0,0.06666679012345679,42.66674567901235,0)" xlink:href="#G"/><use transform="matrix(0.06666679012345679,0,0,0.06666679012345679,56.00010370370371,0)" xlink:href="#K"/><use transform="matrix(0.06666679012345679,0,0,0.06666679012345679,70.60013074074075,0)" xlink:href="#L"/><use transform="matrix(0.06666679012345679,0,0,0.06666679012345679,77.26680975308643,0)" xlink:href="#I"/><use transform="matrix(0.06666679012345679,0,0,0.06666679012345679,90.6001677777778,0)" xlink:href="#M"/><use transform="matrix(0.06666679012345679,0,0,0.06666679012345679,103.93352580246916,0)" xlink:href="#N"/></g><path fill="#fff" d="M22-148v-39h180v39H22zm0 97v-39h180v39H22" id="O"/><use transform="matrix(0.06666679012345679,0,0,0.06666679012345679,0,0)" xlink:href="#O" id="c"/><path fill="#fff" d="M73 9c-6 25 6 36 34 32l-7 34c-48 4-86-7-75-57 7-33 31-97-22-94l7-34c90 1 16-151 121-151h35l-7 34c-82-9-21 116-102 134C99-85 82-28 73 9" id="P"/><path fill="#fff" d="M144-137c-1-29-70-35-71-2 16 41 103 10 103 80C176 9 79 16 32-9 18-17 9-31 4-48l44-6c3 32 80 36 82 1-15-42-103-11-103-82 0-77 157-79 161-8" id="Q"/><path fill="#fff" d="M-13 7L90-261h42L29 7h-42" id="R"/><path fill="#fff" d="M65-195c6-24-6-36-34-32l7-34c47-5 85 7 75 57-7 34-31 95 22 94l-7 34C31-75 126 98-27 75l6-34C62 51-1-77 82-93c-43-7-26-65-17-102" id="S"/><g id="d"><use transform="matrix(0.06666679012345679,0,0,0.06666679012345679,0,0)" xlink:href="#P"/><use transform="matrix(0.06666679012345679,0,0,0.06666679012345679,9.333350617283951,0)" xlink:href="#C"/><use transform="matrix(0.06666679012345679,0,0,0.06666679012345679,22.666708641975312,0)" xlink:href="#G"/><use transform="matrix(0.06666679012345679,0,0,0.06666679012345679,36.00006666666667,0)" xlink:href="#Q"/><use transform="matrix(0.06666679012345679,0,0,0.06666679012345679,49.333424691358026,0)" xlink:href="#R"/><use transform="matrix(0.06666679012345679,0,0,0.06666679012345679,56.00010370370371,0)" xlink:href="#J"/><use transform="matrix(0.06666679012345679,0,0,0.06666679012345679,69.33346172839506,0)" xlink:href="#G"/><use transform="matrix(0.06666679012345679,0,0,0.06666679012345679,82.66681975308643,0)" xlink:href="#H"/><use transform="matrix(0.06666679012345679,0,0,0.06666679012345679,92.00017037037038,0)" xlink:href="#B"/><use transform="matrix(0.06666679012345679,0,0,0.06666679012345679,98.66684938271607,0)" xlink:href="#G"/><use transform="matrix(0.06666679012345679,0,0,0.06666679012345679,112.00020740740744,0)" xlink:href="#K"/><use transform="matrix(0.06666679012345679,0,0,0.06666679012345679,126.60023444444448,0)" xlink:href="#L"/><use transform="matrix(0.06666679012345679,0,0,0.06666679012345679,133.26691345679015,0)" xlink:href="#I"/><use transform="matrix(0.06666679012345679,0,0,0.06666679012345679,146.6002714814815,0)" xlink:href="#Q"/><use transform="matrix(0.06666679012345679,0,0,0.06666679012345679,159.93362950617288,0)" xlink:href="#S"/></g><path fill="#fff" d="M121-251c83 0 93 87 42 126-35 27-77 48-103 84h115l-7 41H-6C6-94 102-103 141-168c11-20 3-46-24-44-23 2-33 13-39 32l-47-10c12-38 39-61 90-61" id="T"/><g id="e"><use transform="matrix(0.06666679012345679,0,0,0.06666679012345679,0,0)" xlink:href="#J"/><use transform="matrix(0.06666679012345679,0,0,0.06666679012345679,13.333358024691359,0)" xlink:href="#G"/><use transform="matrix(0.06666679012345679,0,0,0.06666679012345679,26.666716049382718,0)" xlink:href="#H"/><use transform="matrix(0.06666679012345679,0,0,0.06666679012345679,36.00006666666667,0)" xlink:href="#B"/><use transform="matrix(0.06666679012345679,0,0,0.06666679012345679,42.66674567901235,0)" xlink:href="#G"/><use transform="matrix(0.06666679012345679,0,0,0.06666679012345679,56.00010370370371,0)" xlink:href="#K"/><use transform="matrix(0.06666679012345679,0,0,0.06666679012345679,70.60013074074075,0)" xlink:href="#L"/><use transform="matrix(0.06666679012345679,0,0,0.06666679012345679,77.26680975308643,0)" xlink:href="#I"/><use transform="matrix(0.06666679012345679,0,0,0.06666679012345679,90.6001677777778,0)" xlink:href="#M"/><use transform="matrix(0.06666679012345679,0,0,0.06666679012345679,103.93352580246916,0)" xlink:href="#T"/></g><path fill="#fff" d="M131-73c0-31-25-35-58-33l8-40c36 2 64-5 65-39 0-17-10-28-28-27-23 1-35 12-41 32l-47-9c11-39 39-63 90-62 44 1 76 17 76 60 0 42-26 59-63 64 28 5 48 20 48 54C181 22 9 32 3-60l49-7c3 21 16 31 40 31s39-13 39-37" id="U"/><g id="f"><use transform="matrix(0.06666679012345679,0,0,0.06666679012345679,0,0)" xlink:href="#J"/><use transform="matrix(0.06666679012345679,0,0,0.06666679012345679,13.333358024691359,0)" xlink:href="#G"/><use transform="matrix(0.06666679012345679,0,0,0.06666679012345679,26.666716049382718,0)" xlink:href="#H"/><use transform="matrix(0.06666679012345679,0,0,0.06666679012345679,36.00006666666667,0)" xlink:href="#B"/><use transform="matrix(0.06666679012345679,0,0,0.06666679012345679,42.66674567901235,0)" xlink:href="#G"/><use transform="matrix(0.06666679012345679,0,0,0.06666679012345679,56.00010370370371,0)" xlink:href="#K"/><use transform="matrix(0.06666679012345679,0,0,0.06666679012345679,70.60013074074075,0)" xlink:href="#L"/><use transform="matrix(0.06666679012345679,0,0,0.06666679012345679,77.26680975308643,0)" xlink:href="#I"/><use transform="matrix(0.06666679012345679,0,0,0.06666679012345679,90.6001677777778,0)" xlink:href="#M"/><use transform="matrix(0.06666679012345679,0,0,0.06666679012345679,103.93352580246916,0)" xlink:href="#U"/></g><g id="g"><use transform="matrix(0.06666679012345679,0,0,0.06666679012345679,0,0)" xlink:href="#A"/><use transform="matrix(0.06666679012345679,0,0,0.06666679012345679,17.26669864197531,0)" xlink:href="#B"/><use transform="matrix(0.06666679012345679,0,0,0.06666679012345679,23.93337765432099,0)" xlink:href="#C"/><use transform="matrix(0.06666679012345679,0,0,0.06666679012345679,37.26673567901234,0)" xlink:href="#D"/><use transform="matrix(0.06666679012345679,0,0,0.06666679012345679,45.200083703703704,0)" xlink:href="#B"/><use transform="matrix(0.06666679012345679,0,0,0.06666679012345679,51.866762716049394,0)" xlink:href="#E"/><use transform="matrix(0.06666679012345679,0,0,0.06666679012345679,66.46678975308643,0)" xlink:href="#F"/><use transform="matrix(0.06666679012345679,0,0,0.06666679012345679,81.06681679012347,0)" xlink:href="#F"/><use transform="matrix(0.06666679012345679,0,0,0.06666679012345679,95.6668438271605,0)" xlink:href="#G"/><use transform="matrix(0.06666679012345679,0,0,0.06666679012345679,109.00020185185187,0)" xlink:href="#B"/><use transform="matrix(0.06666679012345679,0,0,0.06666679012345679,115.66688086419755,0)" xlink:href="#H"/><use transform="matrix(0.06666679012345679,0,0,0.06666679012345679,125.0002314814815,0)" xlink:href="#I"/></g><path fill="#fff" d="M132-28C118-9 101 4 69 4 30 4 10-23 10-62c0-70 24-129 92-132 31-1 47 14 56 35l19-102h49L179 0h-49zM62-69c0 22 7 39 29 39 45-2 54-45 57-90 2-27-10-40-33-40-44 0-53 48-53 91" id="V"/><g id="h"><use transform="matrix(0.06666679012345679,0,0,0.06666679012345679,0,0)" xlink:href="#V"/><use transform="matrix(0.06666679012345679,0,0,0.06666679012345679,14.600027037037037,0)" xlink:href="#I"/><use transform="matrix(0.06666679012345679,0,0,0.06666679012345679,27.933385061728394,0)" xlink:href="#Q"/></g><path fill="#fff" d="M114-194c63-2 87 48 72 110H63c-3 28 1 55 31 54 21-1 32-13 37-29l44 13C160-14 137 4 91 4 41 4 11-22 11-73c0-71 33-119 103-121zm30 77c14-47-50-61-67-22-3 6-6 13-8 22h75zm-52-91c10-23 30-36 44-56h49l-1 8-67 48H92" id="W"/><g id="i"><use transform="matrix(0.06666679012345679,0,0,0.06666679012345679,0,0)" xlink:href="#V"/><use transform="matrix(0.06666679012345679,0,0,0.06666679012345679,14.600027037037037,0)" xlink:href="#E"/><use transform="matrix(0.06666679012345679,0,0,0.06666679012345679,29.200054074074075,0)" xlink:href="#F"/><use transform="matrix(0.06666679012345679,0,0,0.06666679012345679,43.80008111111111,0)" xlink:href="#F"/><use transform="matrix(0.06666679012345679,0,0,0.06666679012345679,58.40010814814815,0)" xlink:href="#W"/><use transform="matrix(0.06666679012345679,0,0,0.06666679012345679,71.7334661728395,0)" xlink:href="#I"/><use transform="matrix(0.06666679012345679,0,0,0.06666679012345679,85.06682419753088,0)" xlink:href="#Q"/></g><g id="j"><use transform="matrix(0.06666679012345679,0,0,0.06666679012345679,0,0)" xlink:href="#V"/><use transform="matrix(0.06666679012345679,0,0,0.06666679012345679,14.600027037037037,0)" xlink:href="#I"/></g><g id="k"><use transform="matrix(0.06666679012345679,0,0,0.06666679012345679,0,0)" xlink:href="#L"/><use transform="matrix(0.06666679012345679,0,0,0.06666679012345679,6.666679012345679,0)" xlink:href="#G"/></g><path fill="#fff" d="M69 3c-96 0-34-126-28-193h49L65-57c6 42 62 18 71-6 14-38 17-86 28-127h50L178 0h-47c0-11 4-26 3-33-14 20-30 37-65 36" id="X"/><g id="l"><use transform="matrix(0.06666679012345679,0,0,0.06666679012345679,0,0)" xlink:href="#L"/><use transform="matrix(0.06666679012345679,0,0,0.06666679012345679,6.666679012345679,0)" xlink:href="#B"/><use transform="matrix(0.06666679012345679,0,0,0.06666679012345679,13.333358024691359,0)" xlink:href="#D"/><use transform="matrix(0.06666679012345679,0,0,0.06666679012345679,21.266706049382716,0)" xlink:href="#D"/><use transform="matrix(0.06666679012345679,0,0,0.06666679012345679,29.200054074074075,0)" xlink:href="#W"/><use transform="matrix(0.06666679012345679,0,0,0.06666679012345679,42.53341209876543,0)" xlink:href="#H"/><use transform="matrix(0.06666679012345679,0,0,0.06666679012345679,51.86676271604938,0)" xlink:href="#G"/><use transform="matrix(0.06666679012345679,0,0,0.06666679012345679,65.20012074074074,0)" xlink:href="#D"/><use transform="matrix(0.06666679012345679,0,0,0.06666679012345679,73.1334687654321,0)" xlink:href="#X"/><use transform="matrix(0.06666679012345679,0,0,0.06666679012345679,87.73349580246914,0)" xlink:href="#H"/><use transform="matrix(0.06666679012345679,0,0,0.06666679012345679,97.06684641975309,0)" xlink:href="#I"/></g><path fill="#fff" d="M100 10C77 47 50 87-15 72l7-35c37 9 51-18 65-41L20-190h51L89-44l73-146h53" id="Y"/><g id="m"><use transform="matrix(0.06666679012345679,0,0,0.06666679012345679,0,0)" xlink:href="#P"/><use transform="matrix(0.06666679012345679,0,0,0.06666679012345679,9.333350617283951,0)" xlink:href="#J"/><use transform="matrix(0.06666679012345679,0,0,0.06666679012345679,22.666708641975312,0)" xlink:href="#G"/><use transform="matrix(0.06666679012345679,0,0,0.06666679012345679,36.00006666666667,0)" xlink:href="#H"/><use transform="matrix(0.06666679012345679,0,0,0.06666679012345679,45.333417283950624,0)" xlink:href="#B"/><use transform="matrix(0.06666679012345679,0,0,0.06666679012345679,52.000096296296306,0)" xlink:href="#G"/><use transform="matrix(0.06666679012345679,0,0,0.06666679012345679,65.33345432098767,0)" xlink:href="#K"/><use transform="matrix(0.06666679012345679,0,0,0.06666679012345679,79.93348135802471,0)" xlink:href="#L"/><use transform="matrix(0.06666679012345679,0,0,0.06666679012345679,86.60016037037039,0)" xlink:href="#I"/><use transform="matrix(0.06666679012345679,0,0,0.06666679012345679,99.93351839506175,0)" xlink:href="#M"/><use transform="matrix(0.06666679012345679,0,0,0.06666679012345679,113.26687641975312,0)" xlink:href="#Y"/><use transform="matrix(0.06666679012345679,0,0,0.06666679012345679,126.60023444444448,0)" xlink:href="#R"/><use transform="matrix(0.06666679012345679,0,0,0.06666679012345679,133.26691345679015,0)" xlink:href="#G"/><use transform="matrix(0.06666679012345679,0,0,0.06666679012345679,146.6002714814815,0)" xlink:href="#X"/><use transform="matrix(0.06666679012345679,0,0,0.06666679012345679,161.20029851851854,0)" xlink:href="#D"/><use transform="matrix(0.06666679012345679,0,0,0.06666679012345679,169.13364654320992,0)" xlink:href="#I"/><use transform="matrix(0.06666679012345679,0,0,0.06666679012345679,182.46700456790126,0)" xlink:href="#X"/><use transform="matrix(0.06666679012345679,0,0,0.06666679012345679,197.06703160493828,0)" xlink:href="#H"/><use transform="matrix(0.06666679012345679,0,0,0.06666679012345679,206.40038222222222,0)" xlink:href="#R"/><use transform="matrix(0.06666679012345679,0,0,0.06666679012345679,213.0670612345679,0)" xlink:href="#J"/><use transform="matrix(0.06666679012345679,0,0,0.06666679012345679,226.40041925925925,0)" xlink:href="#G"/><use transform="matrix(0.06666679012345679,0,0,0.06666679012345679,239.73377728395062,0)" xlink:href="#H"/><use transform="matrix(0.06666679012345679,0,0,0.06666679012345679,249.06712790123456,0)" xlink:href="#B"/><use transform="matrix(0.06666679012345679,0,0,0.06666679012345679,255.73380691358022,0)" xlink:href="#G"/><use transform="matrix(0.06666679012345679,0,0,0.06666679012345679,269.06716493827156,0)" xlink:href="#K"/><use transform="matrix(0.06666679012345679,0,0,0.06666679012345679,283.6671919753086,0)" xlink:href="#L"/><use transform="matrix(0.06666679012345679,0,0,0.06666679012345679,290.3338709876543,0)" xlink:href="#I"/><use transform="matrix(0.06666679012345679,0,0,0.06666679012345679,303.6672290123456,0)" xlink:href="#Q"/><use transform="matrix(0.06666679012345679,0,0,0.06666679012345679,317.00058703703695,0)" xlink:href="#S"/></g><g id="n"><use transform="matrix(0.06234567901234567,0,0,0.06234567901234567,0,0)" xlink:href="#G"/><use transform="matrix(0.06234567901234567,0,0,0.06234567901234567,12.469135802469133,0)" xlink:href="#X"/><use transform="matrix(0.06234567901234567,0,0,0.06234567901234567,26.122839506172834,0)" xlink:href="#D"/><use transform="matrix(0.06234567901234567,0,0,0.06234567901234567,33.541975308641966,0)" xlink:href="#I"/><use transform="matrix(0.06234567901234567,0,0,0.06234567901234567,46.0111111111111,0)" xlink:href="#X"/><use transform="matrix(0.06234567901234567,0,0,0.06234567901234567,59.664814814814804,0)" xlink:href="#H"/><use transform="matrix(0.06234567901234567,0,0,0.06234567901234567,68.3932098765432,0)" xlink:href="#M"/><use transform="matrix(0.06234567901234567,0,0,0.06234567901234567,80.86234567901232,0)" xlink:href="#N"/></g><g id="o"><use transform="matrix(0.06234567901234567,0,0,0.06234567901234567,0,0)" xlink:href="#G"/><use transform="matrix(0.06234567901234567,0,0,0.06234567901234567,12.469135802469133,0)" xlink:href="#X"/><use transform="matrix(0.06234567901234567,0,0,0.06234567901234567,26.122839506172834,0)" xlink:href="#D"/><use transform="matrix(0.06234567901234567,0,0,0.06234567901234567,33.541975308641966,0)" xlink:href="#I"/><use transform="matrix(0.06234567901234567,0,0,0.06234567901234567,46.0111111111111,0)" xlink:href="#X"/><use transform="matrix(0.06234567901234567,0,0,0.06234567901234567,59.664814814814804,0)" xlink:href="#H"/><use transform="matrix(0.06234567901234567,0,0,0.06234567901234567,68.3932098765432,0)" xlink:href="#M"/><use transform="matrix(0.06234567901234567,0,0,0.06234567901234567,80.86234567901232,0)" xlink:href="#T"/></g><g id="p"><use transform="matrix(0.06234567901234567,0,0,0.06234567901234567,0,0)" xlink:href="#G"/><use transform="matrix(0.06234567901234567,0,0,0.06234567901234567,12.469135802469133,0)" xlink:href="#X"/><use transform="matrix(0.06234567901234567,0,0,0.06234567901234567,26.122839506172834,0)" xlink:href="#D"/><use transform="matrix(0.06234567901234567,0,0,0.06234567901234567,33.541975308641966,0)" xlink:href="#I"/><use transform="matrix(0.06234567901234567,0,0,0.06234567901234567,46.0111111111111,0)" xlink:href="#X"/><use transform="matrix(0.06234567901234567,0,0,0.06234567901234567,59.664814814814804,0)" xlink:href="#H"/><use transform="matrix(0.06234567901234567,0,0,0.06234567901234567,68.3932098765432,0)" xlink:href="#M"/><use transform="matrix(0.06234567901234567,0,0,0.06234567901234567,80.86234567901232,0)" xlink:href="#U"/></g><path fill="#fff" d="M154-50L144 0H97l10-50H-6l7-37 126-161h65L161-87h33l-7 37h-33zm-40-37l27-125c-29 45-64 83-95 125h68" id="Z"/><g id="q"><use transform="matrix(0.06234567901234567,0,0,0.06234567901234567,0,0)" xlink:href="#G"/><use transform="matrix(0.06234567901234567,0,0,0.06234567901234567,12.469135802469133,0)" xlink:href="#X"/><use transform="matrix(0.06234567901234567,0,0,0.06234567901234567,26.122839506172834,0)" xlink:href="#D"/><use transform="matrix(0.06234567901234567,0,0,0.06234567901234567,33.541975308641966,0)" xlink:href="#I"/><use transform="matrix(0.06234567901234567,0,0,0.06234567901234567,46.0111111111111,0)" xlink:href="#X"/><use transform="matrix(0.06234567901234567,0,0,0.06234567901234567,59.664814814814804,0)" xlink:href="#H"/><use transform="matrix(0.06234567901234567,0,0,0.06234567901234567,68.3932098765432,0)" xlink:href="#M"/><use transform="matrix(0.06234567901234567,0,0,0.06234567901234567,80.86234567901232,0)" xlink:href="#Z"/></g><path fill="#fff" d="M130 0H70L30-248h54l24 206c31-72 69-137 103-206h54" id="aa"/><g id="r"><use transform="matrix(0.06234567901234567,0,0,0.06234567901234567,0,0)" xlink:href="#aa"/><use transform="matrix(0.06234567901234567,0,0,0.06234567901234567,14.152469135802466,0)" xlink:href="#G"/><use transform="matrix(0.06234567901234567,0,0,0.06234567901234567,26.6216049382716,0)" xlink:href="#H"/><use transform="matrix(0.06234567901234567,0,0,0.06234567901234567,35.349999999999994,0)" xlink:href="#B"/><use transform="matrix(0.06234567901234567,0,0,0.06234567901234567,41.584567901234564,0)" xlink:href="#G"/><use transform="matrix(0.06234567901234567,0,0,0.06234567901234567,54.0537037037037,0)" xlink:href="#K"/><use transform="matrix(0.06234567901234567,0,0,0.06234567901234567,67.7074074074074,0)" xlink:href="#L"/><use transform="matrix(0.06234567901234567,0,0,0.06234567901234567,73.94197530864197,0)" xlink:href="#I"/><use transform="matrix(0.06234567901234567,0,0,0.06234567901234567,86.4111111111111,0)" xlink:href="#Q"/></g><path fill="#fff" d="M137-85c4-43-51-49-69-23H20l36-140h148l-7 41H92l-15 59c40-35 118-7 110 57C197 2 56 37 11-33c-5-8-6-16-7-25l49-8c4 19 14 30 37 30 30-1 44-19 47-49" id="ab"/><g id="s"><use transform="matrix(0.06234567901234567,0,0,0.06234567901234567,0,0)" xlink:href="#G"/><use transform="matrix(0.06234567901234567,0,0,0.06234567901234567,12.469135802469133,0)" xlink:href="#X"/><use transform="matrix(0.06234567901234567,0,0,0.06234567901234567,26.122839506172834,0)" xlink:href="#D"/><use transform="matrix(0.06234567901234567,0,0,0.06234567901234567,33.541975308641966,0)" xlink:href="#I"/><use transform="matrix(0.06234567901234567,0,0,0.06234567901234567,46.0111111111111,0)" xlink:href="#X"/><use transform="matrix(0.06234567901234567,0,0,0.06234567901234567,59.664814814814804,0)" xlink:href="#H"/><use transform="matrix(0.06234567901234567,0,0,0.06234567901234567,68.3932098765432,0)" xlink:href="#M"/><use transform="matrix(0.06234567901234567,0,0,0.06234567901234567,80.86234567901232,0)" xlink:href="#ab"/></g><path fill="#fff" d="M189-94c-5 59-36 98-95 98-53 0-78-35-77-90 1-95 38-177 138-163 27 4 44 25 47 55l-47 7c-4-34-45-30-62-5-9 14-17 34-22 61 26-45 125-35 118 37zm-81-29c-49-6-61 88-10 88 46 5 60-88 10-88" id="ac"/><g id="t"><use transform="matrix(0.06234567901234567,0,0,0.06234567901234567,0,0)" xlink:href="#G"/><use transform="matrix(0.06234567901234567,0,0,0.06234567901234567,12.469135802469133,0)" xlink:href="#X"/><use transform="matrix(0.06234567901234567,0,0,0.06234567901234567,26.122839506172834,0)" xlink:href="#D"/><use transform="matrix(0.06234567901234567,0,0,0.06234567901234567,33.541975308641966,0)" xlink:href="#I"/><use transform="matrix(0.06234567901234567,0,0,0.06234567901234567,46.0111111111111,0)" xlink:href="#X"/><use transform="matrix(0.06234567901234567,0,0,0.06234567901234567,59.664814814814804,0)" xlink:href="#H"/><use transform="matrix(0.06234567901234567,0,0,0.06234567901234567,68.3932098765432,0)" xlink:href="#M"/><use transform="matrix(0.06234567901234567,0,0,0.06234567901234567,80.86234567901232,0)" xlink:href="#ac"/></g><path d="M178-136c88 48 22 151-73 140C49-3 12-15 4-64l51-9c1 50 111 53 115 3-16-63-132-20-133-112 0-93 190-91 199-10l-50 12c-4-41-93-50-97-4 7 38 59 32 89 48" id="ad"/><path d="M72-63c-8 23 5 39 32 30L98-1C54 14 12-6 23-64l18-93H15l7-33h28l24-45h31l-8 45h35l-6 33H90" id="ae"/><path d="M84-151c13-25 34-51 72-40l-8 41C67-170 71-64 56 0H6l36-190h47" id="af"/><path d="M69 3c-96 0-34-126-28-193h49L65-57c6 42 62 18 71-6 14-38 17-86 28-127h50L178 0h-47c0-11 4-26 3-33-14 20-30 37-65 36" id="ag"/><path d="M67-101c-8 29-7 73 27 71 23-2 32-16 39-37l48 9C170-19 141 4 91 4 36 4 7-28 12-86c6-75 61-124 140-103 26 7 40 29 43 59l-50 4c-1-20-9-34-29-34-35 0-41 29-49 59" id="ah"/><path d="M114-194c63-2 87 48 72 110H63c-3 28 1 55 31 54 21-1 32-13 37-29l44 13C160-14 137 4 91 4 41 4 11-22 11-73c0-71 33-119 103-121zm30 77c14-47-50-61-67-22-3 6-6 13-8 22h75" id="ai"/><g id="u"><use transform="matrix(0.06234567901234567,0,0,0.06234567901234567,0,0)" xlink:href="#ad"/><use transform="matrix(0.06234567901234567,0,0,0.06234567901234567,14.96296296296296,0)" xlink:href="#ae"/><use transform="matrix(0.06234567901234567,0,0,0.06234567901234567,22.382098765432094,0)" xlink:href="#af"/><use transform="matrix(0.06234567901234567,0,0,0.06234567901234567,31.11049382716049,0)" xlink:href="#ag"/><use transform="matrix(0.06234567901234567,0,0,0.06234567901234567,44.764197530864195,0)" xlink:href="#ah"/><use transform="matrix(0.06234567901234567,0,0,0.06234567901234567,57.23333333333333,0)" xlink:href="#ae"/><use transform="matrix(0.06234567901234567,0,0,0.06234567901234567,64.65246913580246,0)" xlink:href="#ag"/><use transform="matrix(0.06234567901234567,0,0,0.06234567901234567,78.30617283950616,0)" xlink:href="#af"/><use transform="matrix(0.06234567901234567,0,0,0.06234567901234567,87.03456790123455,0)" xlink:href="#ai"/></g><path d="M132-28C118-9 101 4 69 4 30 4 10-23 10-62c0-70 24-129 92-132 31-1 47 14 56 35l19-102h49L179 0h-49zM62-69c0 22 7 39 29 39 45-2 54-45 57-90 2-27-10-40-33-40-44 0-53 48-53 91" id="aj"/><path d="M144-137c-1-29-70-35-71-2 16 41 103 10 103 80C176 9 79 16 32-9 18-17 9-31 4-48l44-6c3 32 80 36 82 1-15-42-103-11-103-82 0-77 157-79 161-8" id="ak"/><g id="v"><use transform="matrix(0.06234567901234567,0,0,0.06234567901234567,0,0)" xlink:href="#aj"/><use transform="matrix(0.06234567901234567,0,0,0.06234567901234567,13.653703703703702,0)" xlink:href="#ai"/><use transform="matrix(0.06234567901234567,0,0,0.06234567901234567,26.122839506172834,0)" xlink:href="#ak"/></g><path d="M124-194c51 0 84 22 84 74C207-44 167 4 94 4 43 4 11-23 11-74c0-74 41-120 113-120zM99-30c46 0 58-42 58-86 0-27-11-44-37-44-44 0-55 40-57 84-1 27 10 45 36 46" id="al"/><path d="M151-194c95 0 34 128 28 194h-49l25-134c0-29-45-25-59-9C67-111 69-48 56 0H6l36-190h47l-4 32c15-20 33-36 66-36" id="am"/><path d="M114-194c63-2 87 48 72 110H63c-3 28 1 55 31 54 21-1 32-13 37-29l44 13C160-14 137 4 91 4 41 4 11-22 11-73c0-71 33-119 103-121zm30 77c14-47-50-61-67-22-3 6-6 13-8 22h75zm-52-91c10-23 30-36 44-56h49l-1 8-67 48H92" id="an"/><g id="w"><use transform="matrix(0.06234567901234567,0,0,0.06234567901234567,0,0)" xlink:href="#aj"/><use transform="matrix(0.06234567901234567,0,0,0.06234567901234567,13.653703703703702,0)" xlink:href="#al"/><use transform="matrix(0.06234567901234567,0,0,0.06234567901234567,27.307407407407403,0)" xlink:href="#am"/><use transform="matrix(0.06234567901234567,0,0,0.06234567901234567,40.96111111111111,0)" xlink:href="#am"/><use transform="matrix(0.06234567901234567,0,0,0.06234567901234567,54.61481481481481,0)" xlink:href="#an"/><use transform="matrix(0.06234567901234567,0,0,0.06234567901234567,67.08395061728393,0)" xlink:href="#ai"/><use transform="matrix(0.06234567901234567,0,0,0.06234567901234567,79.55308641975307,0)" xlink:href="#ak"/></g><g id="x"><use transform="matrix(0.06234567901234567,0,0,0.06234567901234567,0,0)" xlink:href="#aj"/><use transform="matrix(0.06234567901234567,0,0,0.06234567901234567,13.653703703703702,0)" xlink:href="#ai"/></g><path d="M6 0l51-261h49L55 0H6" id="ao"/><path d="M166-52c-4 17 5 29 24 23l-3 27c-30 11-74 1-67-34C105-15 91 4 56 4 23 4 3-15 2-49c0-64 63-67 128-67 10-22 3-53-29-45-13 3-22 10-25 24l-46-5c5-64 156-77 153 0-1 33-11 60-17 90zM97-88c-44-9-64 57-19 57 31 0 42-28 47-57H97" id="ap"/><g id="y"><use transform="matrix(0.06234567901234567,0,0,0.06234567901234567,0,0)" xlink:href="#ao"/><use transform="matrix(0.06234567901234567,0,0,0.06234567901234567,6.234567901234566,0)" xlink:href="#ap"/></g><path d="M50-224l7-37h49l-7 37H50zM6 0l37-190h49L55 0H6" id="aq"/><g id="z"><use transform="matrix(0.06234567901234567,0,0,0.06234567901234567,0,0)" xlink:href="#ao"/><use transform="matrix(0.06234567901234567,0,0,0.06234567901234567,6.234567901234566,0)" xlink:href="#aq"/><use transform="matrix(0.06234567901234567,0,0,0.06234567901234567,12.469135802469133,0)" xlink:href="#ae"/><use transform="matrix(0.06234567901234567,0,0,0.06234567901234567,19.888271604938268,0)" xlink:href="#ae"/><use transform="matrix(0.06234567901234567,0,0,0.06234567901234567,27.307407407407403,0)" xlink:href="#an"/><use transform="matrix(0.06234567901234567,0,0,0.06234567901234567,39.776543209876536,0)" xlink:href="#af"/><use transform="matrix(0.06234567901234567,0,0,0.06234567901234567,48.50493827160493,0)" xlink:href="#ap"/><use transform="matrix(0.06234567901234567,0,0,0.06234567901234567,60.97407407407406,0)" xlink:href="#ae"/><use transform="matrix(0.06234567901234567,0,0,0.06234567901234567,68.3932098765432,0)" xlink:href="#ag"/><use transform="matrix(0.06234567901234567,0,0,0.06234567901234567,82.0469135802469,0)" xlink:href="#af"/><use transform="matrix(0.06234567901234567,0,0,0.06234567901234567,90.77530864197529,0)" xlink:href="#ai"/></g></defs></g></svg>